%TF.GenerationSoftware,KiCad,Pcbnew,8.0.2-1*%
%TF.CreationDate,2024-10-31T23:55:18-04:00*%
%TF.ProjectId,version2,76657273-696f-46e3-922e-6b696361645f,rev?*%
%TF.SameCoordinates,Original*%
%TF.FileFunction,Copper,L1,Top*%
%TF.FilePolarity,Positive*%
%FSLAX46Y46*%
G04 Gerber Fmt 4.6, Leading zero omitted, Abs format (unit mm)*
G04 Created by KiCad (PCBNEW 8.0.2-1) date 2024-10-31 23:55:18*
%MOMM*%
%LPD*%
G01*
G04 APERTURE LIST*
G04 Aperture macros list*
%AMRoundRect*
0 Rectangle with rounded corners*
0 $1 Rounding radius*
0 $2 $3 $4 $5 $6 $7 $8 $9 X,Y pos of 4 corners*
0 Add a 4 corners polygon primitive as box body*
4,1,4,$2,$3,$4,$5,$6,$7,$8,$9,$2,$3,0*
0 Add four circle primitives for the rounded corners*
1,1,$1+$1,$2,$3*
1,1,$1+$1,$4,$5*
1,1,$1+$1,$6,$7*
1,1,$1+$1,$8,$9*
0 Add four rect primitives between the rounded corners*
20,1,$1+$1,$2,$3,$4,$5,0*
20,1,$1+$1,$4,$5,$6,$7,0*
20,1,$1+$1,$6,$7,$8,$9,0*
20,1,$1+$1,$8,$9,$2,$3,0*%
G04 Aperture macros list end*
%TA.AperFunction,SMDPad,CuDef*%
%ADD10C,1.500000*%
%TD*%
%TA.AperFunction,ComponentPad*%
%ADD11R,1.700000X1.700000*%
%TD*%
%TA.AperFunction,ComponentPad*%
%ADD12O,1.700000X1.700000*%
%TD*%
%TA.AperFunction,SMDPad,CuDef*%
%ADD13RoundRect,0.250000X0.337500X0.475000X-0.337500X0.475000X-0.337500X-0.475000X0.337500X-0.475000X0*%
%TD*%
%TA.AperFunction,ComponentPad*%
%ADD14R,1.358000X1.358000*%
%TD*%
%TA.AperFunction,ComponentPad*%
%ADD15C,1.358000*%
%TD*%
%TA.AperFunction,SMDPad,CuDef*%
%ADD16RoundRect,0.200000X-0.450000X0.200000X-0.450000X-0.200000X0.450000X-0.200000X0.450000X0.200000X0*%
%TD*%
%TA.AperFunction,SMDPad,CuDef*%
%ADD17RoundRect,0.250001X-1.249999X0.799999X-1.249999X-0.799999X1.249999X-0.799999X1.249999X0.799999X0*%
%TD*%
%TA.AperFunction,SMDPad,CuDef*%
%ADD18RoundRect,0.250000X0.475000X-0.337500X0.475000X0.337500X-0.475000X0.337500X-0.475000X-0.337500X0*%
%TD*%
%TA.AperFunction,SMDPad,CuDef*%
%ADD19RoundRect,0.250000X-0.350000X0.850000X-0.350000X-0.850000X0.350000X-0.850000X0.350000X0.850000X0*%
%TD*%
%TA.AperFunction,SMDPad,CuDef*%
%ADD20RoundRect,0.250000X-1.125000X1.275000X-1.125000X-1.275000X1.125000X-1.275000X1.125000X1.275000X0*%
%TD*%
%TA.AperFunction,SMDPad,CuDef*%
%ADD21RoundRect,0.249997X-2.650003X2.950003X-2.650003X-2.950003X2.650003X-2.950003X2.650003X2.950003X0*%
%TD*%
%TA.AperFunction,ComponentPad*%
%ADD22O,3.000000X1.500000*%
%TD*%
%TA.AperFunction,ComponentPad*%
%ADD23O,1.500000X3.000000*%
%TD*%
%TA.AperFunction,ViaPad*%
%ADD24C,0.600000*%
%TD*%
%TA.AperFunction,Conductor*%
%ADD25C,0.200000*%
%TD*%
%ADD26R,1.700000X1.700000*%
%ADD27O,1.700000X1.700000*%
%ADD28RoundRect,0.102000X-0.679000X-0.679000X0.679000X-0.679000X0.679000X0.679000X-0.679000X0.679000X0*%
%ADD29C,1.562000*%
%ADD30C,1.600000*%
%ADD31O,3.204000X1.704000*%
%ADD32O,1.704000X3.204000*%
%ADD33C,1.500000*%
%ADD34RoundRect,0.250000X0.337500X0.475000X-0.337500X0.475000X-0.337500X-0.475000X0.337500X-0.475000X0*%
%ADD35RoundRect,0.200000X-0.450000X0.200000X-0.450000X-0.200000X0.450000X-0.200000X0.450000X0.200000X0*%
%ADD36RoundRect,0.250001X-1.249999X0.799999X-1.249999X-0.799999X1.249999X-0.799999X1.249999X0.799999X0*%
%ADD37RoundRect,0.250000X0.475000X-0.337500X0.475000X0.337500X-0.475000X0.337500X-0.475000X-0.337500X0*%
%ADD38RoundRect,0.250000X-0.350000X0.850000X-0.350000X-0.850000X0.350000X-0.850000X0.350000X0.850000X0*%
%ADD39RoundRect,0.249997X-2.650003X2.950003X-2.650003X-2.950003X2.650003X-2.950003X2.650003X2.950003X0*%
%ADD40C,0.100000*%
%ADD41C,0.150000*%
%ADD42C,0.120000*%
%ADD43C,0.127000*%
%ADD44C,0.200000*%
%TA.AperFunction,Profile*%
%ADD45C,0.050000*%
%TD*%
G04 APERTURE END LIST*
D10*
%TO.P,TP3,1,1*%
%TO.N,GND*%
X131880000Y-80850000D03*
%TD*%
D11*
%TO.P,J1,1,Pin_1*%
%TO.N,GND*%
X139180000Y-79000000D03*
D12*
%TO.P,J1,2,Pin_2*%
%TO.N,/Y_OUT*%
X139180000Y-76460000D03*
%TO.P,J1,3,Pin_3*%
%TO.N,/X_OUT*%
X139180000Y-73920000D03*
%TO.P,J1,4,Pin_4*%
%TO.N,/3.3V*%
X139180000Y-71380000D03*
%TO.P,J1,5,Pin_5*%
%TO.N,/PWR*%
X139180000Y-68840000D03*
%TD*%
D10*
%TO.P,TP2,1,1*%
%TO.N,/3.3V*%
X131880000Y-70850000D03*
%TD*%
%TO.P,TP5,1,1*%
%TO.N,/Y_OUT*%
X131880000Y-77590000D03*
%TD*%
%TO.P,TP4,1,1*%
%TO.N,/X_OUT*%
X131880000Y-74190000D03*
%TD*%
D13*
%TO.P,C4,1*%
%TO.N,/PWR*%
X126487500Y-69590000D03*
%TO.P,C4,2*%
%TO.N,GND*%
X124412500Y-69590000D03*
%TD*%
D10*
%TO.P,TP1,1,1*%
%TO.N,/PWR*%
X131940000Y-67680000D03*
%TD*%
D14*
%TO.P,U2,1,D0*%
%TO.N,/X_OUT*%
X103707500Y-70048500D03*
D15*
%TO.P,U2,2,D1*%
%TO.N,/Y_OUT*%
X103707500Y-72588500D03*
%TO.P,U2,3,D2*%
%TO.N,unconnected-(U2-D2-Pad3)*%
X103707500Y-75128500D03*
%TO.P,U2,4,D3*%
%TO.N,unconnected-(U2-D3-Pad4)*%
X103707500Y-77668500D03*
%TO.P,U2,5,D4*%
%TO.N,unconnected-(U2-D4-Pad5)*%
X103707500Y-80208500D03*
%TO.P,U2,6,D5*%
%TO.N,unconnected-(U2-D5-Pad6)*%
X103707500Y-82748500D03*
%TO.P,U2,7,TX_D6*%
%TO.N,unconnected-(U2-TX_D6-Pad7)*%
X103707500Y-85288500D03*
%TO.P,U2,8,RX_D7*%
%TO.N,unconnected-(U2-RX_D7-Pad8)*%
X118947500Y-85288500D03*
%TO.P,U2,9,D8*%
%TO.N,unconnected-(U2-D8-Pad9)*%
X118947500Y-82748500D03*
%TO.P,U2,10,D9*%
%TO.N,unconnected-(U2-D9-Pad10)*%
X118947500Y-80208500D03*
%TO.P,U2,11,D10*%
%TO.N,unconnected-(U2-D10-Pad11)*%
X118947500Y-77668500D03*
%TO.P,U2,12,VCC_3V3*%
%TO.N,/3.3V*%
X118947500Y-75128500D03*
%TO.P,U2,13,GND*%
%TO.N,GND*%
X118947500Y-72588500D03*
%TO.P,U2,14,VUSB*%
%TO.N,unconnected-(U2-VUSB-Pad14)*%
X118947500Y-70048500D03*
%TD*%
D16*
%TO.P,BATTERY,1,+*%
%TO.N,/PWR*%
X142776000Y-101862500D03*
%TO.P,BATTERY,2,-*%
%TO.N,GND*%
X142776000Y-103112500D03*
D17*
%TO.P,BATTERY,MP*%
%TO.N,N/C*%
X140026000Y-99312500D03*
X140026000Y-105662500D03*
%TD*%
D18*
%TO.P,C3,1*%
%TO.N,/PWR*%
X137266000Y-94057500D03*
%TO.P,C3,2*%
%TO.N,GND*%
X137266000Y-91982500D03*
%TD*%
%TO.P,C2,1*%
%TO.N,/3.3V*%
X127736000Y-93875000D03*
%TO.P,C2,2*%
%TO.N,GND*%
X127736000Y-91800000D03*
%TD*%
%TO.P,C1,1*%
%TO.N,/PWR*%
X143366000Y-94105000D03*
%TO.P,C1,2*%
%TO.N,GND*%
X143366000Y-92030000D03*
%TD*%
D19*
%TO.P,U1,1,GND*%
%TO.N,GND*%
X134045000Y-97625000D03*
%TO.P,U1,2,VO*%
%TO.N,/3.3V*%
X131765000Y-97625000D03*
D20*
X133290000Y-102250000D03*
X130240000Y-102250000D03*
D21*
X131765000Y-103925000D03*
D20*
X133290000Y-105600000D03*
X130240000Y-105600000D03*
D19*
%TO.P,U1,3,VI*%
%TO.N,/PWR*%
X129485000Y-97625000D03*
%TD*%
D11*
%TO.P,J2,1,Pin_1*%
%TO.N,/PWR*%
X144722500Y-68850000D03*
D12*
%TO.P,J2,2,Pin_2*%
%TO.N,/3.3V*%
X144722500Y-71390000D03*
%TO.P,J2,3,Pin_3*%
%TO.N,/X_OUT*%
X144722500Y-73930000D03*
%TO.P,J2,4,Pin_4*%
%TO.N,/Y_OUT*%
X144722500Y-76470000D03*
%TO.P,J2,5,Pin_5*%
%TO.N,GND*%
X144722500Y-79010000D03*
%TD*%
D22*
%TO.P,JOYSTICK,X*%
%TO.N,/X_OUT*%
X120260000Y-97770000D03*
%TO.P,JOYSTICK,X+*%
%TO.N,/3.3V*%
X120260000Y-99770000D03*
%TO.P,JOYSTICK,X-*%
%TO.N,GND*%
X120260000Y-95770000D03*
D23*
%TO.P,JOYSTICK,Y*%
%TO.N,/Y_OUT*%
X111260000Y-106770000D03*
%TO.P,JOYSTICK,Y+*%
%TO.N,/3.3V*%
X113260000Y-106770000D03*
%TO.P,JOYSTICK,Y-*%
%TO.N,GND*%
X109260000Y-106770000D03*
%TD*%
D24*
%TO.N,GND*%
X134860000Y-93370000D03*
X125980000Y-92950000D03*
X132864023Y-96719122D03*
%TO.N,/3.3V*%
X141470000Y-79750000D03*
X141450000Y-75840000D03*
%TO.N,/X_OUT*%
X106760000Y-70710000D03*
X115050000Y-81000000D03*
%TD*%
D25*
%TO.N,/PWR*%
X145198846Y-77620000D02*
X133334925Y-77620000D01*
X138020000Y-67680000D02*
X139180000Y-68840000D01*
X144712500Y-68840000D02*
X144722500Y-68850000D01*
X127918500Y-94057500D02*
X127736000Y-93875000D01*
X139180000Y-68840000D02*
X144712500Y-68840000D01*
X137313500Y-94105000D02*
X137266000Y-94057500D01*
X137266000Y-94057500D02*
X133052500Y-94057500D01*
X143366000Y-94105000D02*
X137313500Y-94105000D01*
X133052500Y-94057500D02*
X129485000Y-97625000D01*
X133334925Y-77620000D02*
X128761000Y-82193925D01*
X146272500Y-71313654D02*
X146272500Y-76546346D01*
X126487500Y-69590000D02*
X130030000Y-69590000D01*
X142776000Y-101862500D02*
X143366000Y-101272500D01*
X130030000Y-69590000D02*
X131940000Y-67680000D01*
X142638846Y-67680000D02*
X146272500Y-71313654D01*
X143366000Y-101272500D02*
X143366000Y-94105000D01*
X128761000Y-92850000D02*
X127736000Y-93875000D01*
X131940000Y-67680000D02*
X142638846Y-67680000D01*
X146272500Y-76546346D02*
X145198846Y-77620000D01*
X131940000Y-67680000D02*
X138020000Y-67680000D01*
X128761000Y-82193925D02*
X128761000Y-92850000D01*
%TO.N,GND*%
X139190000Y-79010000D02*
X139180000Y-79000000D01*
X144712500Y-79000000D02*
X144722500Y-79010000D01*
X127736000Y-91800000D02*
X127130000Y-91800000D01*
X127736000Y-91764000D02*
X127810000Y-91690000D01*
X131880000Y-80850000D02*
X137330000Y-80850000D01*
X133139122Y-96719122D02*
X134045000Y-97625000D01*
X139532500Y-103112500D02*
X142776000Y-103112500D01*
X134045000Y-97625000D02*
X139532500Y-103112500D01*
X137266000Y-91982500D02*
X136247500Y-91982500D01*
X127130000Y-91800000D02*
X125980000Y-92950000D01*
X132864023Y-96719122D02*
X133139122Y-96719122D01*
X143318500Y-91982500D02*
X143366000Y-92030000D01*
X127736000Y-91800000D02*
X127736000Y-91764000D01*
X137266000Y-91982500D02*
X143318500Y-91982500D01*
X137330000Y-80850000D02*
X139180000Y-79000000D01*
X121414000Y-72588500D02*
X124412500Y-69590000D01*
X139180000Y-79000000D02*
X144712500Y-79000000D01*
X118947500Y-72588500D02*
X121414000Y-72588500D01*
X136247500Y-91982500D02*
X134860000Y-93370000D01*
%TO.N,/3.3V*%
X144712500Y-71380000D02*
X144722500Y-71390000D01*
X142050000Y-75240000D02*
X141450000Y-75840000D01*
X139180000Y-71380000D02*
X139400000Y-71380000D01*
X139400000Y-71380000D02*
X139410000Y-71390000D01*
X131765000Y-97625000D02*
X131765000Y-100725000D01*
X142690000Y-75240000D02*
X145038846Y-75240000D01*
X142690000Y-75240000D02*
X142050000Y-75240000D01*
X141470000Y-80640000D02*
X143040000Y-82210000D01*
X131765000Y-100725000D02*
X130240000Y-102250000D01*
X145872500Y-72540000D02*
X144722500Y-71390000D01*
X145872500Y-74406346D02*
X145872500Y-72540000D01*
X118947500Y-75128500D02*
X120116000Y-73960000D01*
X138650000Y-70850000D02*
X139180000Y-71380000D01*
X120116000Y-73960000D02*
X128644314Y-73960000D01*
X141470000Y-79750000D02*
X141470000Y-80640000D01*
X128644314Y-73960000D02*
X129924314Y-75240000D01*
X129924314Y-75240000D02*
X142690000Y-75240000D01*
X145038846Y-75240000D02*
X145872500Y-74406346D01*
X139180000Y-71380000D02*
X144712500Y-71380000D01*
%TO.N,/Y_OUT*%
X131708628Y-77590000D02*
X131880000Y-77590000D01*
X133010000Y-76460000D02*
X139180000Y-76460000D01*
X139180000Y-76460000D02*
X144712500Y-76460000D01*
X131880000Y-77590000D02*
X133010000Y-76460000D01*
X103707500Y-72588500D02*
X109766500Y-78647500D01*
X107226500Y-76107500D02*
X119353016Y-76107500D01*
X128558628Y-74440000D02*
X131708628Y-77590000D01*
X111285000Y-80166000D02*
X109766500Y-78647500D01*
X144712500Y-76460000D02*
X144722500Y-76470000D01*
X119353016Y-76107500D02*
X121020516Y-74440000D01*
X109766500Y-78647500D02*
X107226500Y-76107500D01*
X121020516Y-74440000D02*
X128558628Y-74440000D01*
X111285000Y-107517500D02*
X111285000Y-80166000D01*
%TO.N,/X_OUT*%
X131880000Y-74190000D02*
X138910000Y-74190000D01*
X120050076Y-98517500D02*
X115050000Y-93517424D01*
X125600000Y-70350000D02*
X129440000Y-74190000D01*
X138910000Y-74190000D02*
X139180000Y-73920000D01*
X125600000Y-69180000D02*
X125600000Y-70350000D01*
X139190000Y-73930000D02*
X144722500Y-73930000D01*
X106098500Y-70048500D02*
X103707500Y-70048500D01*
X106760000Y-70710000D02*
X106098500Y-70048500D01*
X105191000Y-68565000D02*
X124985000Y-68565000D01*
X120285000Y-98517500D02*
X120050076Y-98517500D01*
X124985000Y-68565000D02*
X125600000Y-69180000D01*
X139180000Y-73920000D02*
X139190000Y-73930000D01*
X129440000Y-74190000D02*
X131880000Y-74190000D01*
X103707500Y-70048500D02*
X105191000Y-68565000D01*
X115050000Y-93517424D02*
X115050000Y-81000000D01*
%TD*%
%TA.AperFunction,Conductor*%
%TO.N,/3.3V*%
G36*
X130776384Y-74810185D02*
G01*
X130810917Y-74843373D01*
X130918402Y-74996877D01*
X131073123Y-75151598D01*
X131252361Y-75277102D01*
X131450670Y-75369575D01*
X131662023Y-75426207D01*
X131844926Y-75442208D01*
X131879998Y-75445277D01*
X131880000Y-75445277D01*
X131880002Y-75445277D01*
X131908254Y-75442805D01*
X132097977Y-75426207D01*
X132309330Y-75369575D01*
X132507639Y-75277102D01*
X132686877Y-75151598D01*
X132841598Y-74996877D01*
X132949081Y-74843374D01*
X133003657Y-74799751D01*
X133050655Y-74790500D01*
X138089241Y-74790500D01*
X138156280Y-74810185D01*
X138176922Y-74826818D01*
X138308599Y-74958495D01*
X138308602Y-74958497D01*
X138308603Y-74958498D01*
X138494158Y-75088425D01*
X138537783Y-75143002D01*
X138544977Y-75212500D01*
X138513454Y-75274855D01*
X138494158Y-75291575D01*
X138308597Y-75421505D01*
X138141506Y-75588596D01*
X138005965Y-75782170D01*
X138005962Y-75782175D01*
X138003289Y-75787909D01*
X137957115Y-75840346D01*
X137890909Y-75859500D01*
X132930940Y-75859500D01*
X132890019Y-75870464D01*
X132890019Y-75870465D01*
X132852751Y-75880451D01*
X132778214Y-75900423D01*
X132778209Y-75900426D01*
X132641290Y-75979475D01*
X132641282Y-75979481D01*
X132529478Y-76091286D01*
X132281881Y-76338882D01*
X132220558Y-76372367D01*
X132162108Y-76370976D01*
X132097984Y-76353795D01*
X132097986Y-76353795D01*
X132097977Y-76353793D01*
X132097973Y-76353792D01*
X132097970Y-76353792D01*
X131880002Y-76334723D01*
X131879998Y-76334723D01*
X131734682Y-76347436D01*
X131662023Y-76353793D01*
X131662020Y-76353793D01*
X131462735Y-76407191D01*
X131392885Y-76405528D01*
X131342961Y-76375097D01*
X129970044Y-75002181D01*
X129936559Y-74940858D01*
X129941543Y-74871166D01*
X129983415Y-74815233D01*
X130048879Y-74790816D01*
X130057725Y-74790500D01*
X130709345Y-74790500D01*
X130776384Y-74810185D01*
G37*
%TD.AperFunction*%
%TA.AperFunction,Conductor*%
G36*
X143500448Y-74550185D02*
G01*
X143545792Y-74602097D01*
X143548465Y-74607830D01*
X143676999Y-74791395D01*
X143684001Y-74801395D01*
X143684006Y-74801402D01*
X143851097Y-74968493D01*
X143851103Y-74968498D01*
X144036658Y-75098425D01*
X144080283Y-75153002D01*
X144087477Y-75222500D01*
X144055954Y-75284855D01*
X144036658Y-75301575D01*
X143851097Y-75431505D01*
X143684006Y-75598596D01*
X143548465Y-75792170D01*
X143545757Y-75796862D01*
X143543631Y-75795634D01*
X143504342Y-75840307D01*
X143438073Y-75859500D01*
X140469091Y-75859500D01*
X140402052Y-75839815D01*
X140356711Y-75787909D01*
X140354037Y-75782175D01*
X140354034Y-75782170D01*
X140218494Y-75588597D01*
X140051402Y-75421506D01*
X140051396Y-75421501D01*
X139865842Y-75291575D01*
X139822217Y-75236998D01*
X139815023Y-75167500D01*
X139846546Y-75105145D01*
X139865842Y-75088425D01*
X139996580Y-74996881D01*
X140051401Y-74958495D01*
X140218495Y-74791401D01*
X140354035Y-74597830D01*
X140354036Y-74597826D01*
X140356743Y-74593140D01*
X140358866Y-74594366D01*
X140398169Y-74549687D01*
X140464428Y-74530500D01*
X143433409Y-74530500D01*
X143500448Y-74550185D01*
G37*
%TD.AperFunction*%
%TA.AperFunction,Conductor*%
G36*
X117954286Y-69185185D02*
G01*
X118000041Y-69237989D01*
X118009985Y-69307147D01*
X117986201Y-69364227D01*
X117940374Y-69424910D01*
X117940369Y-69424918D01*
X117842941Y-69620579D01*
X117842935Y-69620594D01*
X117783116Y-69830837D01*
X117783115Y-69830839D01*
X117762947Y-70048499D01*
X117762947Y-70048500D01*
X117783115Y-70266160D01*
X117783116Y-70266162D01*
X117842935Y-70476405D01*
X117842941Y-70476420D01*
X117940369Y-70672081D01*
X117940374Y-70672089D01*
X118065355Y-70837590D01*
X118072105Y-70846528D01*
X118233647Y-70993794D01*
X118233649Y-70993795D01*
X118233650Y-70993796D01*
X118419495Y-71108866D01*
X118419501Y-71108869D01*
X118487443Y-71135189D01*
X118623332Y-71187833D01*
X118670295Y-71196612D01*
X118732573Y-71228280D01*
X118767846Y-71288592D01*
X118764912Y-71358400D01*
X118724703Y-71415540D01*
X118670295Y-71440387D01*
X118623332Y-71449167D01*
X118623330Y-71449167D01*
X118623328Y-71449168D01*
X118419501Y-71528130D01*
X118419495Y-71528133D01*
X118233650Y-71643203D01*
X118072104Y-71790472D01*
X117940374Y-71964910D01*
X117940369Y-71964918D01*
X117842941Y-72160579D01*
X117842935Y-72160594D01*
X117783116Y-72370837D01*
X117783115Y-72370839D01*
X117762947Y-72588499D01*
X117762947Y-72588500D01*
X117783115Y-72806160D01*
X117783116Y-72806162D01*
X117842935Y-73016405D01*
X117842941Y-73016420D01*
X117940369Y-73212081D01*
X117940374Y-73212089D01*
X118069534Y-73383124D01*
X118072105Y-73386528D01*
X118233647Y-73533794D01*
X118233649Y-73533795D01*
X118233650Y-73533796D01*
X118419495Y-73648866D01*
X118419501Y-73648869D01*
X118462682Y-73665597D01*
X118623332Y-73727833D01*
X118838203Y-73768000D01*
X118838205Y-73768000D01*
X119056795Y-73768000D01*
X119056797Y-73768000D01*
X119271668Y-73727833D01*
X119475501Y-73648868D01*
X119661353Y-73533794D01*
X119822895Y-73386528D01*
X119934852Y-73238272D01*
X119990961Y-73196637D01*
X120033806Y-73189000D01*
X121327331Y-73189000D01*
X121327347Y-73189001D01*
X121334943Y-73189001D01*
X121493054Y-73189001D01*
X121493057Y-73189001D01*
X121645785Y-73148077D01*
X121695904Y-73119139D01*
X121782716Y-73069020D01*
X121894520Y-72957216D01*
X121894520Y-72957214D01*
X121904728Y-72947007D01*
X121904730Y-72947004D01*
X123999916Y-70851818D01*
X124061239Y-70818333D01*
X124087597Y-70815499D01*
X124800002Y-70815499D01*
X124800008Y-70815499D01*
X124902797Y-70804999D01*
X125057758Y-70753649D01*
X125127581Y-70751248D01*
X125184439Y-70783675D01*
X125238349Y-70837585D01*
X125238355Y-70837590D01*
X128028584Y-73627819D01*
X128062069Y-73689142D01*
X128057085Y-73758834D01*
X128015213Y-73814767D01*
X127949749Y-73839184D01*
X127940903Y-73839500D01*
X121099573Y-73839500D01*
X120941459Y-73839500D01*
X120788731Y-73880423D01*
X120788730Y-73880423D01*
X120788728Y-73880424D01*
X120788725Y-73880425D01*
X120738612Y-73909359D01*
X120738611Y-73909360D01*
X120695205Y-73934420D01*
X120651801Y-73959479D01*
X120651798Y-73959481D01*
X120543150Y-74068130D01*
X120539996Y-74071284D01*
X120539994Y-74071286D01*
X119834014Y-74777267D01*
X119140600Y-75470681D01*
X119079277Y-75504166D01*
X119052919Y-75507000D01*
X107526597Y-75507000D01*
X107459558Y-75487315D01*
X107438916Y-75470681D01*
X104901817Y-72933582D01*
X104868332Y-72872259D01*
X104870231Y-72811967D01*
X104871884Y-72806161D01*
X104892053Y-72588500D01*
X104871884Y-72370839D01*
X104812063Y-72160590D01*
X104812058Y-72160579D01*
X104714630Y-71964918D01*
X104714625Y-71964910D01*
X104582895Y-71790472D01*
X104421353Y-71643206D01*
X104421350Y-71643204D01*
X104421349Y-71643203D01*
X104235504Y-71528133D01*
X104235498Y-71528130D01*
X104079316Y-71467626D01*
X104023915Y-71425053D01*
X104000324Y-71359286D01*
X104016035Y-71291206D01*
X104066059Y-71242427D01*
X104124109Y-71227999D01*
X104434372Y-71227999D01*
X104493983Y-71221591D01*
X104628831Y-71171296D01*
X104744046Y-71085046D01*
X104830296Y-70969831D01*
X104880591Y-70834983D01*
X104887000Y-70775373D01*
X104887000Y-70773000D01*
X104887155Y-70772471D01*
X104887178Y-70772048D01*
X104887277Y-70772053D01*
X104906685Y-70705961D01*
X104959489Y-70660206D01*
X105011000Y-70649000D01*
X105798403Y-70649000D01*
X105865442Y-70668685D01*
X105886084Y-70685319D01*
X105929298Y-70728533D01*
X105962783Y-70789856D01*
X105964837Y-70802330D01*
X105974630Y-70889249D01*
X106034210Y-71059521D01*
X106050249Y-71085047D01*
X106130184Y-71212262D01*
X106257738Y-71339816D01*
X106305212Y-71369646D01*
X106393391Y-71425053D01*
X106410478Y-71435789D01*
X106501460Y-71467625D01*
X106580745Y-71495368D01*
X106580750Y-71495369D01*
X106759996Y-71515565D01*
X106760000Y-71515565D01*
X106760004Y-71515565D01*
X106939249Y-71495369D01*
X106939252Y-71495368D01*
X106939255Y-71495368D01*
X107109522Y-71435789D01*
X107262262Y-71339816D01*
X107389816Y-71212262D01*
X107485789Y-71059522D01*
X107545368Y-70889255D01*
X107550182Y-70846528D01*
X107565565Y-70710003D01*
X107565565Y-70709996D01*
X107545369Y-70530750D01*
X107545368Y-70530745D01*
X107494137Y-70384336D01*
X107485789Y-70360478D01*
X107389816Y-70207738D01*
X107262262Y-70080184D01*
X107246879Y-70070518D01*
X107109521Y-69984210D01*
X106939249Y-69924630D01*
X106852330Y-69914837D01*
X106787916Y-69887770D01*
X106778533Y-69879298D01*
X106586090Y-69686855D01*
X106586088Y-69686852D01*
X106467217Y-69567981D01*
X106467216Y-69567980D01*
X106368424Y-69510943D01*
X106368423Y-69510942D01*
X106330283Y-69488922D01*
X106274381Y-69473943D01*
X106177557Y-69447999D01*
X106019443Y-69447999D01*
X106011847Y-69447999D01*
X106011831Y-69448000D01*
X105456597Y-69448000D01*
X105389558Y-69428315D01*
X105343803Y-69375511D01*
X105333859Y-69306353D01*
X105362884Y-69242797D01*
X105368916Y-69236319D01*
X105403416Y-69201819D01*
X105464739Y-69168334D01*
X105491097Y-69165500D01*
X117887247Y-69165500D01*
X117954286Y-69185185D01*
G37*
%TD.AperFunction*%
%TA.AperFunction,Conductor*%
G36*
X137786942Y-68300185D02*
G01*
X137807584Y-68316819D01*
X137847233Y-68356468D01*
X137880718Y-68417791D01*
X137879327Y-68476241D01*
X137844939Y-68604583D01*
X137844936Y-68604596D01*
X137824341Y-68839999D01*
X137824341Y-68840000D01*
X137844936Y-69075403D01*
X137844938Y-69075413D01*
X137906094Y-69303655D01*
X137906096Y-69303659D01*
X137906097Y-69303663D01*
X137973402Y-69447999D01*
X138005965Y-69517830D01*
X138005967Y-69517834D01*
X138077918Y-69620590D01*
X138141505Y-69711401D01*
X138308599Y-69878495D01*
X138399762Y-69942328D01*
X138502165Y-70014032D01*
X138502167Y-70014033D01*
X138502170Y-70014035D01*
X138716337Y-70113903D01*
X138944592Y-70175063D01*
X139121034Y-70190500D01*
X139179999Y-70195659D01*
X139180000Y-70195659D01*
X139180001Y-70195659D01*
X139230645Y-70191228D01*
X139415408Y-70175063D01*
X139643663Y-70113903D01*
X139857830Y-70014035D01*
X140051401Y-69878495D01*
X140218495Y-69711401D01*
X140354035Y-69517830D01*
X140356707Y-69512097D01*
X140402878Y-69459658D01*
X140469091Y-69440500D01*
X143248001Y-69440500D01*
X143315040Y-69460185D01*
X143360795Y-69512989D01*
X143372001Y-69564500D01*
X143372001Y-69747876D01*
X143378408Y-69807483D01*
X143428702Y-69942328D01*
X143428706Y-69942335D01*
X143514952Y-70057544D01*
X143514955Y-70057547D01*
X143630164Y-70143793D01*
X143630171Y-70143797D01*
X143675118Y-70160561D01*
X143765017Y-70194091D01*
X143824627Y-70200500D01*
X144258748Y-70200499D01*
X144325787Y-70220183D01*
X144346429Y-70236818D01*
X145635681Y-71526070D01*
X145669166Y-71587393D01*
X145672000Y-71613751D01*
X145672000Y-72707988D01*
X145652315Y-72775027D01*
X145599511Y-72820782D01*
X145530353Y-72830726D01*
X145476877Y-72809563D01*
X145400334Y-72755967D01*
X145400330Y-72755965D01*
X145297443Y-72707988D01*
X145186163Y-72656097D01*
X145186159Y-72656096D01*
X145186155Y-72656094D01*
X144957913Y-72594938D01*
X144957903Y-72594936D01*
X144722501Y-72574341D01*
X144722499Y-72574341D01*
X144487096Y-72594936D01*
X144487086Y-72594938D01*
X144258844Y-72656094D01*
X144258835Y-72656098D01*
X144044671Y-72755964D01*
X144044669Y-72755965D01*
X143851097Y-72891505D01*
X143684006Y-73058596D01*
X143548465Y-73252170D01*
X143548462Y-73252175D01*
X143545789Y-73257909D01*
X143499615Y-73310346D01*
X143433409Y-73329500D01*
X140473754Y-73329500D01*
X140406715Y-73309815D01*
X140361373Y-73257906D01*
X140354038Y-73242178D01*
X140354035Y-73242171D01*
X140267890Y-73119142D01*
X140218494Y-73048597D01*
X140051402Y-72881506D01*
X140051395Y-72881501D01*
X139857834Y-72745967D01*
X139857830Y-72745965D01*
X139776388Y-72707988D01*
X139643663Y-72646097D01*
X139643659Y-72646096D01*
X139643655Y-72646094D01*
X139415413Y-72584938D01*
X139415403Y-72584936D01*
X139180001Y-72564341D01*
X139179999Y-72564341D01*
X138944596Y-72584936D01*
X138944586Y-72584938D01*
X138716344Y-72646094D01*
X138716335Y-72646098D01*
X138502171Y-72745964D01*
X138502169Y-72745965D01*
X138308597Y-72881505D01*
X138141505Y-73048597D01*
X138005965Y-73242169D01*
X138005964Y-73242171D01*
X137906098Y-73456335D01*
X137906092Y-73456349D01*
X137895043Y-73497591D01*
X137858680Y-73557252D01*
X137795833Y-73587783D01*
X137775268Y-73589500D01*
X133050655Y-73589500D01*
X132983616Y-73569815D01*
X132949080Y-73536623D01*
X132841599Y-73383124D01*
X132768290Y-73309815D01*
X132686877Y-73228402D01*
X132507639Y-73102898D01*
X132507640Y-73102898D01*
X132507638Y-73102897D01*
X132391190Y-73048597D01*
X132309330Y-73010425D01*
X132309326Y-73010424D01*
X132309322Y-73010422D01*
X132097977Y-72953793D01*
X131880002Y-72934723D01*
X131879998Y-72934723D01*
X131739658Y-72947001D01*
X131662023Y-72953793D01*
X131662020Y-72953793D01*
X131450677Y-73010422D01*
X131450668Y-73010426D01*
X131252361Y-73102898D01*
X131252357Y-73102900D01*
X131073121Y-73228402D01*
X130918402Y-73383121D01*
X130810920Y-73536623D01*
X130756343Y-73580248D01*
X130709345Y-73589500D01*
X129740097Y-73589500D01*
X129673058Y-73569815D01*
X129652416Y-73553181D01*
X127064695Y-70965460D01*
X127031210Y-70904137D01*
X127036194Y-70834445D01*
X127078066Y-70778512D01*
X127113370Y-70760074D01*
X127144334Y-70749814D01*
X127293656Y-70657712D01*
X127417712Y-70533656D01*
X127509814Y-70384334D01*
X127545879Y-70275494D01*
X127585652Y-70218051D01*
X127650167Y-70191228D01*
X127663585Y-70190500D01*
X129943331Y-70190500D01*
X129943347Y-70190501D01*
X129950943Y-70190501D01*
X130109054Y-70190501D01*
X130109057Y-70190501D01*
X130261785Y-70149577D01*
X130352324Y-70097304D01*
X130398716Y-70070520D01*
X130510520Y-69958716D01*
X130510520Y-69958714D01*
X130520724Y-69948511D01*
X130520728Y-69948506D01*
X131538119Y-68931114D01*
X131599440Y-68897631D01*
X131657891Y-68899022D01*
X131722023Y-68916207D01*
X131909787Y-68932633D01*
X131939998Y-68935277D01*
X131940000Y-68935277D01*
X131940002Y-68935277D01*
X131968254Y-68932805D01*
X132157977Y-68916207D01*
X132369330Y-68859575D01*
X132567639Y-68767102D01*
X132746877Y-68641598D01*
X132901598Y-68486877D01*
X133009081Y-68333374D01*
X133063657Y-68289751D01*
X133110655Y-68280500D01*
X137719903Y-68280500D01*
X137786942Y-68300185D01*
G37*
%TD.AperFunction*%
%TA.AperFunction,Conductor*%
G36*
X147045936Y-65019649D02*
G01*
X147112949Y-65039425D01*
X147158631Y-65092291D01*
X147169767Y-65143596D01*
X147189230Y-110473938D01*
X147169574Y-110540986D01*
X147116790Y-110586763D01*
X147064931Y-110597991D01*
X100609201Y-110486003D01*
X100542209Y-110466157D01*
X100496582Y-110413242D01*
X100485500Y-110362003D01*
X100485500Y-103666530D01*
X104209500Y-103666530D01*
X104209500Y-103873469D01*
X104249868Y-104076412D01*
X104249870Y-104076420D01*
X104329058Y-104267596D01*
X104444024Y-104439657D01*
X104590342Y-104585975D01*
X104590345Y-104585977D01*
X104762402Y-104700941D01*
X104953580Y-104780130D01*
X105116236Y-104812484D01*
X105156530Y-104820499D01*
X105156534Y-104820500D01*
X105156535Y-104820500D01*
X105363466Y-104820500D01*
X105363467Y-104820499D01*
X105566420Y-104780130D01*
X105757598Y-104700941D01*
X105929655Y-104585977D01*
X106075977Y-104439655D01*
X106190941Y-104267598D01*
X106270130Y-104076420D01*
X106310500Y-103873465D01*
X106310500Y-103666535D01*
X106270130Y-103463580D01*
X106190941Y-103272402D01*
X106075977Y-103100345D01*
X106075975Y-103100342D01*
X105929657Y-102954024D01*
X105843626Y-102896541D01*
X105757598Y-102839059D01*
X105566420Y-102759870D01*
X105566412Y-102759868D01*
X105363469Y-102719500D01*
X105363465Y-102719500D01*
X105156535Y-102719500D01*
X105156530Y-102719500D01*
X104953587Y-102759868D01*
X104953579Y-102759870D01*
X104762403Y-102839058D01*
X104590342Y-102954024D01*
X104444024Y-103100342D01*
X104329058Y-103272403D01*
X104249870Y-103463579D01*
X104249868Y-103463587D01*
X104209500Y-103666530D01*
X100485500Y-103666530D01*
X100485500Y-72588499D01*
X102522947Y-72588499D01*
X102522947Y-72588500D01*
X102543115Y-72806160D01*
X102543116Y-72806162D01*
X102602935Y-73016405D01*
X102602941Y-73016420D01*
X102700369Y-73212081D01*
X102700374Y-73212089D01*
X102829534Y-73383124D01*
X102832105Y-73386528D01*
X102993647Y-73533794D01*
X102993649Y-73533795D01*
X102993650Y-73533796D01*
X103179495Y-73648866D01*
X103179501Y-73648869D01*
X103247443Y-73675189D01*
X103383332Y-73727833D01*
X103430295Y-73736612D01*
X103492573Y-73768280D01*
X103527846Y-73828592D01*
X103524912Y-73898400D01*
X103484703Y-73955540D01*
X103430295Y-73980387D01*
X103383332Y-73989167D01*
X103383330Y-73989167D01*
X103383328Y-73989168D01*
X103179501Y-74068130D01*
X103179495Y-74068133D01*
X102993650Y-74183203D01*
X102832104Y-74330472D01*
X102700374Y-74504910D01*
X102700369Y-74504918D01*
X102602941Y-74700579D01*
X102602935Y-74700594D01*
X102543116Y-74910837D01*
X102543115Y-74910839D01*
X102522947Y-75128499D01*
X102522947Y-75128500D01*
X102543115Y-75346160D01*
X102543116Y-75346162D01*
X102602935Y-75556405D01*
X102602941Y-75556420D01*
X102700369Y-75752081D01*
X102700374Y-75752089D01*
X102832104Y-75926527D01*
X102832105Y-75926528D01*
X102993647Y-76073794D01*
X102993649Y-76073795D01*
X102993650Y-76073796D01*
X103179495Y-76188866D01*
X103179501Y-76188869D01*
X103247443Y-76215189D01*
X103383332Y-76267833D01*
X103430295Y-76276612D01*
X103492573Y-76308280D01*
X103527846Y-76368592D01*
X103524912Y-76438400D01*
X103484703Y-76495540D01*
X103430295Y-76520387D01*
X103383332Y-76529167D01*
X103383330Y-76529167D01*
X103383328Y-76529168D01*
X103179501Y-76608130D01*
X103179495Y-76608133D01*
X102993650Y-76723203D01*
X102832104Y-76870472D01*
X102700374Y-77044910D01*
X102700369Y-77044918D01*
X102602941Y-77240579D01*
X102602935Y-77240594D01*
X102543116Y-77450837D01*
X102543115Y-77450839D01*
X102522947Y-77668499D01*
X102522947Y-77668500D01*
X102543115Y-77886160D01*
X102543116Y-77886162D01*
X102602935Y-78096405D01*
X102602941Y-78096420D01*
X102700369Y-78292081D01*
X102700374Y-78292089D01*
X102832104Y-78466527D01*
X102832105Y-78466528D01*
X102993647Y-78613794D01*
X102993649Y-78613795D01*
X102993650Y-78613796D01*
X103179495Y-78728866D01*
X103179501Y-78728869D01*
X103247443Y-78755189D01*
X103383332Y-78807833D01*
X103430295Y-78816612D01*
X103492573Y-78848280D01*
X103527846Y-78908592D01*
X103524912Y-78978400D01*
X103484703Y-79035540D01*
X103430295Y-79060387D01*
X103383332Y-79069167D01*
X103383330Y-79069167D01*
X103383328Y-79069168D01*
X103179501Y-79148130D01*
X103179495Y-79148133D01*
X102993650Y-79263203D01*
X102832104Y-79410472D01*
X102700374Y-79584910D01*
X102700369Y-79584918D01*
X102602941Y-79780579D01*
X102602935Y-79780594D01*
X102543116Y-79990837D01*
X102543115Y-79990839D01*
X102522947Y-80208499D01*
X102522947Y-80208500D01*
X102543115Y-80426160D01*
X102543116Y-80426162D01*
X102602935Y-80636405D01*
X102602941Y-80636420D01*
X102700369Y-80832081D01*
X102700374Y-80832089D01*
X102832104Y-81006527D01*
X102832105Y-81006528D01*
X102993647Y-81153794D01*
X102993649Y-81153795D01*
X102993650Y-81153796D01*
X103179495Y-81268866D01*
X103179501Y-81268869D01*
X103247443Y-81295189D01*
X103383332Y-81347833D01*
X103430295Y-81356612D01*
X103492573Y-81388280D01*
X103527846Y-81448592D01*
X103524912Y-81518400D01*
X103484703Y-81575540D01*
X103430295Y-81600387D01*
X103383332Y-81609167D01*
X103383330Y-81609167D01*
X103383328Y-81609168D01*
X103179501Y-81688130D01*
X103179495Y-81688133D01*
X102993650Y-81803203D01*
X102832104Y-81950472D01*
X102700374Y-82124910D01*
X102700369Y-82124918D01*
X102602941Y-82320579D01*
X102602935Y-82320594D01*
X102543116Y-82530837D01*
X102543115Y-82530839D01*
X102522947Y-82748499D01*
X102522947Y-82748500D01*
X102543115Y-82966160D01*
X102543116Y-82966162D01*
X102602935Y-83176405D01*
X102602941Y-83176420D01*
X102700369Y-83372081D01*
X102700374Y-83372089D01*
X102832104Y-83546527D01*
X102832105Y-83546528D01*
X102993647Y-83693794D01*
X102993649Y-83693795D01*
X102993650Y-83693796D01*
X103179495Y-83808866D01*
X103179501Y-83808869D01*
X103247443Y-83835189D01*
X103383332Y-83887833D01*
X103430295Y-83896612D01*
X103492573Y-83928280D01*
X103527846Y-83988592D01*
X103524912Y-84058400D01*
X103484703Y-84115540D01*
X103430295Y-84140387D01*
X103383332Y-84149167D01*
X103383330Y-84149167D01*
X103383328Y-84149168D01*
X103179501Y-84228130D01*
X103179495Y-84228133D01*
X102993650Y-84343203D01*
X102832104Y-84490472D01*
X102700374Y-84664910D01*
X102700369Y-84664918D01*
X102602941Y-84860579D01*
X102602935Y-84860594D01*
X102543116Y-85070837D01*
X102543115Y-85070839D01*
X102522947Y-85288499D01*
X102522947Y-85288500D01*
X102543115Y-85506160D01*
X102543116Y-85506162D01*
X102602935Y-85716405D01*
X102602941Y-85716420D01*
X102700369Y-85912081D01*
X102700374Y-85912089D01*
X102832104Y-86086527D01*
X102832105Y-86086528D01*
X102993647Y-86233794D01*
X102993649Y-86233795D01*
X102993650Y-86233796D01*
X103179495Y-86348866D01*
X103179501Y-86348869D01*
X103222682Y-86365597D01*
X103383332Y-86427833D01*
X103598203Y-86468000D01*
X103598205Y-86468000D01*
X103816795Y-86468000D01*
X103816797Y-86468000D01*
X104031668Y-86427833D01*
X104235501Y-86348868D01*
X104421353Y-86233794D01*
X104582895Y-86086528D01*
X104714627Y-85912087D01*
X104812063Y-85716410D01*
X104871884Y-85506161D01*
X104892053Y-85288500D01*
X104871884Y-85070839D01*
X104812063Y-84860590D01*
X104812058Y-84860579D01*
X104714630Y-84664918D01*
X104714625Y-84664910D01*
X104582895Y-84490472D01*
X104421353Y-84343206D01*
X104421350Y-84343204D01*
X104421349Y-84343203D01*
X104235504Y-84228133D01*
X104235498Y-84228130D01*
X104074851Y-84165896D01*
X104031668Y-84149167D01*
X103984704Y-84140387D01*
X103922426Y-84108721D01*
X103887153Y-84048408D01*
X103890087Y-83978600D01*
X103930296Y-83921460D01*
X103984704Y-83896612D01*
X104031668Y-83887833D01*
X104235501Y-83808868D01*
X104421353Y-83693794D01*
X104582895Y-83546528D01*
X104714627Y-83372087D01*
X104812063Y-83176410D01*
X104871884Y-82966161D01*
X104892053Y-82748500D01*
X104871884Y-82530839D01*
X104812063Y-82320590D01*
X104812058Y-82320579D01*
X104714630Y-82124918D01*
X104714625Y-82124910D01*
X104582895Y-81950472D01*
X104568229Y-81937102D01*
X104421353Y-81803206D01*
X104421350Y-81803204D01*
X104421349Y-81803203D01*
X104235504Y-81688133D01*
X104235498Y-81688130D01*
X104074851Y-81625896D01*
X104031668Y-81609167D01*
X103984704Y-81600387D01*
X103922426Y-81568721D01*
X103887153Y-81508408D01*
X103890087Y-81438600D01*
X103930296Y-81381460D01*
X103984704Y-81356612D01*
X104031668Y-81347833D01*
X104235501Y-81268868D01*
X104421353Y-81153794D01*
X104582895Y-81006528D01*
X104714627Y-80832087D01*
X104812063Y-80636410D01*
X104871884Y-80426161D01*
X104892053Y-80208500D01*
X104891964Y-80207544D01*
X104871884Y-79990839D01*
X104871883Y-79990837D01*
X104855772Y-79934214D01*
X104812063Y-79780590D01*
X104812058Y-79780579D01*
X104714630Y-79584918D01*
X104714625Y-79584910D01*
X104582895Y-79410472D01*
X104421353Y-79263206D01*
X104421350Y-79263204D01*
X104421349Y-79263203D01*
X104235504Y-79148133D01*
X104235498Y-79148130D01*
X104074851Y-79085896D01*
X104031668Y-79069167D01*
X103984704Y-79060387D01*
X103922426Y-79028721D01*
X103887153Y-78968408D01*
X103890087Y-78898600D01*
X103930296Y-78841460D01*
X103984704Y-78816612D01*
X104031668Y-78807833D01*
X104235501Y-78728868D01*
X104421353Y-78613794D01*
X104582895Y-78466528D01*
X104714627Y-78292087D01*
X104812063Y-78096410D01*
X104871884Y-77886161D01*
X104892053Y-77668500D01*
X104871884Y-77450839D01*
X104812063Y-77240590D01*
X104812058Y-77240579D01*
X104714630Y-77044918D01*
X104714625Y-77044910D01*
X104582895Y-76870472D01*
X104536570Y-76828241D01*
X104421353Y-76723206D01*
X104421350Y-76723204D01*
X104421349Y-76723203D01*
X104235504Y-76608133D01*
X104235498Y-76608130D01*
X104074851Y-76545896D01*
X104031668Y-76529167D01*
X103984704Y-76520387D01*
X103922426Y-76488721D01*
X103887153Y-76428408D01*
X103890087Y-76358600D01*
X103930296Y-76301460D01*
X103984704Y-76276612D01*
X104031668Y-76267833D01*
X104235501Y-76188868D01*
X104421353Y-76073794D01*
X104582895Y-75926528D01*
X104714627Y-75752087D01*
X104812063Y-75556410D01*
X104871884Y-75346161D01*
X104892053Y-75128500D01*
X104872042Y-74912549D01*
X104885457Y-74843982D01*
X104933814Y-74793550D01*
X105001760Y-74777267D01*
X105067722Y-74800304D01*
X105083194Y-74813429D01*
X106741639Y-76471874D01*
X106741649Y-76471885D01*
X106745979Y-76476215D01*
X106745980Y-76476216D01*
X106857784Y-76588020D01*
X106857785Y-76588020D01*
X106864852Y-76595087D01*
X106864851Y-76595087D01*
X106864855Y-76595090D01*
X110648181Y-80378416D01*
X110681666Y-80439739D01*
X110684500Y-80466097D01*
X110684500Y-104833774D01*
X110664815Y-104900813D01*
X110616800Y-104944256D01*
X110604597Y-104950474D01*
X110583385Y-104965886D01*
X110445354Y-105066172D01*
X110445352Y-105066174D01*
X110445351Y-105066174D01*
X110347681Y-105163845D01*
X110286358Y-105197330D01*
X110216666Y-105192346D01*
X110172319Y-105163845D01*
X110074648Y-105066174D01*
X110074646Y-105066172D01*
X109915405Y-104950476D01*
X109915401Y-104950474D01*
X109740029Y-104861117D01*
X109552826Y-104800290D01*
X109358422Y-104769500D01*
X109358417Y-104769500D01*
X109161583Y-104769500D01*
X109161578Y-104769500D01*
X108967173Y-104800290D01*
X108779970Y-104861117D01*
X108604594Y-104950476D01*
X108513741Y-105016485D01*
X108445354Y-105066172D01*
X108445352Y-105066174D01*
X108445351Y-105066174D01*
X108306174Y-105205351D01*
X108306174Y-105205352D01*
X108306172Y-105205354D01*
X108260001Y-105268903D01*
X108190476Y-105364594D01*
X108101117Y-105539970D01*
X108040290Y-105727173D01*
X108009500Y-105921577D01*
X108009500Y-107618422D01*
X108040290Y-107812826D01*
X108101117Y-108000029D01*
X108190476Y-108175405D01*
X108306172Y-108334646D01*
X108445354Y-108473828D01*
X108604595Y-108589524D01*
X108687455Y-108631743D01*
X108779970Y-108678882D01*
X108779972Y-108678882D01*
X108779975Y-108678884D01*
X108880317Y-108711487D01*
X108967173Y-108739709D01*
X109161578Y-108770500D01*
X109161583Y-108770500D01*
X109358422Y-108770500D01*
X109552826Y-108739709D01*
X109740025Y-108678884D01*
X109915405Y-108589524D01*
X110074646Y-108473828D01*
X110172319Y-108376155D01*
X110233642Y-108342670D01*
X110303334Y-108347654D01*
X110347681Y-108376155D01*
X110445354Y-108473828D01*
X110604595Y-108589524D01*
X110687455Y-108631743D01*
X110779970Y-108678882D01*
X110779972Y-108678882D01*
X110779975Y-108678884D01*
X110880317Y-108711487D01*
X110967173Y-108739709D01*
X111161578Y-108770500D01*
X111161583Y-108770500D01*
X111358422Y-108770500D01*
X111552826Y-108739709D01*
X111740025Y-108678884D01*
X111915405Y-108589524D01*
X112074646Y-108473828D01*
X112213828Y-108334646D01*
X112329524Y-108175405D01*
X112418884Y-108000025D01*
X112479709Y-107812826D01*
X112510500Y-107618422D01*
X112510500Y-105921577D01*
X112479709Y-105727173D01*
X112418882Y-105539970D01*
X112329523Y-105364594D01*
X112213828Y-105205354D01*
X112074646Y-105066172D01*
X111936612Y-104965884D01*
X111893949Y-104910556D01*
X111885500Y-104865568D01*
X111885500Y-104812484D01*
X138025500Y-104812484D01*
X138025500Y-106512515D01*
X138036000Y-106615295D01*
X138036001Y-106615296D01*
X138091186Y-106781835D01*
X138091187Y-106781837D01*
X138183286Y-106931151D01*
X138183289Y-106931155D01*
X138307344Y-107055210D01*
X138307348Y-107055213D01*
X138456662Y-107147312D01*
X138456664Y-107147313D01*
X138456666Y-107147314D01*
X138623203Y-107202499D01*
X138725992Y-107213000D01*
X138725997Y-107213000D01*
X141326003Y-107213000D01*
X141326008Y-107213000D01*
X141428797Y-107202499D01*
X141595334Y-107147314D01*
X141744655Y-107055211D01*
X141868711Y-106931155D01*
X141960814Y-106781834D01*
X142015999Y-106615297D01*
X142026500Y-106512508D01*
X142026500Y-104812492D01*
X142015999Y-104709703D01*
X141960814Y-104543166D01*
X141896968Y-104439657D01*
X141868713Y-104393848D01*
X141868710Y-104393844D01*
X141744655Y-104269789D01*
X141744651Y-104269786D01*
X141595337Y-104177687D01*
X141595335Y-104177686D01*
X141512065Y-104150093D01*
X141428797Y-104122501D01*
X141428795Y-104122500D01*
X141326015Y-104112000D01*
X141326008Y-104112000D01*
X138725992Y-104112000D01*
X138725984Y-104112000D01*
X138623204Y-104122500D01*
X138623203Y-104122501D01*
X138456664Y-104177686D01*
X138456662Y-104177687D01*
X138307348Y-104269786D01*
X138307344Y-104269789D01*
X138183289Y-104393844D01*
X138183286Y-104393848D01*
X138091187Y-104543162D01*
X138091186Y-104543164D01*
X138036001Y-104709703D01*
X138036000Y-104709704D01*
X138025500Y-104812484D01*
X111885500Y-104812484D01*
X111885500Y-80999996D01*
X114244435Y-80999996D01*
X114244435Y-81000003D01*
X114264630Y-81179249D01*
X114264631Y-81179254D01*
X114324211Y-81349523D01*
X114328665Y-81356611D01*
X114404712Y-81477639D01*
X114420185Y-81502263D01*
X114422445Y-81505097D01*
X114423334Y-81507275D01*
X114423889Y-81508158D01*
X114423734Y-81508255D01*
X114448855Y-81569783D01*
X114449500Y-81582412D01*
X114449500Y-93430754D01*
X114449499Y-93430772D01*
X114449499Y-93596478D01*
X114449498Y-93596478D01*
X114490422Y-93749206D01*
X114490424Y-93749211D01*
X114494094Y-93755568D01*
X114494095Y-93755569D01*
X114569477Y-93886136D01*
X114569481Y-93886141D01*
X114688349Y-94005009D01*
X114688355Y-94005014D01*
X118227870Y-97544529D01*
X118261355Y-97605852D01*
X118262663Y-97651604D01*
X118259500Y-97671578D01*
X118259500Y-97868422D01*
X118290290Y-98062826D01*
X118351117Y-98250029D01*
X118440476Y-98425405D01*
X118556172Y-98584646D01*
X118695354Y-98723828D01*
X118854595Y-98839524D01*
X118937455Y-98881743D01*
X119029970Y-98928882D01*
X119029972Y-98928882D01*
X119029975Y-98928884D01*
X119130317Y-98961487D01*
X119217173Y-98989709D01*
X119411578Y-99020500D01*
X119411583Y-99020500D01*
X119687073Y-99020500D01*
X119749067Y-99037109D01*
X119768166Y-99048136D01*
X119768170Y-99048140D01*
X119768171Y-99048139D01*
X119818291Y-99077077D01*
X119971018Y-99118000D01*
X119971019Y-99118000D01*
X119971020Y-99118000D01*
X120364055Y-99118000D01*
X120364057Y-99118000D01*
X120516784Y-99077077D01*
X120586004Y-99037112D01*
X120648004Y-99020500D01*
X121108422Y-99020500D01*
X121302826Y-98989709D01*
X121490025Y-98928884D01*
X121665405Y-98839524D01*
X121824646Y-98723828D01*
X121963828Y-98584646D01*
X122079524Y-98425405D01*
X122168884Y-98250025D01*
X122229709Y-98062826D01*
X122252364Y-97919789D01*
X122260500Y-97868422D01*
X122260500Y-97671577D01*
X122229709Y-97477173D01*
X122168882Y-97289970D01*
X122079523Y-97114594D01*
X122046138Y-97068644D01*
X121963828Y-96955354D01*
X121866155Y-96857681D01*
X121832670Y-96796358D01*
X121837654Y-96726666D01*
X121838736Y-96724983D01*
X128384500Y-96724983D01*
X128384500Y-98525001D01*
X128384501Y-98525018D01*
X128395000Y-98627796D01*
X128395001Y-98627799D01*
X128450185Y-98794331D01*
X128450186Y-98794334D01*
X128542288Y-98943656D01*
X128666344Y-99067712D01*
X128815666Y-99159814D01*
X128982203Y-99214999D01*
X129084991Y-99225500D01*
X129885008Y-99225499D01*
X129885016Y-99225498D01*
X129885019Y-99225498D01*
X129941302Y-99219748D01*
X129987797Y-99214999D01*
X130154334Y-99159814D01*
X130303656Y-99067712D01*
X130427712Y-98943656D01*
X130519814Y-98794334D01*
X130574999Y-98627797D01*
X130585500Y-98525009D01*
X130585499Y-97425095D01*
X130605184Y-97358057D01*
X130621813Y-97337420D01*
X133264916Y-94694319D01*
X133326239Y-94660834D01*
X133352597Y-94658000D01*
X136002232Y-94658000D01*
X136069271Y-94677685D01*
X136107769Y-94716901D01*
X136198288Y-94863656D01*
X136322344Y-94987712D01*
X136471666Y-95079814D01*
X136638203Y-95134999D01*
X136740991Y-95145500D01*
X137791008Y-95145499D01*
X137791016Y-95145498D01*
X137791019Y-95145498D01*
X137847302Y-95139748D01*
X137893797Y-95134999D01*
X138060334Y-95079814D01*
X138209656Y-94987712D01*
X138333712Y-94863656D01*
X138394931Y-94764402D01*
X138446879Y-94717679D01*
X138500470Y-94705500D01*
X142102232Y-94705500D01*
X142169271Y-94725185D01*
X142207769Y-94764401D01*
X142298288Y-94911156D01*
X142422344Y-95035212D01*
X142571666Y-95127314D01*
X142680505Y-95163379D01*
X142737949Y-95203152D01*
X142764772Y-95267667D01*
X142765500Y-95281085D01*
X142765500Y-100838000D01*
X142745815Y-100905039D01*
X142693011Y-100950794D01*
X142641500Y-100962000D01*
X142269384Y-100962000D01*
X142250145Y-100963748D01*
X142198807Y-100968413D01*
X142036393Y-101019022D01*
X141890811Y-101107030D01*
X141770530Y-101227311D01*
X141682522Y-101372893D01*
X141631913Y-101535307D01*
X141626782Y-101591775D01*
X141625500Y-101605884D01*
X141625500Y-102119116D01*
X141631914Y-102189696D01*
X141682212Y-102351111D01*
X141683362Y-102420971D01*
X141646561Y-102480363D01*
X141583492Y-102510431D01*
X141563826Y-102512000D01*
X139832597Y-102512000D01*
X139765558Y-102492315D01*
X139744916Y-102475681D01*
X138188750Y-100919515D01*
X138155265Y-100858192D01*
X138160249Y-100788500D01*
X138202121Y-100732567D01*
X138267585Y-100708150D01*
X138335858Y-100723002D01*
X138341528Y-100726296D01*
X138456662Y-100797312D01*
X138456664Y-100797313D01*
X138456666Y-100797314D01*
X138623203Y-100852499D01*
X138725992Y-100863000D01*
X138725997Y-100863000D01*
X141326003Y-100863000D01*
X141326008Y-100863000D01*
X141428797Y-100852499D01*
X141595334Y-100797314D01*
X141744655Y-100705211D01*
X141868711Y-100581155D01*
X141960814Y-100431834D01*
X142015999Y-100265297D01*
X142026500Y-100162508D01*
X142026500Y-98462492D01*
X142015999Y-98359703D01*
X141960814Y-98193166D01*
X141868711Y-98043845D01*
X141744655Y-97919789D01*
X141744651Y-97919786D01*
X141595337Y-97827687D01*
X141595335Y-97827686D01*
X141512065Y-97800093D01*
X141428797Y-97772501D01*
X141428795Y-97772500D01*
X141326015Y-97762000D01*
X141326008Y-97762000D01*
X138725992Y-97762000D01*
X138725984Y-97762000D01*
X138623204Y-97772500D01*
X138623203Y-97772501D01*
X138456664Y-97827686D01*
X138456662Y-97827687D01*
X138307348Y-97919786D01*
X138307344Y-97919789D01*
X138183289Y-98043844D01*
X138183286Y-98043848D01*
X138091187Y-98193162D01*
X138091186Y-98193164D01*
X138036001Y-98359703D01*
X138036000Y-98359704D01*
X138025500Y-98462484D01*
X138025500Y-100162515D01*
X138036000Y-100265295D01*
X138036001Y-100265296D01*
X138091185Y-100431832D01*
X138162204Y-100546971D01*
X138180644Y-100614363D01*
X138159722Y-100681027D01*
X138106080Y-100725797D01*
X138036749Y-100734458D01*
X137973742Y-100704262D01*
X137968984Y-100699749D01*
X135181818Y-97912583D01*
X135148333Y-97851260D01*
X135145499Y-97824902D01*
X135145499Y-96724998D01*
X135145498Y-96724981D01*
X135134999Y-96622203D01*
X135134998Y-96622200D01*
X135107717Y-96539872D01*
X135079814Y-96455666D01*
X134987712Y-96306344D01*
X134863656Y-96182288D01*
X134714334Y-96090186D01*
X134547797Y-96035001D01*
X134547795Y-96035000D01*
X134445010Y-96024500D01*
X133644998Y-96024500D01*
X133644980Y-96024501D01*
X133542203Y-96035000D01*
X133542196Y-96035002D01*
X133425923Y-96073531D01*
X133356095Y-96075932D01*
X133320948Y-96060819D01*
X133279857Y-96035000D01*
X133213545Y-95993333D01*
X133043277Y-95933753D01*
X133043272Y-95933752D01*
X132864027Y-95913557D01*
X132864019Y-95913557D01*
X132684773Y-95933752D01*
X132684768Y-95933753D01*
X132514499Y-95993333D01*
X132361760Y-96089306D01*
X132234207Y-96216859D01*
X132138234Y-96369598D01*
X132078654Y-96539867D01*
X132078653Y-96539872D01*
X132058458Y-96719118D01*
X132058458Y-96719125D01*
X132078653Y-96898371D01*
X132078654Y-96898376D01*
X132138234Y-97068645D01*
X132167106Y-97114594D01*
X132234207Y-97221384D01*
X132361761Y-97348938D01*
X132376274Y-97358057D01*
X132482965Y-97425096D01*
X132514501Y-97444911D01*
X132684768Y-97504490D01*
X132684772Y-97504491D01*
X132770878Y-97514192D01*
X132834384Y-97521347D01*
X132898797Y-97548413D01*
X132938352Y-97606007D01*
X132944500Y-97644567D01*
X132944500Y-98525001D01*
X132944501Y-98525019D01*
X132955000Y-98627796D01*
X132955001Y-98627799D01*
X133010185Y-98794331D01*
X133010186Y-98794334D01*
X133102288Y-98943656D01*
X133226344Y-99067712D01*
X133375666Y-99159814D01*
X133542203Y-99214999D01*
X133644991Y-99225500D01*
X134445008Y-99225499D01*
X134445016Y-99225498D01*
X134445019Y-99225498D01*
X134501302Y-99219748D01*
X134547797Y-99214999D01*
X134653936Y-99179827D01*
X134723760Y-99177426D01*
X134780618Y-99209853D01*
X139047639Y-103476874D01*
X139047649Y-103476885D01*
X139051979Y-103481215D01*
X139051980Y-103481216D01*
X139163784Y-103593020D01*
X139250595Y-103643139D01*
X139250597Y-103643141D01*
X139288651Y-103665111D01*
X139300715Y-103672077D01*
X139453443Y-103713001D01*
X139453446Y-103713001D01*
X139619153Y-103713001D01*
X139619169Y-103713000D01*
X141684480Y-103713000D01*
X141751519Y-103732685D01*
X141772161Y-103749319D01*
X141890811Y-103867969D01*
X141890813Y-103867970D01*
X141890815Y-103867972D01*
X142036394Y-103955978D01*
X142198804Y-104006586D01*
X142269384Y-104013000D01*
X142269387Y-104013000D01*
X143282613Y-104013000D01*
X143282616Y-104013000D01*
X143353196Y-104006586D01*
X143515606Y-103955978D01*
X143661185Y-103867972D01*
X143781472Y-103747685D01*
X143869478Y-103602106D01*
X143920086Y-103439696D01*
X143926500Y-103369116D01*
X143926500Y-102855884D01*
X143920086Y-102785304D01*
X143869478Y-102622894D01*
X143826408Y-102551649D01*
X143808573Y-102484095D01*
X143826409Y-102423350D01*
X143827847Y-102420971D01*
X143869478Y-102352106D01*
X143920086Y-102189696D01*
X143926500Y-102119116D01*
X143926500Y-101605884D01*
X143921369Y-101549428D01*
X143925085Y-101506117D01*
X143925574Y-101504288D01*
X143925577Y-101504285D01*
X143966501Y-101351557D01*
X143966501Y-101193443D01*
X143966501Y-101185848D01*
X143966500Y-101185830D01*
X143966500Y-95281085D01*
X143986185Y-95214046D01*
X144038989Y-95168291D01*
X144051489Y-95163381D01*
X144160334Y-95127314D01*
X144309656Y-95035212D01*
X144433712Y-94911156D01*
X144525814Y-94761834D01*
X144580999Y-94595297D01*
X144591500Y-94492509D01*
X144591499Y-93717492D01*
X144588566Y-93688784D01*
X144580999Y-93614703D01*
X144580998Y-93614700D01*
X144574960Y-93596478D01*
X144525814Y-93448166D01*
X144433712Y-93298844D01*
X144309656Y-93174788D01*
X144306819Y-93173038D01*
X144305283Y-93171330D01*
X144303989Y-93170307D01*
X144304163Y-93170085D01*
X144260096Y-93121094D01*
X144248872Y-93052132D01*
X144276713Y-92988049D01*
X144306817Y-92961962D01*
X144309656Y-92960212D01*
X144433712Y-92836156D01*
X144525814Y-92686834D01*
X144580999Y-92520297D01*
X144591500Y-92417509D01*
X144591499Y-91642492D01*
X144588566Y-91613784D01*
X144580999Y-91539703D01*
X144580998Y-91539700D01*
X144568498Y-91501979D01*
X144525814Y-91373166D01*
X144433712Y-91223844D01*
X144309656Y-91099788D01*
X144160334Y-91007686D01*
X143993797Y-90952501D01*
X143993795Y-90952500D01*
X143891010Y-90942000D01*
X142840998Y-90942000D01*
X142840980Y-90942001D01*
X142738203Y-90952500D01*
X142738200Y-90952501D01*
X142571668Y-91007685D01*
X142571663Y-91007687D01*
X142422342Y-91099789D01*
X142298289Y-91223842D01*
X142298288Y-91223844D01*
X142245330Y-91309704D01*
X142237069Y-91323097D01*
X142185121Y-91369821D01*
X142131530Y-91382000D01*
X138529768Y-91382000D01*
X138462729Y-91362315D01*
X138424229Y-91323097D01*
X138333712Y-91176344D01*
X138209656Y-91052288D01*
X138060334Y-90960186D01*
X137893797Y-90905001D01*
X137893795Y-90905000D01*
X137791010Y-90894500D01*
X136740998Y-90894500D01*
X136740980Y-90894501D01*
X136638203Y-90905000D01*
X136638200Y-90905001D01*
X136471668Y-90960185D01*
X136471663Y-90960187D01*
X136322342Y-91052289D01*
X136198289Y-91176342D01*
X136106184Y-91325668D01*
X136100661Y-91342336D01*
X136060886Y-91399779D01*
X136022921Y-91419097D01*
X136023219Y-91419815D01*
X136015709Y-91422925D01*
X135965596Y-91451859D01*
X135965595Y-91451860D01*
X135945283Y-91463587D01*
X135878785Y-91501979D01*
X135878782Y-91501981D01*
X135766978Y-91613786D01*
X134841465Y-92539298D01*
X134780142Y-92572783D01*
X134767668Y-92574837D01*
X134680750Y-92584630D01*
X134510478Y-92644210D01*
X134357737Y-92740184D01*
X134230184Y-92867737D01*
X134134211Y-93020476D01*
X134074631Y-93190745D01*
X134074630Y-93190750D01*
X134057039Y-93346883D01*
X134029973Y-93411297D01*
X133972378Y-93450853D01*
X133933819Y-93457000D01*
X133139169Y-93457000D01*
X133139153Y-93456999D01*
X133131557Y-93456999D01*
X132973443Y-93456999D01*
X132869634Y-93484815D01*
X132820714Y-93497923D01*
X132800530Y-93509577D01*
X132800529Y-93509577D01*
X132683787Y-93576977D01*
X132683782Y-93576981D01*
X132571978Y-93688786D01*
X130220617Y-96040146D01*
X130159294Y-96073631D01*
X130093932Y-96070171D01*
X129987797Y-96035001D01*
X129987795Y-96035000D01*
X129885010Y-96024500D01*
X129084998Y-96024500D01*
X129084980Y-96024501D01*
X128982203Y-96035000D01*
X128982200Y-96035001D01*
X128815668Y-96090185D01*
X128815663Y-96090187D01*
X128666342Y-96182289D01*
X128542289Y-96306342D01*
X128450187Y-96455663D01*
X128450186Y-96455666D01*
X128395001Y-96622203D01*
X128395001Y-96622204D01*
X128395000Y-96622204D01*
X128384500Y-96724983D01*
X121838736Y-96724983D01*
X121866155Y-96682319D01*
X121963828Y-96584646D01*
X122079524Y-96425405D01*
X122168884Y-96250025D01*
X122229709Y-96062826D01*
X122235779Y-96024500D01*
X122260500Y-95868422D01*
X122260500Y-95671577D01*
X122229709Y-95477173D01*
X122168882Y-95289970D01*
X122106883Y-95168291D01*
X122079524Y-95114595D01*
X121963828Y-94955354D01*
X121824646Y-94816172D01*
X121665405Y-94700476D01*
X121620675Y-94677685D01*
X121490029Y-94611117D01*
X121302826Y-94550290D01*
X121108422Y-94519500D01*
X121108417Y-94519500D01*
X119411583Y-94519500D01*
X119411578Y-94519500D01*
X119217173Y-94550290D01*
X119029970Y-94611117D01*
X118854594Y-94700476D01*
X118763741Y-94766485D01*
X118695354Y-94816172D01*
X118695352Y-94816174D01*
X118695351Y-94816174D01*
X118556174Y-94955351D01*
X118556174Y-94955352D01*
X118556172Y-94955354D01*
X118506485Y-95023741D01*
X118440476Y-95114594D01*
X118351117Y-95289970D01*
X118290290Y-95477173D01*
X118269389Y-95609141D01*
X118239460Y-95672276D01*
X118180148Y-95709207D01*
X118110286Y-95708209D01*
X118059235Y-95677424D01*
X115686819Y-93305008D01*
X115653334Y-93243685D01*
X115650500Y-93217327D01*
X115650500Y-91666530D01*
X116209500Y-91666530D01*
X116209500Y-91873469D01*
X116249868Y-92076412D01*
X116249870Y-92076420D01*
X116329058Y-92267596D01*
X116444024Y-92439657D01*
X116590342Y-92585975D01*
X116590345Y-92585977D01*
X116762402Y-92700941D01*
X116953580Y-92780130D01*
X117156530Y-92820499D01*
X117156534Y-92820500D01*
X117156535Y-92820500D01*
X117363466Y-92820500D01*
X117363467Y-92820499D01*
X117566420Y-92780130D01*
X117757598Y-92700941D01*
X117929655Y-92585977D01*
X118075977Y-92439655D01*
X118190941Y-92267598D01*
X118270130Y-92076420D01*
X118310500Y-91873465D01*
X118310500Y-91666535D01*
X118270130Y-91463580D01*
X118190941Y-91272402D01*
X118075977Y-91100345D01*
X118075975Y-91100342D01*
X117929657Y-90954024D01*
X117803589Y-90869789D01*
X117757598Y-90839059D01*
X117566420Y-90759870D01*
X117566412Y-90759868D01*
X117363469Y-90719500D01*
X117363465Y-90719500D01*
X117156535Y-90719500D01*
X117156530Y-90719500D01*
X116953587Y-90759868D01*
X116953579Y-90759870D01*
X116762403Y-90839058D01*
X116590342Y-90954024D01*
X116444024Y-91100342D01*
X116329058Y-91272403D01*
X116249870Y-91463579D01*
X116249868Y-91463587D01*
X116209500Y-91666530D01*
X115650500Y-91666530D01*
X115650500Y-81582412D01*
X115670185Y-81515373D01*
X115677555Y-81505097D01*
X115679810Y-81502267D01*
X115679816Y-81502262D01*
X115775789Y-81349522D01*
X115835368Y-81179255D01*
X115839696Y-81140842D01*
X115855565Y-81000003D01*
X115855565Y-80999996D01*
X115835369Y-80820750D01*
X115835368Y-80820745D01*
X115775788Y-80650476D01*
X115679815Y-80497737D01*
X115552262Y-80370184D01*
X115399523Y-80274211D01*
X115229254Y-80214631D01*
X115229249Y-80214630D01*
X115050004Y-80194435D01*
X115049996Y-80194435D01*
X114870750Y-80214630D01*
X114870745Y-80214631D01*
X114700476Y-80274211D01*
X114547737Y-80370184D01*
X114420184Y-80497737D01*
X114324211Y-80650476D01*
X114264631Y-80820745D01*
X114264630Y-80820750D01*
X114244435Y-80999996D01*
X111885500Y-80999996D01*
X111885500Y-80086943D01*
X111885499Y-80086940D01*
X111873759Y-80043124D01*
X111859749Y-79990839D01*
X111844577Y-79934215D01*
X111815639Y-79884095D01*
X111765520Y-79797284D01*
X111653716Y-79685480D01*
X111653715Y-79685479D01*
X111649385Y-79681149D01*
X111649374Y-79681139D01*
X108887916Y-76919681D01*
X108854431Y-76858358D01*
X108859415Y-76788666D01*
X108901287Y-76732733D01*
X108966751Y-76708316D01*
X108975597Y-76708000D01*
X117945773Y-76708000D01*
X118012812Y-76727685D01*
X118058567Y-76780489D01*
X118068511Y-76849647D01*
X118044727Y-76906725D01*
X118034944Y-76919681D01*
X117940374Y-77044910D01*
X117940369Y-77044918D01*
X117842941Y-77240579D01*
X117842935Y-77240594D01*
X117783116Y-77450837D01*
X117783115Y-77450839D01*
X117762947Y-77668499D01*
X117762947Y-77668500D01*
X117783115Y-77886160D01*
X117783116Y-77886162D01*
X117842935Y-78096405D01*
X117842941Y-78096420D01*
X117940369Y-78292081D01*
X117940374Y-78292089D01*
X118072104Y-78466527D01*
X118072105Y-78466528D01*
X118233647Y-78613794D01*
X118233649Y-78613795D01*
X118233650Y-78613796D01*
X118419495Y-78728866D01*
X118419501Y-78728869D01*
X118487443Y-78755189D01*
X118623332Y-78807833D01*
X118670295Y-78816612D01*
X118732573Y-78848280D01*
X118767846Y-78908592D01*
X118764912Y-78978400D01*
X118724703Y-79035540D01*
X118670295Y-79060387D01*
X118623332Y-79069167D01*
X118623330Y-79069167D01*
X118623328Y-79069168D01*
X118419501Y-79148130D01*
X118419495Y-79148133D01*
X118233650Y-79263203D01*
X118072104Y-79410472D01*
X117940374Y-79584910D01*
X117940369Y-79584918D01*
X117842941Y-79780579D01*
X117842935Y-79780594D01*
X117783116Y-79990837D01*
X117783115Y-79990839D01*
X117762947Y-80208499D01*
X117762947Y-80208500D01*
X117783115Y-80426160D01*
X117783116Y-80426162D01*
X117842935Y-80636405D01*
X117842941Y-80636420D01*
X117940369Y-80832081D01*
X117940374Y-80832089D01*
X118072104Y-81006527D01*
X118072105Y-81006528D01*
X118233647Y-81153794D01*
X118233649Y-81153795D01*
X118233650Y-81153796D01*
X118419495Y-81268866D01*
X118419501Y-81268869D01*
X118487443Y-81295189D01*
X118623332Y-81347833D01*
X118670295Y-81356612D01*
X118732573Y-81388280D01*
X118767846Y-81448592D01*
X118764912Y-81518400D01*
X118724703Y-81575540D01*
X118670295Y-81600387D01*
X118623332Y-81609167D01*
X118623330Y-81609167D01*
X118623328Y-81609168D01*
X118419501Y-81688130D01*
X118419495Y-81688133D01*
X118233650Y-81803203D01*
X118072104Y-81950472D01*
X117940374Y-82124910D01*
X117940369Y-82124918D01*
X117842941Y-82320579D01*
X117842935Y-82320594D01*
X117783116Y-82530837D01*
X117783115Y-82530839D01*
X117762947Y-82748499D01*
X117762947Y-82748500D01*
X117783115Y-82966160D01*
X117783116Y-82966162D01*
X117842935Y-83176405D01*
X117842941Y-83176420D01*
X117940369Y-83372081D01*
X117940374Y-83372089D01*
X118072104Y-83546527D01*
X118072105Y-83546528D01*
X118233647Y-83693794D01*
X118233649Y-83693795D01*
X118233650Y-83693796D01*
X118419495Y-83808866D01*
X118419501Y-83808869D01*
X118487443Y-83835189D01*
X118623332Y-83887833D01*
X118670295Y-83896612D01*
X118732573Y-83928280D01*
X118767846Y-83988592D01*
X118764912Y-84058400D01*
X118724703Y-84115540D01*
X118670295Y-84140387D01*
X118623332Y-84149167D01*
X118623330Y-84149167D01*
X118623328Y-84149168D01*
X118419501Y-84228130D01*
X118419495Y-84228133D01*
X118233650Y-84343203D01*
X118072104Y-84490472D01*
X117940374Y-84664910D01*
X117940369Y-84664918D01*
X117842941Y-84860579D01*
X117842935Y-84860594D01*
X117783116Y-85070837D01*
X117783115Y-85070839D01*
X117762947Y-85288499D01*
X117762947Y-85288500D01*
X117783115Y-85506160D01*
X117783116Y-85506162D01*
X117842935Y-85716405D01*
X117842941Y-85716420D01*
X117940369Y-85912081D01*
X117940374Y-85912089D01*
X118072104Y-86086527D01*
X118072105Y-86086528D01*
X118233647Y-86233794D01*
X118233649Y-86233795D01*
X118233650Y-86233796D01*
X118419495Y-86348866D01*
X118419501Y-86348869D01*
X118462682Y-86365597D01*
X118623332Y-86427833D01*
X118838203Y-86468000D01*
X118838205Y-86468000D01*
X119056795Y-86468000D01*
X119056797Y-86468000D01*
X119271668Y-86427833D01*
X119475501Y-86348868D01*
X119661353Y-86233794D01*
X119822895Y-86086528D01*
X119954627Y-85912087D01*
X120052063Y-85716410D01*
X120111884Y-85506161D01*
X120132053Y-85288500D01*
X120111884Y-85070839D01*
X120052063Y-84860590D01*
X120052058Y-84860579D01*
X119954630Y-84664918D01*
X119954625Y-84664910D01*
X119822895Y-84490472D01*
X119661353Y-84343206D01*
X119661350Y-84343204D01*
X119661349Y-84343203D01*
X119475504Y-84228133D01*
X119475498Y-84228130D01*
X119314851Y-84165896D01*
X119271668Y-84149167D01*
X119224704Y-84140387D01*
X119162426Y-84108721D01*
X119127153Y-84048408D01*
X119130087Y-83978600D01*
X119170296Y-83921460D01*
X119224704Y-83896612D01*
X119271668Y-83887833D01*
X119475501Y-83808868D01*
X119661353Y-83693794D01*
X119822895Y-83546528D01*
X119954627Y-83372087D01*
X120052063Y-83176410D01*
X120111884Y-82966161D01*
X120132053Y-82748500D01*
X120111884Y-82530839D01*
X120052063Y-82320590D01*
X120052058Y-82320579D01*
X119954630Y-82124918D01*
X119954625Y-82124910D01*
X119822895Y-81950472D01*
X119808229Y-81937102D01*
X119661353Y-81803206D01*
X119661350Y-81803204D01*
X119661349Y-81803203D01*
X119475504Y-81688133D01*
X119475498Y-81688130D01*
X119314851Y-81625896D01*
X119271668Y-81609167D01*
X119224704Y-81600387D01*
X119162426Y-81568721D01*
X119127153Y-81508408D01*
X119130087Y-81438600D01*
X119170296Y-81381460D01*
X119224704Y-81356612D01*
X119271668Y-81347833D01*
X119475501Y-81268868D01*
X119661353Y-81153794D01*
X119822895Y-81006528D01*
X119954627Y-80832087D01*
X120052063Y-80636410D01*
X120111884Y-80426161D01*
X120132053Y-80208500D01*
X120131964Y-80207544D01*
X120111884Y-79990839D01*
X120111883Y-79990837D01*
X120095772Y-79934214D01*
X120052063Y-79780590D01*
X120052058Y-79780579D01*
X119954630Y-79584918D01*
X119954625Y-79584910D01*
X119822895Y-79410472D01*
X119661353Y-79263206D01*
X119661350Y-79263204D01*
X119661349Y-79263203D01*
X119475504Y-79148133D01*
X119475498Y-79148130D01*
X119314851Y-79085896D01*
X119271668Y-79069167D01*
X119224704Y-79060387D01*
X119162426Y-79028721D01*
X119127153Y-78968408D01*
X119130087Y-78898600D01*
X119170296Y-78841460D01*
X119224704Y-78816612D01*
X119271668Y-78807833D01*
X119475501Y-78728868D01*
X119661353Y-78613794D01*
X119822895Y-78466528D01*
X119954627Y-78292087D01*
X120052063Y-78096410D01*
X120111884Y-77886161D01*
X120132053Y-77668500D01*
X120111884Y-77450839D01*
X120052063Y-77240590D01*
X120052058Y-77240579D01*
X119954630Y-77044918D01*
X119954625Y-77044910D01*
X119822893Y-76870469D01*
X119717923Y-76774777D01*
X119681641Y-76715066D01*
X119683402Y-76645218D01*
X119717381Y-76595165D01*
X119715984Y-76593768D01*
X119721732Y-76588020D01*
X119833536Y-76476216D01*
X119833536Y-76476214D01*
X119843744Y-76466007D01*
X119843745Y-76466004D01*
X121232932Y-75076819D01*
X121294255Y-75043334D01*
X121320613Y-75040500D01*
X128258531Y-75040500D01*
X128325570Y-75060185D01*
X128346212Y-75076819D01*
X130602714Y-77333322D01*
X130636199Y-77394645D01*
X130638561Y-77431809D01*
X130624723Y-77589997D01*
X130624723Y-77590002D01*
X130643793Y-77807975D01*
X130643793Y-77807979D01*
X130700422Y-78019322D01*
X130700424Y-78019326D01*
X130700425Y-78019330D01*
X130736366Y-78096405D01*
X130792897Y-78217638D01*
X130808685Y-78240185D01*
X130918402Y-78396877D01*
X131073123Y-78551598D01*
X131234958Y-78664916D01*
X131278583Y-78719494D01*
X131285775Y-78788992D01*
X131254253Y-78851347D01*
X131251515Y-78854172D01*
X128392286Y-81713403D01*
X128280481Y-81825207D01*
X128280479Y-81825210D01*
X128230361Y-81912019D01*
X128230359Y-81912021D01*
X128201425Y-81962134D01*
X128201424Y-81962135D01*
X128201423Y-81962140D01*
X128160499Y-82114868D01*
X128160499Y-82114870D01*
X128160499Y-82282971D01*
X128160500Y-82282984D01*
X128160500Y-90588000D01*
X128140815Y-90655039D01*
X128088011Y-90700794D01*
X128036500Y-90712000D01*
X127210998Y-90712000D01*
X127210980Y-90712001D01*
X127108203Y-90722500D01*
X127108200Y-90722501D01*
X126941668Y-90777685D01*
X126941663Y-90777687D01*
X126792342Y-90869789D01*
X126668289Y-90993842D01*
X126576187Y-91143163D01*
X126576185Y-91143168D01*
X126565192Y-91176344D01*
X126521001Y-91309703D01*
X126521001Y-91309704D01*
X126521000Y-91309704D01*
X126510500Y-91412483D01*
X126510500Y-91518901D01*
X126490815Y-91585940D01*
X126474181Y-91606582D01*
X125961465Y-92119298D01*
X125900142Y-92152783D01*
X125887668Y-92154837D01*
X125800750Y-92164630D01*
X125630478Y-92224210D01*
X125477737Y-92320184D01*
X125350184Y-92447737D01*
X125254211Y-92600476D01*
X125194631Y-92770745D01*
X125194630Y-92770750D01*
X125174435Y-92949996D01*
X125174435Y-92950003D01*
X125194630Y-93129249D01*
X125194631Y-93129254D01*
X125254211Y-93299523D01*
X125345996Y-93445597D01*
X125350184Y-93452262D01*
X125477738Y-93579816D01*
X125630478Y-93675789D01*
X125800745Y-93735368D01*
X125800750Y-93735369D01*
X125979996Y-93755565D01*
X125980000Y-93755565D01*
X125980004Y-93755565D01*
X126159249Y-93735369D01*
X126159252Y-93735368D01*
X126159255Y-93735368D01*
X126329522Y-93675789D01*
X126482262Y-93579816D01*
X126609816Y-93452262D01*
X126705789Y-93299522D01*
X126765368Y-93129255D01*
X126775161Y-93042329D01*
X126802226Y-92977918D01*
X126810690Y-92968543D01*
X126899042Y-92880191D01*
X126960363Y-92846708D01*
X127025724Y-92850167D01*
X127108203Y-92877499D01*
X127210991Y-92888000D01*
X127574403Y-92887999D01*
X127641441Y-92907683D01*
X127687196Y-92960487D01*
X127697140Y-93029646D01*
X127668115Y-93093201D01*
X127662084Y-93099680D01*
X127586980Y-93174785D01*
X127367284Y-93394481D01*
X127255483Y-93506281D01*
X127255481Y-93506284D01*
X127176423Y-93643214D01*
X127176423Y-93643215D01*
X127135499Y-93795943D01*
X127135499Y-93795945D01*
X127135499Y-93954054D01*
X127135498Y-93954054D01*
X127135499Y-93954057D01*
X127176423Y-94106785D01*
X127255481Y-94243716D01*
X127549784Y-94538019D01*
X127686715Y-94617077D01*
X127839443Y-94658001D01*
X127839446Y-94658001D01*
X127997554Y-94658001D01*
X127997557Y-94658001D01*
X128150285Y-94617077D01*
X128287216Y-94538019D01*
X128399019Y-94426216D01*
X128478077Y-94289285D01*
X128519001Y-94136557D01*
X128519001Y-93992595D01*
X128538686Y-93925556D01*
X128555320Y-93904914D01*
X128817020Y-93643214D01*
X129119506Y-93340728D01*
X129119511Y-93340724D01*
X129129714Y-93330520D01*
X129129716Y-93330520D01*
X129241520Y-93218716D01*
X129266882Y-93174788D01*
X129293170Y-93129256D01*
X129293171Y-93129254D01*
X129320574Y-93081790D01*
X129320575Y-93081789D01*
X129320575Y-93081787D01*
X129320577Y-93081785D01*
X129361501Y-92929057D01*
X129361501Y-92770943D01*
X129361501Y-92763348D01*
X129361500Y-92763330D01*
X129361500Y-82494021D01*
X129381185Y-82426982D01*
X129397814Y-82406345D01*
X130519363Y-81284795D01*
X130580684Y-81251312D01*
X130650376Y-81256296D01*
X130706309Y-81298168D01*
X130719422Y-81320071D01*
X130733156Y-81349522D01*
X130792897Y-81477638D01*
X130792898Y-81477639D01*
X130918402Y-81656877D01*
X131073123Y-81811598D01*
X131252361Y-81937102D01*
X131450670Y-82029575D01*
X131662023Y-82086207D01*
X131844926Y-82102208D01*
X131879998Y-82105277D01*
X131880000Y-82105277D01*
X131880002Y-82105277D01*
X131908254Y-82102805D01*
X132097977Y-82086207D01*
X132309330Y-82029575D01*
X132507639Y-81937102D01*
X132686877Y-81811598D01*
X132841598Y-81656877D01*
X132949081Y-81503374D01*
X133003657Y-81459751D01*
X133050655Y-81450500D01*
X137243331Y-81450500D01*
X137243347Y-81450501D01*
X137250943Y-81450501D01*
X137409054Y-81450501D01*
X137409057Y-81450501D01*
X137561785Y-81409577D01*
X137611904Y-81380639D01*
X137698716Y-81330520D01*
X137810520Y-81218716D01*
X137810520Y-81218714D01*
X137820728Y-81208507D01*
X137820730Y-81208504D01*
X138642416Y-80386818D01*
X138703739Y-80353333D01*
X138730097Y-80350499D01*
X140077871Y-80350499D01*
X140077872Y-80350499D01*
X140137483Y-80344091D01*
X140272331Y-80293796D01*
X140387546Y-80207546D01*
X140473796Y-80092331D01*
X140524091Y-79957483D01*
X140530500Y-79897873D01*
X140530500Y-79724500D01*
X140550185Y-79657461D01*
X140602989Y-79611706D01*
X140654500Y-79600500D01*
X143428745Y-79600500D01*
X143495784Y-79620185D01*
X143541126Y-79672093D01*
X143548463Y-79687828D01*
X143548465Y-79687831D01*
X143625106Y-79797285D01*
X143684005Y-79881401D01*
X143851099Y-80048495D01*
X143913699Y-80092328D01*
X144044665Y-80184032D01*
X144044667Y-80184033D01*
X144044670Y-80184035D01*
X144258837Y-80283903D01*
X144258843Y-80283904D01*
X144258844Y-80283905D01*
X144295762Y-80293797D01*
X144487092Y-80345063D01*
X144675418Y-80361539D01*
X144722499Y-80365659D01*
X144722500Y-80365659D01*
X144722501Y-80365659D01*
X144761734Y-80362226D01*
X144957908Y-80345063D01*
X145186163Y-80283903D01*
X145400330Y-80184035D01*
X145593901Y-80048495D01*
X145760995Y-79881401D01*
X145896535Y-79687830D01*
X145996403Y-79473663D01*
X146057563Y-79245408D01*
X146078159Y-79010000D01*
X146057563Y-78774592D01*
X145996403Y-78546337D01*
X145896535Y-78332171D01*
X145868470Y-78292089D01*
X145760994Y-78138597D01*
X145732919Y-78110522D01*
X145699434Y-78049199D01*
X145704418Y-77979507D01*
X145732917Y-77935162D01*
X146641213Y-77026867D01*
X146641216Y-77026866D01*
X146753020Y-76915062D01*
X146803139Y-76828250D01*
X146832077Y-76778131D01*
X146873001Y-76625403D01*
X146873001Y-76467289D01*
X146873001Y-76459694D01*
X146873000Y-76459676D01*
X146873000Y-71402714D01*
X146873001Y-71402701D01*
X146873001Y-71234598D01*
X146871233Y-71227999D01*
X146832077Y-71081870D01*
X146819175Y-71059523D01*
X146753024Y-70944944D01*
X146753018Y-70944936D01*
X145978444Y-70170362D01*
X145944959Y-70109039D01*
X145949943Y-70039347D01*
X145966856Y-70008373D01*
X146016296Y-69942331D01*
X146066591Y-69807483D01*
X146073000Y-69747873D01*
X146072999Y-67952128D01*
X146066591Y-67892517D01*
X146016296Y-67757669D01*
X146016295Y-67757668D01*
X146016293Y-67757664D01*
X145930047Y-67642455D01*
X145930044Y-67642452D01*
X145814835Y-67556206D01*
X145814828Y-67556202D01*
X145679982Y-67505908D01*
X145679983Y-67505908D01*
X145620383Y-67499501D01*
X145620381Y-67499500D01*
X145620373Y-67499500D01*
X145620364Y-67499500D01*
X143824629Y-67499500D01*
X143824623Y-67499501D01*
X143765016Y-67505908D01*
X143630171Y-67556202D01*
X143630169Y-67556203D01*
X143564127Y-67605642D01*
X143498662Y-67630058D01*
X143430389Y-67615206D01*
X143402136Y-67594055D01*
X143126436Y-67318355D01*
X143126434Y-67318352D01*
X143007563Y-67199481D01*
X143007562Y-67199480D01*
X142920750Y-67149360D01*
X142920750Y-67149359D01*
X142920746Y-67149358D01*
X142870631Y-67120423D01*
X142717903Y-67079499D01*
X142559789Y-67079499D01*
X142552193Y-67079499D01*
X142552177Y-67079500D01*
X138106669Y-67079500D01*
X138106653Y-67079499D01*
X138099057Y-67079499D01*
X137940943Y-67079499D01*
X137933347Y-67079499D01*
X137933331Y-67079500D01*
X133110655Y-67079500D01*
X133043616Y-67059815D01*
X133009080Y-67026623D01*
X132901599Y-66873124D01*
X132901596Y-66873121D01*
X132746877Y-66718402D01*
X132567639Y-66592898D01*
X132567640Y-66592898D01*
X132567638Y-66592897D01*
X132468484Y-66546661D01*
X132369330Y-66500425D01*
X132369326Y-66500424D01*
X132369322Y-66500422D01*
X132157977Y-66443793D01*
X131940002Y-66424723D01*
X131939998Y-66424723D01*
X131794682Y-66437436D01*
X131722023Y-66443793D01*
X131722020Y-66443793D01*
X131510677Y-66500422D01*
X131510668Y-66500426D01*
X131312361Y-66592898D01*
X131312357Y-66592900D01*
X131133121Y-66718402D01*
X130978402Y-66873121D01*
X130852900Y-67052357D01*
X130852898Y-67052361D01*
X130760426Y-67250668D01*
X130760422Y-67250677D01*
X130703793Y-67462020D01*
X130703793Y-67462024D01*
X130684723Y-67679997D01*
X130684723Y-67680002D01*
X130703792Y-67897970D01*
X130703795Y-67897984D01*
X130720976Y-67962108D01*
X130719313Y-68031958D01*
X130688882Y-68081881D01*
X129817584Y-68953181D01*
X129756261Y-68986666D01*
X129729903Y-68989500D01*
X127663585Y-68989500D01*
X127596546Y-68969815D01*
X127550791Y-68917011D01*
X127545879Y-68904504D01*
X127544063Y-68899023D01*
X127509814Y-68795666D01*
X127417712Y-68646344D01*
X127293656Y-68522288D01*
X127149282Y-68433238D01*
X127144336Y-68430187D01*
X127144331Y-68430185D01*
X127142862Y-68429698D01*
X126977797Y-68375001D01*
X126977795Y-68375000D01*
X126875010Y-68364500D01*
X126099998Y-68364500D01*
X126099980Y-68364501D01*
X125997203Y-68375000D01*
X125997200Y-68375001D01*
X125830666Y-68430186D01*
X125824122Y-68433238D01*
X125823279Y-68431431D01*
X125765520Y-68447223D01*
X125698861Y-68426287D01*
X125680161Y-68410926D01*
X125472590Y-68203355D01*
X125472588Y-68203352D01*
X125353717Y-68084481D01*
X125353716Y-68084480D01*
X125266904Y-68034360D01*
X125266904Y-68034359D01*
X125266900Y-68034358D01*
X125216785Y-68005423D01*
X125064057Y-67964499D01*
X124905943Y-67964499D01*
X124898347Y-67964499D01*
X124898331Y-67964500D01*
X105277669Y-67964500D01*
X105277653Y-67964499D01*
X105270057Y-67964499D01*
X105111943Y-67964499D01*
X105004587Y-67993265D01*
X104959210Y-68005424D01*
X104959209Y-68005425D01*
X104909096Y-68034359D01*
X104909095Y-68034360D01*
X104865689Y-68059420D01*
X104822285Y-68084479D01*
X104822282Y-68084481D01*
X104710478Y-68196286D01*
X104074082Y-68832681D01*
X104012759Y-68866166D01*
X103986401Y-68869000D01*
X102980629Y-68869000D01*
X102980623Y-68869001D01*
X102921016Y-68875408D01*
X102786171Y-68925702D01*
X102786164Y-68925706D01*
X102670955Y-69011952D01*
X102670952Y-69011955D01*
X102584706Y-69127164D01*
X102584702Y-69127171D01*
X102534408Y-69262017D01*
X102528001Y-69321616D01*
X102528000Y-69321635D01*
X102528000Y-70775370D01*
X102528001Y-70775376D01*
X102534408Y-70834983D01*
X102584702Y-70969828D01*
X102584706Y-70969835D01*
X102670952Y-71085044D01*
X102670955Y-71085047D01*
X102786164Y-71171293D01*
X102786171Y-71171297D01*
X102921017Y-71221591D01*
X102921016Y-71221591D01*
X102927944Y-71222335D01*
X102980627Y-71228000D01*
X103290889Y-71227999D01*
X103357926Y-71247683D01*
X103403681Y-71300487D01*
X103413625Y-71369646D01*
X103384600Y-71433201D01*
X103335681Y-71467625D01*
X103179510Y-71528126D01*
X103179495Y-71528133D01*
X102993650Y-71643203D01*
X102832104Y-71790472D01*
X102700374Y-71964910D01*
X102700369Y-71964918D01*
X102602941Y-72160579D01*
X102602935Y-72160594D01*
X102543116Y-72370837D01*
X102543115Y-72370839D01*
X102522947Y-72588499D01*
X100485500Y-72588499D01*
X100485500Y-65080351D01*
X100505185Y-65013312D01*
X100557989Y-64967557D01*
X100609667Y-64956351D01*
X147045936Y-65019649D01*
G37*
%TD.AperFunction*%
%TD*%
D11*
%TO.P,J1,1,Pin_1*%
%TO.N,GND*%
X139180000Y-79000000D03*
D12*
%TO.P,J1,2,Pin_2*%
%TO.N,/Y_OUT*%
X139180000Y-76460000D03*
%TO.P,J1,3,Pin_3*%
%TO.N,/X_OUT*%
X139180000Y-73920000D03*
%TO.P,J1,4,Pin_4*%
%TO.N,/3.3V*%
X139180000Y-71380000D03*
%TO.P,J1,5,Pin_5*%
%TO.N,/PWR*%
X139180000Y-68840000D03*
%TD*%
D14*
%TO.P,U2,1,D0*%
%TO.N,/X_OUT*%
X103707500Y-70048500D03*
D15*
%TO.P,U2,2,D1*%
%TO.N,/Y_OUT*%
X103707500Y-72588500D03*
%TO.P,U2,3,D2*%
%TO.N,unconnected-(U2-D2-Pad3)*%
X103707500Y-75128500D03*
%TO.P,U2,4,D3*%
%TO.N,unconnected-(U2-D3-Pad4)*%
X103707500Y-77668500D03*
%TO.P,U2,5,D4*%
%TO.N,unconnected-(U2-D4-Pad5)*%
X103707500Y-80208500D03*
%TO.P,U2,6,D5*%
%TO.N,unconnected-(U2-D5-Pad6)*%
X103707500Y-82748500D03*
%TO.P,U2,7,TX_D6*%
%TO.N,unconnected-(U2-TX_D6-Pad7)*%
X103707500Y-85288500D03*
%TO.P,U2,8,RX_D7*%
%TO.N,unconnected-(U2-RX_D7-Pad8)*%
X118947500Y-85288500D03*
%TO.P,U2,9,D8*%
%TO.N,unconnected-(U2-D8-Pad9)*%
X118947500Y-82748500D03*
%TO.P,U2,10,D9*%
%TO.N,unconnected-(U2-D9-Pad10)*%
X118947500Y-80208500D03*
%TO.P,U2,11,D10*%
%TO.N,unconnected-(U2-D10-Pad11)*%
X118947500Y-77668500D03*
%TO.P,U2,12,VCC_3V3*%
%TO.N,/3.3V*%
X118947500Y-75128500D03*
%TO.P,U2,13,GND*%
%TO.N,GND*%
X118947500Y-72588500D03*
%TO.P,U2,14,VUSB*%
%TO.N,unconnected-(U2-VUSB-Pad14)*%
X118947500Y-70048500D03*
%TD*%
D11*
%TO.P,J2,1,Pin_1*%
%TO.N,/PWR*%
X144722500Y-68850000D03*
D12*
%TO.P,J2,2,Pin_2*%
%TO.N,/3.3V*%
X144722500Y-71390000D03*
%TO.P,J2,3,Pin_3*%
%TO.N,/X_OUT*%
X144722500Y-73930000D03*
%TO.P,J2,4,Pin_4*%
%TO.N,/Y_OUT*%
X144722500Y-76470000D03*
%TO.P,J2,5,Pin_5*%
%TO.N,GND*%
X144722500Y-79010000D03*
%TD*%
D22*
%TO.P,JOYSTICK,X*%
%TO.N,/X_OUT*%
X120260000Y-97770000D03*
%TO.P,JOYSTICK,X+*%
%TO.N,/3.3V*%
X120260000Y-99770000D03*
%TO.P,JOYSTICK,X-*%
%TO.N,GND*%
X120260000Y-95770000D03*
D23*
%TO.P,JOYSTICK,Y*%
%TO.N,/Y_OUT*%
X111260000Y-106770000D03*
%TO.P,JOYSTICK,Y+*%
%TO.N,/3.3V*%
X113260000Y-106770000D03*
%TO.P,JOYSTICK,Y-*%
%TO.N,GND*%
X109260000Y-106770000D03*
%TD*%
D24*
%TO.N,GND*%
X134860000Y-93370000D03*
X125980000Y-92950000D03*
X132864023Y-96719122D03*
%TO.N,/3.3V*%
X141470000Y-79750000D03*
X141450000Y-75840000D03*
%TO.N,/X_OUT*%
X106760000Y-70710000D03*
X115050000Y-81000000D03*
%TD*%
D25*
%TO.N,GND*%
X134860000Y-94710000D02*
X132850878Y-96719122D01*
X132850878Y-96719122D02*
X132864023Y-96719122D01*
X134860000Y-93370000D02*
X134860000Y-94710000D01*
X125980000Y-92950000D02*
X125980000Y-93520000D01*
X125980000Y-93520000D02*
X125280000Y-94220000D01*
%TO.N,/3.3V*%
X141450000Y-79730000D02*
X141470000Y-79750000D01*
X141450000Y-75840000D02*
X141450000Y-79730000D01*
%TO.N,/X_OUT*%
X115050000Y-81000000D02*
X106760000Y-72710000D01*
X106760000Y-72710000D02*
X106760000Y-70710000D01*
%TD*%
%TA.AperFunction,Conductor*%
%TO.N,GND*%
G36*
X147045936Y-65019649D02*
G01*
X147112949Y-65039425D01*
X147158631Y-65092291D01*
X147169767Y-65143596D01*
X147189230Y-110473938D01*
X147169574Y-110540986D01*
X147116790Y-110586763D01*
X147064931Y-110597991D01*
X100609201Y-110486003D01*
X100542209Y-110466157D01*
X100496582Y-110413242D01*
X100485500Y-110362003D01*
X100485500Y-105921577D01*
X110009500Y-105921577D01*
X110009500Y-107618422D01*
X110040290Y-107812826D01*
X110101117Y-108000029D01*
X110190476Y-108175405D01*
X110306172Y-108334646D01*
X110445354Y-108473828D01*
X110604595Y-108589524D01*
X110687455Y-108631743D01*
X110779970Y-108678882D01*
X110779972Y-108678882D01*
X110779975Y-108678884D01*
X110880317Y-108711487D01*
X110967173Y-108739709D01*
X111161578Y-108770500D01*
X111161583Y-108770500D01*
X111358422Y-108770500D01*
X111552826Y-108739709D01*
X111740025Y-108678884D01*
X111915405Y-108589524D01*
X112074646Y-108473828D01*
X112172319Y-108376155D01*
X112233642Y-108342670D01*
X112303334Y-108347654D01*
X112347681Y-108376155D01*
X112445354Y-108473828D01*
X112604595Y-108589524D01*
X112687455Y-108631743D01*
X112779970Y-108678882D01*
X112779972Y-108678882D01*
X112779975Y-108678884D01*
X112880317Y-108711487D01*
X112967173Y-108739709D01*
X113161578Y-108770500D01*
X113161583Y-108770500D01*
X113358422Y-108770500D01*
X113552826Y-108739709D01*
X113740025Y-108678884D01*
X113915405Y-108589524D01*
X114074646Y-108473828D01*
X114213828Y-108334646D01*
X114329524Y-108175405D01*
X114418884Y-108000025D01*
X114479709Y-107812826D01*
X114510500Y-107618422D01*
X114510500Y-105921577D01*
X114479709Y-105727173D01*
X114418882Y-105539970D01*
X114329523Y-105364594D01*
X114213828Y-105205354D01*
X114074646Y-105066172D01*
X113915405Y-104950476D01*
X113740029Y-104861117D01*
X113552826Y-104800290D01*
X113358422Y-104769500D01*
X113358417Y-104769500D01*
X113161583Y-104769500D01*
X113161578Y-104769500D01*
X112967173Y-104800290D01*
X112779970Y-104861117D01*
X112604594Y-104950476D01*
X112513741Y-105016485D01*
X112445354Y-105066172D01*
X112445352Y-105066174D01*
X112445351Y-105066174D01*
X112347681Y-105163845D01*
X112286358Y-105197330D01*
X112216666Y-105192346D01*
X112172319Y-105163845D01*
X112074648Y-105066174D01*
X112074646Y-105066172D01*
X111915405Y-104950476D01*
X111740029Y-104861117D01*
X111552826Y-104800290D01*
X111358422Y-104769500D01*
X111358417Y-104769500D01*
X111161583Y-104769500D01*
X111161578Y-104769500D01*
X110967173Y-104800290D01*
X110779970Y-104861117D01*
X110604594Y-104950476D01*
X110513741Y-105016485D01*
X110445354Y-105066172D01*
X110445352Y-105066174D01*
X110445351Y-105066174D01*
X110306174Y-105205351D01*
X110306174Y-105205352D01*
X110306172Y-105205354D01*
X110260001Y-105268903D01*
X110190476Y-105364594D01*
X110101117Y-105539970D01*
X110040290Y-105727173D01*
X110009500Y-105921577D01*
X100485500Y-105921577D01*
X100485500Y-103666530D01*
X104209500Y-103666530D01*
X104209500Y-103873469D01*
X104249868Y-104076412D01*
X104249870Y-104076420D01*
X104329058Y-104267596D01*
X104444024Y-104439657D01*
X104590342Y-104585975D01*
X104590345Y-104585977D01*
X104762402Y-104700941D01*
X104953580Y-104780130D01*
X105156530Y-104820499D01*
X105156534Y-104820500D01*
X105156535Y-104820500D01*
X105363466Y-104820500D01*
X105363467Y-104820499D01*
X105566420Y-104780130D01*
X105757598Y-104700941D01*
X105929655Y-104585977D01*
X106075977Y-104439655D01*
X106190941Y-104267598D01*
X106270130Y-104076420D01*
X106310500Y-103873465D01*
X106310500Y-103666535D01*
X106270130Y-103463580D01*
X106190941Y-103272402D01*
X106075977Y-103100345D01*
X106075975Y-103100342D01*
X105929657Y-102954024D01*
X105843626Y-102896541D01*
X105757598Y-102839059D01*
X105566420Y-102759870D01*
X105566412Y-102759868D01*
X105363469Y-102719500D01*
X105363465Y-102719500D01*
X105156535Y-102719500D01*
X105156530Y-102719500D01*
X104953587Y-102759868D01*
X104953579Y-102759870D01*
X104762403Y-102839058D01*
X104590342Y-102954024D01*
X104444024Y-103100342D01*
X104329058Y-103272403D01*
X104249870Y-103463579D01*
X104249868Y-103463587D01*
X104209500Y-103666530D01*
X100485500Y-103666530D01*
X100485500Y-97671577D01*
X118259500Y-97671577D01*
X118259500Y-97868422D01*
X118290290Y-98062826D01*
X118351117Y-98250029D01*
X118440476Y-98425405D01*
X118556172Y-98584646D01*
X118556174Y-98584648D01*
X118653845Y-98682319D01*
X118687330Y-98743642D01*
X118682346Y-98813334D01*
X118653845Y-98857681D01*
X118556174Y-98955351D01*
X118556174Y-98955352D01*
X118556172Y-98955354D01*
X118506485Y-99023741D01*
X118440476Y-99114594D01*
X118351117Y-99289970D01*
X118290290Y-99477173D01*
X118259500Y-99671577D01*
X118259500Y-99868422D01*
X118290290Y-100062826D01*
X118351117Y-100250029D01*
X118440476Y-100425405D01*
X118556172Y-100584646D01*
X118695354Y-100723828D01*
X118854595Y-100839524D01*
X118937455Y-100881743D01*
X119029970Y-100928882D01*
X119029972Y-100928882D01*
X119029975Y-100928884D01*
X119130317Y-100961487D01*
X119217173Y-100989709D01*
X119411578Y-101020500D01*
X119411583Y-101020500D01*
X121108422Y-101020500D01*
X121302826Y-100989709D01*
X121490025Y-100928884D01*
X121665405Y-100839524D01*
X121824646Y-100723828D01*
X121963828Y-100584646D01*
X122079524Y-100425405D01*
X122168884Y-100250025D01*
X122229709Y-100062826D01*
X122260500Y-99868422D01*
X122260500Y-99671577D01*
X122229709Y-99477173D01*
X122168882Y-99289970D01*
X122079523Y-99114594D01*
X121963828Y-98955354D01*
X121866155Y-98857681D01*
X121832670Y-98796358D01*
X121837654Y-98726666D01*
X121866155Y-98682319D01*
X121963828Y-98584646D01*
X122079524Y-98425405D01*
X122168884Y-98250025D01*
X122229709Y-98062826D01*
X122260500Y-97868422D01*
X122260500Y-97671577D01*
X122229709Y-97477173D01*
X122168882Y-97289970D01*
X122079523Y-97114594D01*
X121963828Y-96955354D01*
X121824646Y-96816172D01*
X121665405Y-96700476D01*
X121490029Y-96611117D01*
X121302826Y-96550290D01*
X121108422Y-96519500D01*
X121108417Y-96519500D01*
X119411583Y-96519500D01*
X119411578Y-96519500D01*
X119217173Y-96550290D01*
X119029970Y-96611117D01*
X118854594Y-96700476D01*
X118763741Y-96766485D01*
X118695354Y-96816172D01*
X118695352Y-96816174D01*
X118695351Y-96816174D01*
X118556174Y-96955351D01*
X118556174Y-96955352D01*
X118556172Y-96955354D01*
X118506485Y-97023741D01*
X118440476Y-97114594D01*
X118351117Y-97289970D01*
X118290290Y-97477173D01*
X118259500Y-97671577D01*
X100485500Y-97671577D01*
X100485500Y-91666530D01*
X116209500Y-91666530D01*
X116209500Y-91873469D01*
X116249868Y-92076412D01*
X116249870Y-92076420D01*
X116329058Y-92267596D01*
X116444024Y-92439657D01*
X116590342Y-92585975D01*
X116590345Y-92585977D01*
X116762402Y-92700941D01*
X116953580Y-92780130D01*
X117156530Y-92820499D01*
X117156534Y-92820500D01*
X117156535Y-92820500D01*
X117363466Y-92820500D01*
X117363467Y-92820499D01*
X117566420Y-92780130D01*
X117757598Y-92700941D01*
X117929655Y-92585977D01*
X118075977Y-92439655D01*
X118190941Y-92267598D01*
X118270130Y-92076420D01*
X118310500Y-91873465D01*
X118310500Y-91666535D01*
X118270130Y-91463580D01*
X118190941Y-91272402D01*
X118075977Y-91100345D01*
X118075975Y-91100342D01*
X117929657Y-90954024D01*
X117843626Y-90896541D01*
X117757598Y-90839059D01*
X117566420Y-90759870D01*
X117566412Y-90759868D01*
X117363469Y-90719500D01*
X117363465Y-90719500D01*
X117156535Y-90719500D01*
X117156530Y-90719500D01*
X116953587Y-90759868D01*
X116953579Y-90759870D01*
X116762403Y-90839058D01*
X116590342Y-90954024D01*
X116444024Y-91100342D01*
X116329058Y-91272403D01*
X116249870Y-91463579D01*
X116249868Y-91463587D01*
X116209500Y-91666530D01*
X100485500Y-91666530D01*
X100485500Y-72588499D01*
X102522947Y-72588499D01*
X102522947Y-72588500D01*
X102543115Y-72806160D01*
X102543116Y-72806162D01*
X102602935Y-73016405D01*
X102602941Y-73016420D01*
X102700369Y-73212081D01*
X102700374Y-73212089D01*
X102730643Y-73252171D01*
X102832105Y-73386528D01*
X102993647Y-73533794D01*
X102993649Y-73533795D01*
X102993650Y-73533796D01*
X103179495Y-73648866D01*
X103179501Y-73648869D01*
X103247443Y-73675189D01*
X103383332Y-73727833D01*
X103430295Y-73736612D01*
X103492573Y-73768280D01*
X103527846Y-73828592D01*
X103524912Y-73898400D01*
X103484703Y-73955540D01*
X103430295Y-73980387D01*
X103383332Y-73989167D01*
X103383330Y-73989167D01*
X103383328Y-73989168D01*
X103179501Y-74068130D01*
X103179495Y-74068133D01*
X102993650Y-74183203D01*
X102832104Y-74330472D01*
X102700374Y-74504910D01*
X102700369Y-74504918D01*
X102602941Y-74700579D01*
X102602935Y-74700594D01*
X102543116Y-74910837D01*
X102543115Y-74910839D01*
X102522947Y-75128499D01*
X102522947Y-75128500D01*
X102543115Y-75346160D01*
X102543116Y-75346162D01*
X102602935Y-75556405D01*
X102602941Y-75556420D01*
X102700369Y-75752081D01*
X102700374Y-75752089D01*
X102821622Y-75912646D01*
X102832105Y-75926528D01*
X102993647Y-76073794D01*
X102993649Y-76073795D01*
X102993650Y-76073796D01*
X103179495Y-76188866D01*
X103179501Y-76188869D01*
X103202111Y-76197628D01*
X103383332Y-76267833D01*
X103430295Y-76276612D01*
X103492573Y-76308280D01*
X103527846Y-76368592D01*
X103524912Y-76438400D01*
X103484703Y-76495540D01*
X103430295Y-76520387D01*
X103383332Y-76529167D01*
X103383330Y-76529167D01*
X103383328Y-76529168D01*
X103179501Y-76608130D01*
X103179495Y-76608133D01*
X102993650Y-76723203D01*
X102832104Y-76870472D01*
X102700374Y-77044910D01*
X102700369Y-77044918D01*
X102602941Y-77240579D01*
X102602935Y-77240594D01*
X102543116Y-77450837D01*
X102543115Y-77450839D01*
X102522947Y-77668499D01*
X102522947Y-77668500D01*
X102543115Y-77886160D01*
X102543116Y-77886162D01*
X102602935Y-78096405D01*
X102602941Y-78096420D01*
X102700369Y-78292081D01*
X102700374Y-78292089D01*
X102832104Y-78466527D01*
X102832105Y-78466528D01*
X102993647Y-78613794D01*
X102993649Y-78613795D01*
X102993650Y-78613796D01*
X103179495Y-78728866D01*
X103179501Y-78728869D01*
X103247443Y-78755189D01*
X103383332Y-78807833D01*
X103430295Y-78816612D01*
X103492573Y-78848280D01*
X103527846Y-78908592D01*
X103524912Y-78978400D01*
X103484703Y-79035540D01*
X103430295Y-79060387D01*
X103383332Y-79069167D01*
X103383330Y-79069167D01*
X103383328Y-79069168D01*
X103179501Y-79148130D01*
X103179495Y-79148133D01*
X102993650Y-79263203D01*
X102832104Y-79410472D01*
X102700374Y-79584910D01*
X102700369Y-79584918D01*
X102602941Y-79780579D01*
X102602935Y-79780594D01*
X102543116Y-79990837D01*
X102543115Y-79990839D01*
X102522947Y-80208499D01*
X102522947Y-80208500D01*
X102543115Y-80426160D01*
X102543116Y-80426162D01*
X102602935Y-80636405D01*
X102602941Y-80636420D01*
X102700369Y-80832081D01*
X102700374Y-80832089D01*
X102832104Y-81006527D01*
X102832105Y-81006528D01*
X102993647Y-81153794D01*
X102993649Y-81153795D01*
X102993650Y-81153796D01*
X103179495Y-81268866D01*
X103179501Y-81268869D01*
X103247443Y-81295189D01*
X103383332Y-81347833D01*
X103430295Y-81356612D01*
X103492573Y-81388280D01*
X103527846Y-81448592D01*
X103524912Y-81518400D01*
X103484703Y-81575540D01*
X103430295Y-81600387D01*
X103383332Y-81609167D01*
X103383330Y-81609167D01*
X103383328Y-81609168D01*
X103179501Y-81688130D01*
X103179495Y-81688133D01*
X102993650Y-81803203D01*
X102832104Y-81950472D01*
X102700374Y-82124910D01*
X102700369Y-82124918D01*
X102602941Y-82320579D01*
X102602935Y-82320594D01*
X102543116Y-82530837D01*
X102543115Y-82530839D01*
X102522947Y-82748499D01*
X102522947Y-82748500D01*
X102543115Y-82966160D01*
X102543116Y-82966162D01*
X102602935Y-83176405D01*
X102602941Y-83176420D01*
X102700369Y-83372081D01*
X102700374Y-83372089D01*
X102832104Y-83546527D01*
X102832105Y-83546528D01*
X102993647Y-83693794D01*
X102993649Y-83693795D01*
X102993650Y-83693796D01*
X103179495Y-83808866D01*
X103179501Y-83808869D01*
X103247443Y-83835189D01*
X103383332Y-83887833D01*
X103430295Y-83896612D01*
X103492573Y-83928280D01*
X103527846Y-83988592D01*
X103524912Y-84058400D01*
X103484703Y-84115540D01*
X103430295Y-84140387D01*
X103383332Y-84149167D01*
X103383330Y-84149167D01*
X103383328Y-84149168D01*
X103179501Y-84228130D01*
X103179495Y-84228133D01*
X102993650Y-84343203D01*
X102832104Y-84490472D01*
X102700374Y-84664910D01*
X102700369Y-84664918D01*
X102602941Y-84860579D01*
X102602935Y-84860594D01*
X102543116Y-85070837D01*
X102543115Y-85070839D01*
X102522947Y-85288499D01*
X102522947Y-85288500D01*
X102543115Y-85506160D01*
X102543116Y-85506162D01*
X102602935Y-85716405D01*
X102602941Y-85716420D01*
X102700369Y-85912081D01*
X102700374Y-85912089D01*
X102832104Y-86086527D01*
X102832105Y-86086528D01*
X102993647Y-86233794D01*
X102993649Y-86233795D01*
X102993650Y-86233796D01*
X103179495Y-86348866D01*
X103179501Y-86348869D01*
X103222682Y-86365597D01*
X103383332Y-86427833D01*
X103598203Y-86468000D01*
X103598205Y-86468000D01*
X103816795Y-86468000D01*
X103816797Y-86468000D01*
X104031668Y-86427833D01*
X104235501Y-86348868D01*
X104421353Y-86233794D01*
X104582895Y-86086528D01*
X104714627Y-85912087D01*
X104812063Y-85716410D01*
X104871884Y-85506161D01*
X104892053Y-85288500D01*
X104871884Y-85070839D01*
X104812063Y-84860590D01*
X104812058Y-84860579D01*
X104714630Y-84664918D01*
X104714625Y-84664910D01*
X104582895Y-84490472D01*
X104421353Y-84343206D01*
X104421350Y-84343204D01*
X104421349Y-84343203D01*
X104235504Y-84228133D01*
X104235498Y-84228130D01*
X104074851Y-84165896D01*
X104031668Y-84149167D01*
X103984704Y-84140387D01*
X103922426Y-84108721D01*
X103887153Y-84048408D01*
X103890087Y-83978600D01*
X103930296Y-83921460D01*
X103984704Y-83896612D01*
X104031668Y-83887833D01*
X104235501Y-83808868D01*
X104421353Y-83693794D01*
X104582895Y-83546528D01*
X104714627Y-83372087D01*
X104812063Y-83176410D01*
X104871884Y-82966161D01*
X104892053Y-82748500D01*
X104871884Y-82530839D01*
X104812063Y-82320590D01*
X104812058Y-82320579D01*
X104714630Y-82124918D01*
X104714625Y-82124910D01*
X104582895Y-81950472D01*
X104421353Y-81803206D01*
X104421350Y-81803204D01*
X104421349Y-81803203D01*
X104235504Y-81688133D01*
X104235498Y-81688130D01*
X104074851Y-81625896D01*
X104031668Y-81609167D01*
X103984704Y-81600387D01*
X103922426Y-81568721D01*
X103887153Y-81508408D01*
X103890087Y-81438600D01*
X103930296Y-81381460D01*
X103984704Y-81356612D01*
X104031668Y-81347833D01*
X104235501Y-81268868D01*
X104421353Y-81153794D01*
X104582895Y-81006528D01*
X104714627Y-80832087D01*
X104812063Y-80636410D01*
X104871884Y-80426161D01*
X104892053Y-80208500D01*
X104889205Y-80177770D01*
X104871884Y-79990839D01*
X104871883Y-79990837D01*
X104854361Y-79929255D01*
X104812063Y-79780590D01*
X104812058Y-79780579D01*
X104714630Y-79584918D01*
X104714625Y-79584910D01*
X104582895Y-79410472D01*
X104571930Y-79400476D01*
X104421353Y-79263206D01*
X104421350Y-79263204D01*
X104421349Y-79263203D01*
X104235504Y-79148133D01*
X104235498Y-79148130D01*
X104074851Y-79085896D01*
X104031668Y-79069167D01*
X103984704Y-79060387D01*
X103922426Y-79028721D01*
X103887153Y-78968408D01*
X103890087Y-78898600D01*
X103930296Y-78841460D01*
X103984704Y-78816612D01*
X104031668Y-78807833D01*
X104235501Y-78728868D01*
X104421353Y-78613794D01*
X104582895Y-78466528D01*
X104714627Y-78292087D01*
X104812063Y-78096410D01*
X104871884Y-77886161D01*
X104892053Y-77668500D01*
X104871884Y-77450839D01*
X104812063Y-77240590D01*
X104765874Y-77147830D01*
X104714630Y-77044918D01*
X104714625Y-77044910D01*
X104582895Y-76870472D01*
X104421353Y-76723206D01*
X104421350Y-76723204D01*
X104421349Y-76723203D01*
X104235504Y-76608133D01*
X104235498Y-76608130D01*
X104074851Y-76545896D01*
X104031668Y-76529167D01*
X103984704Y-76520387D01*
X103922426Y-76488721D01*
X103887153Y-76428408D01*
X103890087Y-76358600D01*
X103930296Y-76301460D01*
X103984704Y-76276612D01*
X104031668Y-76267833D01*
X104235501Y-76188868D01*
X104421353Y-76073794D01*
X104582895Y-75926528D01*
X104714627Y-75752087D01*
X104812063Y-75556410D01*
X104871884Y-75346161D01*
X104892053Y-75128500D01*
X104890815Y-75115145D01*
X104871884Y-74910839D01*
X104871883Y-74910837D01*
X104812064Y-74700594D01*
X104812063Y-74700590D01*
X104765874Y-74607830D01*
X104714630Y-74504918D01*
X104714625Y-74504910D01*
X104582895Y-74330472D01*
X104421353Y-74183206D01*
X104421350Y-74183204D01*
X104421349Y-74183203D01*
X104235504Y-74068133D01*
X104235498Y-74068130D01*
X104074851Y-74005896D01*
X104031668Y-73989167D01*
X103984704Y-73980387D01*
X103922426Y-73948721D01*
X103887153Y-73888408D01*
X103890087Y-73818600D01*
X103930296Y-73761460D01*
X103984704Y-73736612D01*
X104031668Y-73727833D01*
X104235501Y-73648868D01*
X104421353Y-73533794D01*
X104582895Y-73386528D01*
X104714627Y-73212087D01*
X104812063Y-73016410D01*
X104871884Y-72806161D01*
X104892053Y-72588500D01*
X104890815Y-72575145D01*
X104871884Y-72370839D01*
X104871883Y-72370837D01*
X104812064Y-72160594D01*
X104812063Y-72160590D01*
X104765874Y-72067830D01*
X104714630Y-71964918D01*
X104714625Y-71964910D01*
X104582895Y-71790472D01*
X104421353Y-71643206D01*
X104421350Y-71643204D01*
X104421349Y-71643203D01*
X104235504Y-71528133D01*
X104235498Y-71528130D01*
X104079316Y-71467626D01*
X104023915Y-71425053D01*
X104000324Y-71359286D01*
X104016035Y-71291206D01*
X104066059Y-71242427D01*
X104124109Y-71227999D01*
X104434372Y-71227999D01*
X104493983Y-71221591D01*
X104628831Y-71171296D01*
X104744046Y-71085046D01*
X104830296Y-70969831D01*
X104880591Y-70834983D01*
X104887000Y-70775373D01*
X104887000Y-70709996D01*
X105954435Y-70709996D01*
X105954435Y-70710003D01*
X105974630Y-70889249D01*
X105974631Y-70889254D01*
X106034211Y-71059523D01*
X106093950Y-71154596D01*
X106104441Y-71171293D01*
X106130185Y-71212263D01*
X106132445Y-71215097D01*
X106133334Y-71217275D01*
X106133889Y-71218158D01*
X106133734Y-71218255D01*
X106158855Y-71279783D01*
X106159500Y-71292412D01*
X106159500Y-72623330D01*
X106159499Y-72623348D01*
X106159499Y-72789054D01*
X106159498Y-72789054D01*
X106200423Y-72941785D01*
X106215529Y-72967949D01*
X106215528Y-72967949D01*
X106215529Y-72967950D01*
X106279475Y-73078709D01*
X106279481Y-73078717D01*
X106398349Y-73197585D01*
X106398355Y-73197590D01*
X114219298Y-81018533D01*
X114252783Y-81079856D01*
X114254837Y-81092330D01*
X114264630Y-81179249D01*
X114324210Y-81349521D01*
X114328665Y-81356611D01*
X114420184Y-81502262D01*
X114547738Y-81629816D01*
X114700478Y-81725789D01*
X114870745Y-81785368D01*
X114870750Y-81785369D01*
X115049996Y-81805565D01*
X115050000Y-81805565D01*
X115050004Y-81805565D01*
X115229249Y-81785369D01*
X115229252Y-81785368D01*
X115229255Y-81785368D01*
X115399522Y-81725789D01*
X115552262Y-81629816D01*
X115679816Y-81502262D01*
X115775789Y-81349522D01*
X115835368Y-81179255D01*
X115845162Y-81092330D01*
X115855565Y-81000003D01*
X115855565Y-80999996D01*
X115835369Y-80820750D01*
X115835368Y-80820745D01*
X115775788Y-80650476D01*
X115703461Y-80535369D01*
X115679816Y-80497738D01*
X115552262Y-80370184D01*
X115399521Y-80274210D01*
X115229249Y-80214630D01*
X115142330Y-80204837D01*
X115077916Y-80177770D01*
X115068533Y-80169298D01*
X110027734Y-75128499D01*
X117762947Y-75128499D01*
X117762947Y-75128500D01*
X117783115Y-75346160D01*
X117783116Y-75346162D01*
X117842935Y-75556405D01*
X117842941Y-75556420D01*
X117940369Y-75752081D01*
X117940374Y-75752089D01*
X118061622Y-75912646D01*
X118072105Y-75926528D01*
X118233647Y-76073794D01*
X118233649Y-76073795D01*
X118233650Y-76073796D01*
X118419495Y-76188866D01*
X118419501Y-76188869D01*
X118442111Y-76197628D01*
X118623332Y-76267833D01*
X118670295Y-76276612D01*
X118732573Y-76308280D01*
X118767846Y-76368592D01*
X118764912Y-76438400D01*
X118724703Y-76495540D01*
X118670295Y-76520387D01*
X118623332Y-76529167D01*
X118623330Y-76529167D01*
X118623328Y-76529168D01*
X118419501Y-76608130D01*
X118419495Y-76608133D01*
X118233650Y-76723203D01*
X118072104Y-76870472D01*
X117940374Y-77044910D01*
X117940369Y-77044918D01*
X117842941Y-77240579D01*
X117842935Y-77240594D01*
X117783116Y-77450837D01*
X117783115Y-77450839D01*
X117762947Y-77668499D01*
X117762947Y-77668500D01*
X117783115Y-77886160D01*
X117783116Y-77886162D01*
X117842935Y-78096405D01*
X117842941Y-78096420D01*
X117940369Y-78292081D01*
X117940374Y-78292089D01*
X118072104Y-78466527D01*
X118072105Y-78466528D01*
X118233647Y-78613794D01*
X118233649Y-78613795D01*
X118233650Y-78613796D01*
X118419495Y-78728866D01*
X118419501Y-78728869D01*
X118487443Y-78755189D01*
X118623332Y-78807833D01*
X118670295Y-78816612D01*
X118732573Y-78848280D01*
X118767846Y-78908592D01*
X118764912Y-78978400D01*
X118724703Y-79035540D01*
X118670295Y-79060387D01*
X118623332Y-79069167D01*
X118623330Y-79069167D01*
X118623328Y-79069168D01*
X118419501Y-79148130D01*
X118419495Y-79148133D01*
X118233650Y-79263203D01*
X118072104Y-79410472D01*
X117940374Y-79584910D01*
X117940369Y-79584918D01*
X117842941Y-79780579D01*
X117842935Y-79780594D01*
X117783116Y-79990837D01*
X117783115Y-79990839D01*
X117762947Y-80208499D01*
X117762947Y-80208500D01*
X117783115Y-80426160D01*
X117783116Y-80426162D01*
X117842935Y-80636405D01*
X117842941Y-80636420D01*
X117940369Y-80832081D01*
X117940374Y-80832089D01*
X118072104Y-81006527D01*
X118072105Y-81006528D01*
X118233647Y-81153794D01*
X118233649Y-81153795D01*
X118233650Y-81153796D01*
X118419495Y-81268866D01*
X118419501Y-81268869D01*
X118487443Y-81295189D01*
X118623332Y-81347833D01*
X118670295Y-81356612D01*
X118732573Y-81388280D01*
X118767846Y-81448592D01*
X118764912Y-81518400D01*
X118724703Y-81575540D01*
X118670295Y-81600387D01*
X118623332Y-81609167D01*
X118623330Y-81609167D01*
X118623328Y-81609168D01*
X118419501Y-81688130D01*
X118419495Y-81688133D01*
X118233650Y-81803203D01*
X118072104Y-81950472D01*
X117940374Y-82124910D01*
X117940369Y-82124918D01*
X117842941Y-82320579D01*
X117842935Y-82320594D01*
X117783116Y-82530837D01*
X117783115Y-82530839D01*
X117762947Y-82748499D01*
X117762947Y-82748500D01*
X117783115Y-82966160D01*
X117783116Y-82966162D01*
X117842935Y-83176405D01*
X117842941Y-83176420D01*
X117940369Y-83372081D01*
X117940374Y-83372089D01*
X118072104Y-83546527D01*
X118072105Y-83546528D01*
X118233647Y-83693794D01*
X118233649Y-83693795D01*
X118233650Y-83693796D01*
X118419495Y-83808866D01*
X118419501Y-83808869D01*
X118487443Y-83835189D01*
X118623332Y-83887833D01*
X118670295Y-83896612D01*
X118732573Y-83928280D01*
X118767846Y-83988592D01*
X118764912Y-84058400D01*
X118724703Y-84115540D01*
X118670295Y-84140387D01*
X118623332Y-84149167D01*
X118623330Y-84149167D01*
X118623328Y-84149168D01*
X118419501Y-84228130D01*
X118419495Y-84228133D01*
X118233650Y-84343203D01*
X118072104Y-84490472D01*
X117940374Y-84664910D01*
X117940369Y-84664918D01*
X117842941Y-84860579D01*
X117842935Y-84860594D01*
X117783116Y-85070837D01*
X117783115Y-85070839D01*
X117762947Y-85288499D01*
X117762947Y-85288500D01*
X117783115Y-85506160D01*
X117783116Y-85506162D01*
X117842935Y-85716405D01*
X117842941Y-85716420D01*
X117940369Y-85912081D01*
X117940374Y-85912089D01*
X118072104Y-86086527D01*
X118072105Y-86086528D01*
X118233647Y-86233794D01*
X118233649Y-86233795D01*
X118233650Y-86233796D01*
X118419495Y-86348866D01*
X118419501Y-86348869D01*
X118462682Y-86365597D01*
X118623332Y-86427833D01*
X118838203Y-86468000D01*
X118838205Y-86468000D01*
X119056795Y-86468000D01*
X119056797Y-86468000D01*
X119271668Y-86427833D01*
X119475501Y-86348868D01*
X119661353Y-86233794D01*
X119822895Y-86086528D01*
X119954627Y-85912087D01*
X120052063Y-85716410D01*
X120111884Y-85506161D01*
X120132053Y-85288500D01*
X120111884Y-85070839D01*
X120052063Y-84860590D01*
X120052058Y-84860579D01*
X119954630Y-84664918D01*
X119954625Y-84664910D01*
X119822895Y-84490472D01*
X119661353Y-84343206D01*
X119661350Y-84343204D01*
X119661349Y-84343203D01*
X119475504Y-84228133D01*
X119475498Y-84228130D01*
X119314851Y-84165896D01*
X119271668Y-84149167D01*
X119224704Y-84140387D01*
X119162426Y-84108721D01*
X119127153Y-84048408D01*
X119130087Y-83978600D01*
X119170296Y-83921460D01*
X119224704Y-83896612D01*
X119271668Y-83887833D01*
X119475501Y-83808868D01*
X119661353Y-83693794D01*
X119822895Y-83546528D01*
X119954627Y-83372087D01*
X120052063Y-83176410D01*
X120111884Y-82966161D01*
X120132053Y-82748500D01*
X120111884Y-82530839D01*
X120052063Y-82320590D01*
X120052058Y-82320579D01*
X119954630Y-82124918D01*
X119954625Y-82124910D01*
X119822895Y-81950472D01*
X119661353Y-81803206D01*
X119661350Y-81803204D01*
X119661349Y-81803203D01*
X119475504Y-81688133D01*
X119475498Y-81688130D01*
X119314851Y-81625896D01*
X119271668Y-81609167D01*
X119224704Y-81600387D01*
X119162426Y-81568721D01*
X119127153Y-81508408D01*
X119130087Y-81438600D01*
X119170296Y-81381460D01*
X119224704Y-81356612D01*
X119271668Y-81347833D01*
X119475501Y-81268868D01*
X119661353Y-81153794D01*
X119822895Y-81006528D01*
X119954627Y-80832087D01*
X120052063Y-80636410D01*
X120111884Y-80426161D01*
X120132053Y-80208500D01*
X120129205Y-80177770D01*
X120111884Y-79990839D01*
X120111883Y-79990837D01*
X120094361Y-79929255D01*
X120052063Y-79780590D01*
X120052058Y-79780579D01*
X119954630Y-79584918D01*
X119954625Y-79584910D01*
X119822895Y-79410472D01*
X119811930Y-79400476D01*
X119661353Y-79263206D01*
X119661350Y-79263204D01*
X119661349Y-79263203D01*
X119475504Y-79148133D01*
X119475498Y-79148130D01*
X119314851Y-79085896D01*
X119271668Y-79069167D01*
X119224704Y-79060387D01*
X119162426Y-79028721D01*
X119127153Y-78968408D01*
X119130087Y-78898600D01*
X119170296Y-78841460D01*
X119224704Y-78816612D01*
X119271668Y-78807833D01*
X119475501Y-78728868D01*
X119661353Y-78613794D01*
X119822895Y-78466528D01*
X119954627Y-78292087D01*
X120052063Y-78096410D01*
X120111884Y-77886161D01*
X120132053Y-77668500D01*
X120111884Y-77450839D01*
X120052063Y-77240590D01*
X120005874Y-77147830D01*
X119954630Y-77044918D01*
X119954625Y-77044910D01*
X119822895Y-76870472D01*
X119661353Y-76723206D01*
X119661350Y-76723204D01*
X119661349Y-76723203D01*
X119475504Y-76608133D01*
X119475498Y-76608130D01*
X119314851Y-76545896D01*
X119271668Y-76529167D01*
X119224704Y-76520387D01*
X119162426Y-76488721D01*
X119127153Y-76428408D01*
X119130087Y-76358600D01*
X119170296Y-76301460D01*
X119224704Y-76276612D01*
X119271668Y-76267833D01*
X119475501Y-76188868D01*
X119661353Y-76073794D01*
X119822895Y-75926528D01*
X119954627Y-75752087D01*
X120052063Y-75556410D01*
X120111884Y-75346161D01*
X120132053Y-75128500D01*
X120130815Y-75115145D01*
X120111884Y-74910839D01*
X120111883Y-74910837D01*
X120052064Y-74700594D01*
X120052063Y-74700590D01*
X120005874Y-74607830D01*
X119954630Y-74504918D01*
X119954625Y-74504910D01*
X119822895Y-74330472D01*
X119661353Y-74183206D01*
X119661350Y-74183204D01*
X119661349Y-74183203D01*
X119475504Y-74068133D01*
X119475498Y-74068130D01*
X119314851Y-74005896D01*
X119271668Y-73989167D01*
X119056797Y-73949000D01*
X118838203Y-73949000D01*
X118623332Y-73989167D01*
X118623329Y-73989167D01*
X118623329Y-73989168D01*
X118419501Y-74068130D01*
X118419495Y-74068133D01*
X118233650Y-74183203D01*
X118072104Y-74330472D01*
X117940374Y-74504910D01*
X117940369Y-74504918D01*
X117842941Y-74700579D01*
X117842935Y-74700594D01*
X117783116Y-74910837D01*
X117783115Y-74910839D01*
X117762947Y-75128499D01*
X110027734Y-75128499D01*
X107396819Y-72497584D01*
X107363334Y-72436261D01*
X107360500Y-72409903D01*
X107360500Y-71292412D01*
X107380185Y-71225373D01*
X107387555Y-71215097D01*
X107389810Y-71212267D01*
X107389816Y-71212262D01*
X107485789Y-71059522D01*
X107545368Y-70889255D01*
X107550182Y-70846528D01*
X107565565Y-70710003D01*
X107565565Y-70709996D01*
X107545369Y-70530750D01*
X107545368Y-70530745D01*
X107526354Y-70476405D01*
X107485789Y-70360478D01*
X107473867Y-70341505D01*
X107392227Y-70211575D01*
X107389816Y-70207738D01*
X107262262Y-70080184D01*
X107234917Y-70063002D01*
X107211836Y-70048499D01*
X117762947Y-70048499D01*
X117762947Y-70048500D01*
X117783115Y-70266160D01*
X117783116Y-70266162D01*
X117842935Y-70476405D01*
X117842941Y-70476420D01*
X117940369Y-70672081D01*
X117940374Y-70672089D01*
X118072104Y-70846527D01*
X118072105Y-70846528D01*
X118233647Y-70993794D01*
X118233649Y-70993795D01*
X118233650Y-70993796D01*
X118419495Y-71108866D01*
X118419501Y-71108869D01*
X118462682Y-71125597D01*
X118623332Y-71187833D01*
X118838203Y-71228000D01*
X118838205Y-71228000D01*
X119056795Y-71228000D01*
X119056797Y-71228000D01*
X119271668Y-71187833D01*
X119475501Y-71108868D01*
X119661353Y-70993794D01*
X119822895Y-70846528D01*
X119954627Y-70672087D01*
X120052063Y-70476410D01*
X120111884Y-70266161D01*
X120132053Y-70048500D01*
X120122215Y-69942335D01*
X120111884Y-69830839D01*
X120111883Y-69830837D01*
X120105238Y-69807483D01*
X120052063Y-69620590D01*
X120052058Y-69620579D01*
X119954630Y-69424918D01*
X119954625Y-69424910D01*
X119822895Y-69250472D01*
X119687641Y-69127171D01*
X119661353Y-69103206D01*
X119661350Y-69103204D01*
X119661349Y-69103203D01*
X119475504Y-68988133D01*
X119475498Y-68988130D01*
X119314350Y-68925702D01*
X119271668Y-68909167D01*
X119056797Y-68869000D01*
X118838203Y-68869000D01*
X118623332Y-68909167D01*
X118623329Y-68909167D01*
X118623329Y-68909168D01*
X118419501Y-68988130D01*
X118419495Y-68988133D01*
X118233650Y-69103203D01*
X118072104Y-69250472D01*
X117940374Y-69424910D01*
X117940369Y-69424918D01*
X117842941Y-69620579D01*
X117842935Y-69620594D01*
X117783116Y-69830837D01*
X117783115Y-69830839D01*
X117762947Y-70048499D01*
X107211836Y-70048499D01*
X107109523Y-69984211D01*
X106939254Y-69924631D01*
X106939249Y-69924630D01*
X106760004Y-69904435D01*
X106759996Y-69904435D01*
X106580750Y-69924630D01*
X106580745Y-69924631D01*
X106410476Y-69984211D01*
X106257737Y-70080184D01*
X106130184Y-70207737D01*
X106034211Y-70360476D01*
X105974631Y-70530745D01*
X105974630Y-70530750D01*
X105954435Y-70709996D01*
X104887000Y-70709996D01*
X104886999Y-69321628D01*
X104880591Y-69262017D01*
X104830296Y-69127169D01*
X104830295Y-69127168D01*
X104830293Y-69127164D01*
X104744047Y-69011955D01*
X104744044Y-69011952D01*
X104628835Y-68925706D01*
X104628828Y-68925702D01*
X104493982Y-68875408D01*
X104493983Y-68875408D01*
X104434383Y-68869001D01*
X104434381Y-68869000D01*
X104434373Y-68869000D01*
X104434364Y-68869000D01*
X102980629Y-68869000D01*
X102980623Y-68869001D01*
X102921016Y-68875408D01*
X102786171Y-68925702D01*
X102786164Y-68925706D01*
X102670955Y-69011952D01*
X102670952Y-69011955D01*
X102584706Y-69127164D01*
X102584702Y-69127171D01*
X102534408Y-69262017D01*
X102529932Y-69303655D01*
X102528001Y-69321623D01*
X102528000Y-69321635D01*
X102528000Y-70775370D01*
X102528001Y-70775376D01*
X102534408Y-70834983D01*
X102584702Y-70969828D01*
X102584706Y-70969835D01*
X102670952Y-71085044D01*
X102670955Y-71085047D01*
X102786164Y-71171293D01*
X102786171Y-71171297D01*
X102921017Y-71221591D01*
X102921016Y-71221591D01*
X102927944Y-71222335D01*
X102980627Y-71228000D01*
X103290889Y-71227999D01*
X103357926Y-71247683D01*
X103403681Y-71300487D01*
X103413625Y-71369646D01*
X103384600Y-71433201D01*
X103335681Y-71467625D01*
X103179510Y-71528126D01*
X103179495Y-71528133D01*
X102993650Y-71643203D01*
X102832104Y-71790472D01*
X102700374Y-71964910D01*
X102700369Y-71964918D01*
X102602941Y-72160579D01*
X102602935Y-72160594D01*
X102543116Y-72370837D01*
X102543115Y-72370839D01*
X102522947Y-72588499D01*
X100485500Y-72588499D01*
X100485500Y-68839999D01*
X137824341Y-68839999D01*
X137824341Y-68840000D01*
X137844936Y-69075403D01*
X137844938Y-69075413D01*
X137906094Y-69303655D01*
X137906096Y-69303659D01*
X137906097Y-69303663D01*
X138005965Y-69517830D01*
X138005967Y-69517834D01*
X138141501Y-69711395D01*
X138141506Y-69711402D01*
X138308597Y-69878493D01*
X138308603Y-69878498D01*
X138494158Y-70008425D01*
X138537783Y-70063002D01*
X138544977Y-70132500D01*
X138513454Y-70194855D01*
X138494158Y-70211575D01*
X138308597Y-70341505D01*
X138141505Y-70508597D01*
X138005965Y-70702169D01*
X138005964Y-70702171D01*
X137906098Y-70916335D01*
X137906094Y-70916344D01*
X137844938Y-71144586D01*
X137844936Y-71144596D01*
X137824341Y-71379999D01*
X137824341Y-71380000D01*
X137844936Y-71615403D01*
X137844938Y-71615413D01*
X137906094Y-71843655D01*
X137906096Y-71843659D01*
X137906097Y-71843663D01*
X138005965Y-72057830D01*
X138005967Y-72057834D01*
X138141501Y-72251395D01*
X138141506Y-72251402D01*
X138308597Y-72418493D01*
X138308603Y-72418498D01*
X138494158Y-72548425D01*
X138537783Y-72603002D01*
X138544977Y-72672500D01*
X138513454Y-72734855D01*
X138494158Y-72751575D01*
X138308597Y-72881505D01*
X138141505Y-73048597D01*
X138005965Y-73242169D01*
X138005964Y-73242171D01*
X137906098Y-73456335D01*
X137906094Y-73456344D01*
X137844938Y-73684586D01*
X137844936Y-73684596D01*
X137824341Y-73919999D01*
X137824341Y-73920000D01*
X137844936Y-74155403D01*
X137844938Y-74155413D01*
X137906094Y-74383655D01*
X137906096Y-74383659D01*
X137906097Y-74383663D01*
X138005965Y-74597830D01*
X138005967Y-74597834D01*
X138141501Y-74791395D01*
X138141506Y-74791402D01*
X138308597Y-74958493D01*
X138308603Y-74958498D01*
X138494158Y-75088425D01*
X138537783Y-75143002D01*
X138544977Y-75212500D01*
X138513454Y-75274855D01*
X138494158Y-75291575D01*
X138308597Y-75421505D01*
X138141505Y-75588597D01*
X138005965Y-75782169D01*
X138005964Y-75782171D01*
X137906098Y-75996335D01*
X137906094Y-75996344D01*
X137844938Y-76224586D01*
X137844936Y-76224596D01*
X137824341Y-76459999D01*
X137824341Y-76460000D01*
X137844936Y-76695403D01*
X137844938Y-76695413D01*
X137906094Y-76923655D01*
X137906096Y-76923659D01*
X137906097Y-76923663D01*
X138005965Y-77137830D01*
X138005967Y-77137834D01*
X138077918Y-77240590D01*
X138141505Y-77331401D01*
X138308599Y-77498495D01*
X138322885Y-77508498D01*
X138502165Y-77634032D01*
X138502167Y-77634033D01*
X138502170Y-77634035D01*
X138716337Y-77733903D01*
X138944592Y-77795063D01*
X139132918Y-77811539D01*
X139179999Y-77815659D01*
X139180000Y-77815659D01*
X139180001Y-77815659D01*
X139219234Y-77812226D01*
X139415408Y-77795063D01*
X139643663Y-77733903D01*
X139857830Y-77634035D01*
X140051401Y-77498495D01*
X140218495Y-77331401D01*
X140354035Y-77137830D01*
X140453903Y-76923663D01*
X140515063Y-76695408D01*
X140535659Y-76460000D01*
X140522436Y-76308868D01*
X140536202Y-76240370D01*
X140584817Y-76190187D01*
X140652846Y-76174253D01*
X140718690Y-76197628D01*
X140750958Y-76232090D01*
X140752530Y-76234592D01*
X140799202Y-76308870D01*
X140820185Y-76342263D01*
X140822445Y-76345097D01*
X140823334Y-76347275D01*
X140823889Y-76348158D01*
X140823734Y-76348255D01*
X140848855Y-76409783D01*
X140849500Y-76422412D01*
X140849500Y-79197187D01*
X140830494Y-79263159D01*
X140744211Y-79400476D01*
X140684631Y-79570745D01*
X140684630Y-79570750D01*
X140664435Y-79749996D01*
X140664435Y-79750003D01*
X140684630Y-79929249D01*
X140684631Y-79929254D01*
X140744211Y-80099523D01*
X140807333Y-80199980D01*
X140840184Y-80252262D01*
X140967738Y-80379816D01*
X141120478Y-80475789D01*
X141183202Y-80497737D01*
X141290745Y-80535368D01*
X141290750Y-80535369D01*
X141469996Y-80555565D01*
X141470000Y-80555565D01*
X141470004Y-80555565D01*
X141649249Y-80535369D01*
X141649252Y-80535368D01*
X141649255Y-80535368D01*
X141819522Y-80475789D01*
X141972262Y-80379816D01*
X142099816Y-80252262D01*
X142195789Y-80099522D01*
X142255368Y-79929255D01*
X142272118Y-79780594D01*
X142275565Y-79750003D01*
X142275565Y-79749996D01*
X142255369Y-79570750D01*
X142255368Y-79570745D01*
X142195788Y-79400476D01*
X142109533Y-79263203D01*
X142099816Y-79247738D01*
X142086819Y-79234741D01*
X142053334Y-79173418D01*
X142050500Y-79147060D01*
X142050500Y-76422412D01*
X142070185Y-76355373D01*
X142077555Y-76345097D01*
X142079810Y-76342267D01*
X142079816Y-76342262D01*
X142175789Y-76189522D01*
X142235368Y-76019255D01*
X142236823Y-76006344D01*
X142255565Y-75840003D01*
X142255565Y-75839996D01*
X142235369Y-75660750D01*
X142235368Y-75660745D01*
X142198863Y-75556420D01*
X142175789Y-75490478D01*
X142079816Y-75337738D01*
X141952262Y-75210184D01*
X141936054Y-75200000D01*
X141799523Y-75114211D01*
X141629254Y-75054631D01*
X141629249Y-75054630D01*
X141450004Y-75034435D01*
X141449996Y-75034435D01*
X141270750Y-75054630D01*
X141270745Y-75054631D01*
X141100476Y-75114211D01*
X140947737Y-75210184D01*
X140820184Y-75337737D01*
X140724211Y-75490476D01*
X140664631Y-75660745D01*
X140664630Y-75660750D01*
X140644435Y-75839996D01*
X140644435Y-75845607D01*
X140624750Y-75912646D01*
X140571946Y-75958401D01*
X140502788Y-75968345D01*
X140439232Y-75939320D01*
X140408053Y-75898012D01*
X140354035Y-75782171D01*
X140354034Y-75782169D01*
X140218494Y-75588597D01*
X140051402Y-75421506D01*
X140051396Y-75421501D01*
X139865842Y-75291575D01*
X139822217Y-75236998D01*
X139815023Y-75167500D01*
X139846546Y-75105145D01*
X139865842Y-75088425D01*
X139914106Y-75054630D01*
X140051401Y-74958495D01*
X140218495Y-74791401D01*
X140354035Y-74597830D01*
X140453903Y-74383663D01*
X140515063Y-74155408D01*
X140535659Y-73920000D01*
X140515063Y-73684592D01*
X140456584Y-73466344D01*
X140453905Y-73456344D01*
X140453904Y-73456343D01*
X140453903Y-73456337D01*
X140354035Y-73242171D01*
X140332972Y-73212089D01*
X140218494Y-73048597D01*
X140051402Y-72881506D01*
X140051396Y-72881501D01*
X139865842Y-72751575D01*
X139822217Y-72696998D01*
X139815023Y-72627500D01*
X139846546Y-72565145D01*
X139865842Y-72548425D01*
X139990319Y-72461265D01*
X140051401Y-72418495D01*
X140218495Y-72251401D01*
X140354035Y-72057830D01*
X140453903Y-71843663D01*
X140515063Y-71615408D01*
X140534784Y-71389999D01*
X143366841Y-71389999D01*
X143366841Y-71390000D01*
X143387436Y-71625403D01*
X143387438Y-71625413D01*
X143448594Y-71853655D01*
X143448596Y-71853659D01*
X143448597Y-71853663D01*
X143500474Y-71964913D01*
X143548465Y-72067830D01*
X143548467Y-72067834D01*
X143684001Y-72261395D01*
X143684006Y-72261402D01*
X143851097Y-72428493D01*
X143851103Y-72428498D01*
X144036658Y-72558425D01*
X144080283Y-72613002D01*
X144087477Y-72682500D01*
X144055954Y-72744855D01*
X144036658Y-72761575D01*
X143851097Y-72891505D01*
X143684005Y-73058597D01*
X143548465Y-73252169D01*
X143548464Y-73252171D01*
X143448598Y-73466335D01*
X143448594Y-73466344D01*
X143387438Y-73694586D01*
X143387436Y-73694596D01*
X143366841Y-73929999D01*
X143366841Y-73930000D01*
X143387436Y-74165403D01*
X143387438Y-74165413D01*
X143448594Y-74393655D01*
X143448596Y-74393659D01*
X143448597Y-74393663D01*
X143500474Y-74504913D01*
X143548465Y-74607830D01*
X143548467Y-74607834D01*
X143684001Y-74801395D01*
X143684006Y-74801402D01*
X143851097Y-74968493D01*
X143851103Y-74968498D01*
X144036658Y-75098425D01*
X144080283Y-75153002D01*
X144087477Y-75222500D01*
X144055954Y-75284855D01*
X144036658Y-75301575D01*
X143851097Y-75431505D01*
X143684005Y-75598597D01*
X143548465Y-75792169D01*
X143548464Y-75792171D01*
X143448598Y-76006335D01*
X143448594Y-76006344D01*
X143387438Y-76234586D01*
X143387436Y-76234596D01*
X143366841Y-76469999D01*
X143366841Y-76470000D01*
X143387436Y-76705403D01*
X143387438Y-76705413D01*
X143448594Y-76933655D01*
X143448596Y-76933659D01*
X143448597Y-76933663D01*
X143500474Y-77044913D01*
X143548465Y-77147830D01*
X143548467Y-77147834D01*
X143613416Y-77240590D01*
X143684005Y-77341401D01*
X143851099Y-77508495D01*
X143947884Y-77576265D01*
X144044665Y-77644032D01*
X144044667Y-77644033D01*
X144044670Y-77644035D01*
X144258837Y-77743903D01*
X144487092Y-77805063D01*
X144675418Y-77821539D01*
X144722499Y-77825659D01*
X144722500Y-77825659D01*
X144722501Y-77825659D01*
X144761734Y-77822226D01*
X144957908Y-77805063D01*
X145186163Y-77743903D01*
X145400330Y-77644035D01*
X145593901Y-77508495D01*
X145760995Y-77341401D01*
X145896535Y-77147830D01*
X145996403Y-76933663D01*
X146057563Y-76705408D01*
X146078159Y-76470000D01*
X146057563Y-76234592D01*
X145996403Y-76006337D01*
X145896535Y-75792171D01*
X145868470Y-75752089D01*
X145760994Y-75598597D01*
X145593902Y-75431506D01*
X145593896Y-75431501D01*
X145408342Y-75301575D01*
X145364717Y-75246998D01*
X145357523Y-75177500D01*
X145389046Y-75115145D01*
X145408342Y-75098425D01*
X145470886Y-75054631D01*
X145593901Y-74968495D01*
X145760995Y-74801401D01*
X145896535Y-74607830D01*
X145996403Y-74393663D01*
X146057563Y-74165408D01*
X146078159Y-73930000D01*
X146057563Y-73694592D01*
X145996403Y-73466337D01*
X145896535Y-73252171D01*
X145868470Y-73212089D01*
X145760994Y-73058597D01*
X145593902Y-72891506D01*
X145593896Y-72891501D01*
X145408342Y-72761575D01*
X145364717Y-72706998D01*
X145357523Y-72637500D01*
X145389046Y-72575145D01*
X145408342Y-72558425D01*
X145430526Y-72542891D01*
X145593901Y-72428495D01*
X145760995Y-72261401D01*
X145896535Y-72067830D01*
X145996403Y-71853663D01*
X146057563Y-71625408D01*
X146078159Y-71390000D01*
X146057563Y-71154592D01*
X145996403Y-70926337D01*
X145896535Y-70712171D01*
X145868469Y-70672089D01*
X145760996Y-70518600D01*
X145718801Y-70476405D01*
X145639067Y-70396671D01*
X145605584Y-70335351D01*
X145610568Y-70265659D01*
X145652439Y-70209725D01*
X145683415Y-70192810D01*
X145814831Y-70143796D01*
X145930046Y-70057546D01*
X146016296Y-69942331D01*
X146066591Y-69807483D01*
X146073000Y-69747873D01*
X146072999Y-67952128D01*
X146066591Y-67892517D01*
X146032644Y-67801501D01*
X146016297Y-67757671D01*
X146016293Y-67757664D01*
X145930047Y-67642455D01*
X145930044Y-67642452D01*
X145814835Y-67556206D01*
X145814828Y-67556202D01*
X145679982Y-67505908D01*
X145679983Y-67505908D01*
X145620383Y-67499501D01*
X145620381Y-67499500D01*
X145620373Y-67499500D01*
X145620364Y-67499500D01*
X143824629Y-67499500D01*
X143824623Y-67499501D01*
X143765016Y-67505908D01*
X143630171Y-67556202D01*
X143630164Y-67556206D01*
X143514955Y-67642452D01*
X143514952Y-67642455D01*
X143428706Y-67757664D01*
X143428702Y-67757671D01*
X143378408Y-67892517D01*
X143372001Y-67952116D01*
X143372001Y-67952123D01*
X143372000Y-67952135D01*
X143372000Y-69747870D01*
X143372001Y-69747876D01*
X143378408Y-69807483D01*
X143428702Y-69942328D01*
X143428706Y-69942335D01*
X143514952Y-70057544D01*
X143514955Y-70057547D01*
X143630164Y-70143793D01*
X143630171Y-70143797D01*
X143761581Y-70192810D01*
X143817515Y-70234681D01*
X143841932Y-70300145D01*
X143827080Y-70368418D01*
X143805930Y-70396673D01*
X143684003Y-70518600D01*
X143548465Y-70712169D01*
X143548464Y-70712171D01*
X143448598Y-70926335D01*
X143448594Y-70926344D01*
X143387438Y-71154586D01*
X143387436Y-71154596D01*
X143366841Y-71389999D01*
X140534784Y-71389999D01*
X140535659Y-71380000D01*
X140515063Y-71144592D01*
X140468238Y-70969835D01*
X140453905Y-70916344D01*
X140453904Y-70916343D01*
X140453903Y-70916337D01*
X140354035Y-70702171D01*
X140332972Y-70672089D01*
X140218494Y-70508597D01*
X140051402Y-70341506D01*
X140051396Y-70341501D01*
X139865842Y-70211575D01*
X139822217Y-70156998D01*
X139815023Y-70087500D01*
X139846546Y-70025145D01*
X139865842Y-70008425D01*
X139960238Y-69942328D01*
X140051401Y-69878495D01*
X140218495Y-69711401D01*
X140354035Y-69517830D01*
X140453903Y-69303663D01*
X140515063Y-69075408D01*
X140535659Y-68840000D01*
X140515063Y-68604592D01*
X140453903Y-68376337D01*
X140354035Y-68162171D01*
X140218495Y-67968599D01*
X140218494Y-67968597D01*
X140051402Y-67801506D01*
X140051395Y-67801501D01*
X139857834Y-67665967D01*
X139857830Y-67665965D01*
X139807413Y-67642455D01*
X139643663Y-67566097D01*
X139643659Y-67566096D01*
X139643655Y-67566094D01*
X139415413Y-67504938D01*
X139415403Y-67504936D01*
X139180001Y-67484341D01*
X139179999Y-67484341D01*
X138944596Y-67504936D01*
X138944586Y-67504938D01*
X138716344Y-67566094D01*
X138716335Y-67566098D01*
X138502171Y-67665964D01*
X138502169Y-67665965D01*
X138308597Y-67801505D01*
X138141505Y-67968597D01*
X138005965Y-68162169D01*
X138005964Y-68162171D01*
X137906098Y-68376335D01*
X137906094Y-68376344D01*
X137844938Y-68604586D01*
X137844936Y-68604596D01*
X137824341Y-68839999D01*
X100485500Y-68839999D01*
X100485500Y-65080351D01*
X100505185Y-65013312D01*
X100557989Y-64967557D01*
X100609667Y-64956351D01*
X147045936Y-65019649D01*
G37*
%TD.AperFunction*%
%TD*%
D26*
%TO.C,J1*%
X139180000Y-79000000D03*
D27*
X139180000Y-76460000D03*
X139180000Y-73920000D03*
X139180000Y-71380000D03*
X139180000Y-68840000D03*
%TD*%
D28*
%TO.C,U2*%
X103707500Y-70048500D03*
D29*
X103707500Y-72588500D03*
X103707500Y-75128500D03*
X103707500Y-77668500D03*
X103707500Y-80208500D03*
X103707500Y-82748500D03*
X103707500Y-85288500D03*
X118947500Y-85288500D03*
X118947500Y-82748500D03*
X118947500Y-80208500D03*
X118947500Y-77668500D03*
X118947500Y-75128500D03*
X118947500Y-72588500D03*
X118947500Y-70048500D03*
%TD*%
D26*
%TO.C,J2*%
X144722500Y-68850000D03*
D27*
X144722500Y-71390000D03*
X144722500Y-73930000D03*
X144722500Y-76470000D03*
X144722500Y-79010000D03*
%TD*%
D30*
%TO.C,JOYSTICK*%
X105260000Y-103770000D03*
X117260000Y-91770000D03*
D31*
X120260000Y-97770000D03*
X120260000Y-99770000D03*
X120260000Y-95770000D03*
D32*
X111260000Y-106770000D03*
X113260000Y-106770000D03*
X109260000Y-106770000D03*
%TD*%
D33*
%TO.C,TP3*%
X131880000Y-80850000D03*
%TD*%
D26*
%TO.C,J1*%
X139180000Y-79000000D03*
D27*
X139180000Y-76460000D03*
X139180000Y-73920000D03*
X139180000Y-71380000D03*
X139180000Y-68840000D03*
%TD*%
D33*
%TO.C,TP2*%
X131880000Y-70850000D03*
%TD*%
%TO.C,TP5*%
X131880000Y-77590000D03*
%TD*%
%TO.C,TP4*%
X131880000Y-74190000D03*
%TD*%
D34*
%TO.C,C4*%
X126487500Y-69590000D03*
X124412500Y-69590000D03*
%TD*%
D33*
%TO.C,TP1*%
X131940000Y-67680000D03*
%TD*%
D28*
%TO.C,U2*%
X103707500Y-70048500D03*
D29*
X103707500Y-72588500D03*
X103707500Y-75128500D03*
X103707500Y-77668500D03*
X103707500Y-80208500D03*
X103707500Y-82748500D03*
X103707500Y-85288500D03*
X118947500Y-85288500D03*
X118947500Y-82748500D03*
X118947500Y-80208500D03*
X118947500Y-77668500D03*
X118947500Y-75128500D03*
X118947500Y-72588500D03*
X118947500Y-70048500D03*
%TD*%
D35*
%TO.C,BATTERY*%
X142776000Y-101862500D03*
X142776000Y-103112500D03*
D36*
X140026000Y-99312500D03*
X140026000Y-105662500D03*
%TD*%
D37*
%TO.C,C3*%
X137266000Y-94057500D03*
X137266000Y-91982500D03*
%TD*%
%TO.C,C2*%
X127736000Y-93875000D03*
X127736000Y-91800000D03*
%TD*%
%TO.C,C1*%
X143366000Y-94105000D03*
X143366000Y-92030000D03*
%TD*%
D38*
%TO.C,U1*%
X134045000Y-97625000D03*
X131765000Y-97625000D03*
D39*
X131765000Y-103925000D03*
D38*
X129485000Y-97625000D03*
%TD*%
D26*
%TO.C,J2*%
X144722500Y-68850000D03*
D27*
X144722500Y-71390000D03*
X144722500Y-73930000D03*
X144722500Y-76470000D03*
X144722500Y-79010000D03*
%TD*%
D30*
%TO.C,JOYSTICK*%
X105260000Y-103770000D03*
X117260000Y-91770000D03*
D31*
X120260000Y-97770000D03*
X120260000Y-99770000D03*
X120260000Y-95770000D03*
D32*
X111260000Y-106770000D03*
X113260000Y-106770000D03*
X109260000Y-106770000D03*
%TD*%
D40*
X133866265Y-68302419D02*
X133866265Y-67302419D01*
X133866265Y-67302419D02*
X134171027Y-67302419D01*
X134171027Y-67302419D02*
X134247217Y-67350038D01*
X134247217Y-67350038D02*
X134285312Y-67397657D01*
X134285312Y-67397657D02*
X134323408Y-67492895D01*
X134323408Y-67492895D02*
X134323408Y-67635752D01*
X134323408Y-67635752D02*
X134285312Y-67730990D01*
X134285312Y-67730990D02*
X134247217Y-67778609D01*
X134247217Y-67778609D02*
X134171027Y-67826228D01*
X134171027Y-67826228D02*
X133866265Y-67826228D01*
X134590074Y-67302419D02*
X134780550Y-68302419D01*
X134780550Y-68302419D02*
X134932931Y-67588133D01*
X134932931Y-67588133D02*
X135085312Y-68302419D01*
X135085312Y-68302419D02*
X135275789Y-67302419D01*
X136037694Y-68302419D02*
X135771027Y-67826228D01*
X135580551Y-68302419D02*
X135580551Y-67302419D01*
X135580551Y-67302419D02*
X135885313Y-67302419D01*
X135885313Y-67302419D02*
X135961503Y-67350038D01*
X135961503Y-67350038D02*
X135999598Y-67397657D01*
X135999598Y-67397657D02*
X136037694Y-67492895D01*
X136037694Y-67492895D02*
X136037694Y-67635752D01*
X136037694Y-67635752D02*
X135999598Y-67730990D01*
X135999598Y-67730990D02*
X135961503Y-67778609D01*
X135961503Y-67778609D02*
X135885313Y-67826228D01*
X135885313Y-67826228D02*
X135580551Y-67826228D01*
X131222419Y-95879925D02*
X131222419Y-95384687D01*
X131222419Y-95384687D02*
X131603371Y-95651353D01*
X131603371Y-95651353D02*
X131603371Y-95537068D01*
X131603371Y-95537068D02*
X131650990Y-95460877D01*
X131650990Y-95460877D02*
X131698609Y-95422782D01*
X131698609Y-95422782D02*
X131793847Y-95384687D01*
X131793847Y-95384687D02*
X132031942Y-95384687D01*
X132031942Y-95384687D02*
X132127180Y-95422782D01*
X132127180Y-95422782D02*
X132174800Y-95460877D01*
X132174800Y-95460877D02*
X132222419Y-95537068D01*
X132222419Y-95537068D02*
X132222419Y-95765639D01*
X132222419Y-95765639D02*
X132174800Y-95841830D01*
X132174800Y-95841830D02*
X132127180Y-95879925D01*
X131222419Y-95156115D02*
X132222419Y-94889448D01*
X132222419Y-94889448D02*
X131222419Y-94622782D01*
X131222419Y-94432306D02*
X131222419Y-93937068D01*
X131222419Y-93937068D02*
X131603371Y-94203734D01*
X131603371Y-94203734D02*
X131603371Y-94089449D01*
X131603371Y-94089449D02*
X131650990Y-94013258D01*
X131650990Y-94013258D02*
X131698609Y-93975163D01*
X131698609Y-93975163D02*
X131793847Y-93937068D01*
X131793847Y-93937068D02*
X132031942Y-93937068D01*
X132031942Y-93937068D02*
X132127180Y-93975163D01*
X132127180Y-93975163D02*
X132174800Y-94013258D01*
X132174800Y-94013258D02*
X132222419Y-94089449D01*
X132222419Y-94089449D02*
X132222419Y-94318020D01*
X132222419Y-94318020D02*
X132174800Y-94394211D01*
X132174800Y-94394211D02*
X132127180Y-94432306D01*
X121547693Y-72050038D02*
X121452455Y-72002419D01*
X121452455Y-72002419D02*
X121309598Y-72002419D01*
X121309598Y-72002419D02*
X121166741Y-72050038D01*
X121166741Y-72050038D02*
X121071503Y-72145276D01*
X121071503Y-72145276D02*
X121023884Y-72240514D01*
X121023884Y-72240514D02*
X120976265Y-72430990D01*
X120976265Y-72430990D02*
X120976265Y-72573847D01*
X120976265Y-72573847D02*
X121023884Y-72764323D01*
X121023884Y-72764323D02*
X121071503Y-72859561D01*
X121071503Y-72859561D02*
X121166741Y-72954800D01*
X121166741Y-72954800D02*
X121309598Y-73002419D01*
X121309598Y-73002419D02*
X121404836Y-73002419D01*
X121404836Y-73002419D02*
X121547693Y-72954800D01*
X121547693Y-72954800D02*
X121595312Y-72907180D01*
X121595312Y-72907180D02*
X121595312Y-72573847D01*
X121595312Y-72573847D02*
X121404836Y-72573847D01*
X122023884Y-73002419D02*
X122023884Y-72002419D01*
X122023884Y-72002419D02*
X122595312Y-73002419D01*
X122595312Y-73002419D02*
X122595312Y-72002419D01*
X123071503Y-73002419D02*
X123071503Y-72002419D01*
X123071503Y-72002419D02*
X123309598Y-72002419D01*
X123309598Y-72002419D02*
X123452455Y-72050038D01*
X123452455Y-72050038D02*
X123547693Y-72145276D01*
X123547693Y-72145276D02*
X123595312Y-72240514D01*
X123595312Y-72240514D02*
X123642931Y-72430990D01*
X123642931Y-72430990D02*
X123642931Y-72573847D01*
X123642931Y-72573847D02*
X123595312Y-72764323D01*
X123595312Y-72764323D02*
X123547693Y-72859561D01*
X123547693Y-72859561D02*
X123452455Y-72954800D01*
X123452455Y-72954800D02*
X123309598Y-73002419D01*
X123309598Y-73002419D02*
X123071503Y-73002419D01*
X107493884Y-66098609D02*
X107827217Y-66098609D01*
X107970074Y-66622419D02*
X107493884Y-66622419D01*
X107493884Y-66622419D02*
X107493884Y-65622419D01*
X107493884Y-65622419D02*
X107970074Y-65622419D01*
X108351027Y-66574800D02*
X108493884Y-66622419D01*
X108493884Y-66622419D02*
X108731979Y-66622419D01*
X108731979Y-66622419D02*
X108827217Y-66574800D01*
X108827217Y-66574800D02*
X108874836Y-66527180D01*
X108874836Y-66527180D02*
X108922455Y-66431942D01*
X108922455Y-66431942D02*
X108922455Y-66336704D01*
X108922455Y-66336704D02*
X108874836Y-66241466D01*
X108874836Y-66241466D02*
X108827217Y-66193847D01*
X108827217Y-66193847D02*
X108731979Y-66146228D01*
X108731979Y-66146228D02*
X108541503Y-66098609D01*
X108541503Y-66098609D02*
X108446265Y-66050990D01*
X108446265Y-66050990D02*
X108398646Y-66003371D01*
X108398646Y-66003371D02*
X108351027Y-65908133D01*
X108351027Y-65908133D02*
X108351027Y-65812895D01*
X108351027Y-65812895D02*
X108398646Y-65717657D01*
X108398646Y-65717657D02*
X108446265Y-65670038D01*
X108446265Y-65670038D02*
X108541503Y-65622419D01*
X108541503Y-65622419D02*
X108779598Y-65622419D01*
X108779598Y-65622419D02*
X108922455Y-65670038D01*
X109351027Y-66622419D02*
X109351027Y-65622419D01*
X109351027Y-65622419D02*
X109731979Y-65622419D01*
X109731979Y-65622419D02*
X109827217Y-65670038D01*
X109827217Y-65670038D02*
X109874836Y-65717657D01*
X109874836Y-65717657D02*
X109922455Y-65812895D01*
X109922455Y-65812895D02*
X109922455Y-65955752D01*
X109922455Y-65955752D02*
X109874836Y-66050990D01*
X109874836Y-66050990D02*
X109827217Y-66098609D01*
X109827217Y-66098609D02*
X109731979Y-66146228D01*
X109731979Y-66146228D02*
X109351027Y-66146228D01*
X110255789Y-65622419D02*
X110874836Y-65622419D01*
X110874836Y-65622419D02*
X110541503Y-66003371D01*
X110541503Y-66003371D02*
X110684360Y-66003371D01*
X110684360Y-66003371D02*
X110779598Y-66050990D01*
X110779598Y-66050990D02*
X110827217Y-66098609D01*
X110827217Y-66098609D02*
X110874836Y-66193847D01*
X110874836Y-66193847D02*
X110874836Y-66431942D01*
X110874836Y-66431942D02*
X110827217Y-66527180D01*
X110827217Y-66527180D02*
X110779598Y-66574800D01*
X110779598Y-66574800D02*
X110684360Y-66622419D01*
X110684360Y-66622419D02*
X110398646Y-66622419D01*
X110398646Y-66622419D02*
X110303408Y-66574800D01*
X110303408Y-66574800D02*
X110255789Y-66527180D01*
X111255789Y-65717657D02*
X111303408Y-65670038D01*
X111303408Y-65670038D02*
X111398646Y-65622419D01*
X111398646Y-65622419D02*
X111636741Y-65622419D01*
X111636741Y-65622419D02*
X111731979Y-65670038D01*
X111731979Y-65670038D02*
X111779598Y-65717657D01*
X111779598Y-65717657D02*
X111827217Y-65812895D01*
X111827217Y-65812895D02*
X111827217Y-65908133D01*
X111827217Y-65908133D02*
X111779598Y-66050990D01*
X111779598Y-66050990D02*
X111208170Y-66622419D01*
X111208170Y-66622419D02*
X111827217Y-66622419D01*
X112255789Y-66241466D02*
X113017694Y-66241466D01*
X114065312Y-66527180D02*
X114017693Y-66574800D01*
X114017693Y-66574800D02*
X113874836Y-66622419D01*
X113874836Y-66622419D02*
X113779598Y-66622419D01*
X113779598Y-66622419D02*
X113636741Y-66574800D01*
X113636741Y-66574800D02*
X113541503Y-66479561D01*
X113541503Y-66479561D02*
X113493884Y-66384323D01*
X113493884Y-66384323D02*
X113446265Y-66193847D01*
X113446265Y-66193847D02*
X113446265Y-66050990D01*
X113446265Y-66050990D02*
X113493884Y-65860514D01*
X113493884Y-65860514D02*
X113541503Y-65765276D01*
X113541503Y-65765276D02*
X113636741Y-65670038D01*
X113636741Y-65670038D02*
X113779598Y-65622419D01*
X113779598Y-65622419D02*
X113874836Y-65622419D01*
X113874836Y-65622419D02*
X114017693Y-65670038D01*
X114017693Y-65670038D02*
X114065312Y-65717657D01*
X114398646Y-65622419D02*
X115017693Y-65622419D01*
X115017693Y-65622419D02*
X114684360Y-66003371D01*
X114684360Y-66003371D02*
X114827217Y-66003371D01*
X114827217Y-66003371D02*
X114922455Y-66050990D01*
X114922455Y-66050990D02*
X114970074Y-66098609D01*
X114970074Y-66098609D02*
X115017693Y-66193847D01*
X115017693Y-66193847D02*
X115017693Y-66431942D01*
X115017693Y-66431942D02*
X114970074Y-66527180D01*
X114970074Y-66527180D02*
X114922455Y-66574800D01*
X114922455Y-66574800D02*
X114827217Y-66622419D01*
X114827217Y-66622419D02*
X114541503Y-66622419D01*
X114541503Y-66622419D02*
X114446265Y-66574800D01*
X114446265Y-66574800D02*
X114398646Y-66527180D01*
X108255312Y-108710038D02*
X108179122Y-108662419D01*
X108179122Y-108662419D02*
X108064836Y-108662419D01*
X108064836Y-108662419D02*
X107950550Y-108710038D01*
X107950550Y-108710038D02*
X107874360Y-108805276D01*
X107874360Y-108805276D02*
X107836265Y-108900514D01*
X107836265Y-108900514D02*
X107798169Y-109090990D01*
X107798169Y-109090990D02*
X107798169Y-109233847D01*
X107798169Y-109233847D02*
X107836265Y-109424323D01*
X107836265Y-109424323D02*
X107874360Y-109519561D01*
X107874360Y-109519561D02*
X107950550Y-109614800D01*
X107950550Y-109614800D02*
X108064836Y-109662419D01*
X108064836Y-109662419D02*
X108141027Y-109662419D01*
X108141027Y-109662419D02*
X108255312Y-109614800D01*
X108255312Y-109614800D02*
X108293408Y-109567180D01*
X108293408Y-109567180D02*
X108293408Y-109233847D01*
X108293408Y-109233847D02*
X108141027Y-109233847D01*
X108636265Y-109662419D02*
X108636265Y-108662419D01*
X108636265Y-108662419D02*
X109093408Y-109662419D01*
X109093408Y-109662419D02*
X109093408Y-108662419D01*
X109474360Y-109662419D02*
X109474360Y-108662419D01*
X109474360Y-108662419D02*
X109664836Y-108662419D01*
X109664836Y-108662419D02*
X109779122Y-108710038D01*
X109779122Y-108710038D02*
X109855312Y-108805276D01*
X109855312Y-108805276D02*
X109893407Y-108900514D01*
X109893407Y-108900514D02*
X109931503Y-109090990D01*
X109931503Y-109090990D02*
X109931503Y-109233847D01*
X109931503Y-109233847D02*
X109893407Y-109424323D01*
X109893407Y-109424323D02*
X109855312Y-109519561D01*
X109855312Y-109519561D02*
X109779122Y-109614800D01*
X109779122Y-109614800D02*
X109664836Y-109662419D01*
X109664836Y-109662419D02*
X109474360Y-109662419D01*
X133600038Y-95414687D02*
X133552419Y-95490877D01*
X133552419Y-95490877D02*
X133552419Y-95605163D01*
X133552419Y-95605163D02*
X133600038Y-95719449D01*
X133600038Y-95719449D02*
X133695276Y-95795639D01*
X133695276Y-95795639D02*
X133790514Y-95833734D01*
X133790514Y-95833734D02*
X133980990Y-95871830D01*
X133980990Y-95871830D02*
X134123847Y-95871830D01*
X134123847Y-95871830D02*
X134314323Y-95833734D01*
X134314323Y-95833734D02*
X134409561Y-95795639D01*
X134409561Y-95795639D02*
X134504800Y-95719449D01*
X134504800Y-95719449D02*
X134552419Y-95605163D01*
X134552419Y-95605163D02*
X134552419Y-95528972D01*
X134552419Y-95528972D02*
X134504800Y-95414687D01*
X134504800Y-95414687D02*
X134457180Y-95376591D01*
X134457180Y-95376591D02*
X134123847Y-95376591D01*
X134123847Y-95376591D02*
X134123847Y-95528972D01*
X134552419Y-95033734D02*
X133552419Y-95033734D01*
X133552419Y-95033734D02*
X134552419Y-94576591D01*
X134552419Y-94576591D02*
X133552419Y-94576591D01*
X134552419Y-94195639D02*
X133552419Y-94195639D01*
X133552419Y-94195639D02*
X133552419Y-94005163D01*
X133552419Y-94005163D02*
X133600038Y-93890877D01*
X133600038Y-93890877D02*
X133695276Y-93814687D01*
X133695276Y-93814687D02*
X133790514Y-93776592D01*
X133790514Y-93776592D02*
X133980990Y-93738496D01*
X133980990Y-93738496D02*
X134123847Y-93738496D01*
X134123847Y-93738496D02*
X134314323Y-93776592D01*
X134314323Y-93776592D02*
X134409561Y-93814687D01*
X134409561Y-93814687D02*
X134504800Y-93890877D01*
X134504800Y-93890877D02*
X134552419Y-94005163D01*
X134552419Y-94005163D02*
X134552419Y-94195639D01*
X100914360Y-72456228D02*
X100914360Y-72932419D01*
X100581027Y-71932419D02*
X100914360Y-72456228D01*
X100914360Y-72456228D02*
X101247693Y-71932419D01*
X112690074Y-108662419D02*
X113185312Y-108662419D01*
X113185312Y-108662419D02*
X112918646Y-109043371D01*
X112918646Y-109043371D02*
X113032931Y-109043371D01*
X113032931Y-109043371D02*
X113109122Y-109090990D01*
X113109122Y-109090990D02*
X113147217Y-109138609D01*
X113147217Y-109138609D02*
X113185312Y-109233847D01*
X113185312Y-109233847D02*
X113185312Y-109471942D01*
X113185312Y-109471942D02*
X113147217Y-109567180D01*
X113147217Y-109567180D02*
X113109122Y-109614800D01*
X113109122Y-109614800D02*
X113032931Y-109662419D01*
X113032931Y-109662419D02*
X112804360Y-109662419D01*
X112804360Y-109662419D02*
X112728169Y-109614800D01*
X112728169Y-109614800D02*
X112690074Y-109567180D01*
X113413884Y-108662419D02*
X113680551Y-109662419D01*
X113680551Y-109662419D02*
X113947217Y-108662419D01*
X114137693Y-108662419D02*
X114632931Y-108662419D01*
X114632931Y-108662419D02*
X114366265Y-109043371D01*
X114366265Y-109043371D02*
X114480550Y-109043371D01*
X114480550Y-109043371D02*
X114556741Y-109090990D01*
X114556741Y-109090990D02*
X114594836Y-109138609D01*
X114594836Y-109138609D02*
X114632931Y-109233847D01*
X114632931Y-109233847D02*
X114632931Y-109471942D01*
X114632931Y-109471942D02*
X114594836Y-109567180D01*
X114594836Y-109567180D02*
X114556741Y-109614800D01*
X114556741Y-109614800D02*
X114480550Y-109662419D01*
X114480550Y-109662419D02*
X114251979Y-109662419D01*
X114251979Y-109662419D02*
X114175788Y-109614800D01*
X114175788Y-109614800D02*
X114137693Y-109567180D01*
X120998646Y-74622419D02*
X121617693Y-74622419D01*
X121617693Y-74622419D02*
X121284360Y-75003371D01*
X121284360Y-75003371D02*
X121427217Y-75003371D01*
X121427217Y-75003371D02*
X121522455Y-75050990D01*
X121522455Y-75050990D02*
X121570074Y-75098609D01*
X121570074Y-75098609D02*
X121617693Y-75193847D01*
X121617693Y-75193847D02*
X121617693Y-75431942D01*
X121617693Y-75431942D02*
X121570074Y-75527180D01*
X121570074Y-75527180D02*
X121522455Y-75574800D01*
X121522455Y-75574800D02*
X121427217Y-75622419D01*
X121427217Y-75622419D02*
X121141503Y-75622419D01*
X121141503Y-75622419D02*
X121046265Y-75574800D01*
X121046265Y-75574800D02*
X120998646Y-75527180D01*
X121903408Y-74622419D02*
X122236741Y-75622419D01*
X122236741Y-75622419D02*
X122570074Y-74622419D01*
X122808170Y-74622419D02*
X123427217Y-74622419D01*
X123427217Y-74622419D02*
X123093884Y-75003371D01*
X123093884Y-75003371D02*
X123236741Y-75003371D01*
X123236741Y-75003371D02*
X123331979Y-75050990D01*
X123331979Y-75050990D02*
X123379598Y-75098609D01*
X123379598Y-75098609D02*
X123427217Y-75193847D01*
X123427217Y-75193847D02*
X123427217Y-75431942D01*
X123427217Y-75431942D02*
X123379598Y-75527180D01*
X123379598Y-75527180D02*
X123331979Y-75574800D01*
X123331979Y-75574800D02*
X123236741Y-75622419D01*
X123236741Y-75622419D02*
X122951027Y-75622419D01*
X122951027Y-75622419D02*
X122855789Y-75574800D01*
X122855789Y-75574800D02*
X122808170Y-75527180D01*
X144955312Y-102590038D02*
X144879122Y-102542419D01*
X144879122Y-102542419D02*
X144764836Y-102542419D01*
X144764836Y-102542419D02*
X144650550Y-102590038D01*
X144650550Y-102590038D02*
X144574360Y-102685276D01*
X144574360Y-102685276D02*
X144536265Y-102780514D01*
X144536265Y-102780514D02*
X144498169Y-102970990D01*
X144498169Y-102970990D02*
X144498169Y-103113847D01*
X144498169Y-103113847D02*
X144536265Y-103304323D01*
X144536265Y-103304323D02*
X144574360Y-103399561D01*
X144574360Y-103399561D02*
X144650550Y-103494800D01*
X144650550Y-103494800D02*
X144764836Y-103542419D01*
X144764836Y-103542419D02*
X144841027Y-103542419D01*
X144841027Y-103542419D02*
X144955312Y-103494800D01*
X144955312Y-103494800D02*
X144993408Y-103447180D01*
X144993408Y-103447180D02*
X144993408Y-103113847D01*
X144993408Y-103113847D02*
X144841027Y-103113847D01*
X145336265Y-103542419D02*
X145336265Y-102542419D01*
X145336265Y-102542419D02*
X145793408Y-103542419D01*
X145793408Y-103542419D02*
X145793408Y-102542419D01*
X146174360Y-103542419D02*
X146174360Y-102542419D01*
X146174360Y-102542419D02*
X146364836Y-102542419D01*
X146364836Y-102542419D02*
X146479122Y-102590038D01*
X146479122Y-102590038D02*
X146555312Y-102685276D01*
X146555312Y-102685276D02*
X146593407Y-102780514D01*
X146593407Y-102780514D02*
X146631503Y-102970990D01*
X146631503Y-102970990D02*
X146631503Y-103113847D01*
X146631503Y-103113847D02*
X146593407Y-103304323D01*
X146593407Y-103304323D02*
X146555312Y-103399561D01*
X146555312Y-103399561D02*
X146479122Y-103494800D01*
X146479122Y-103494800D02*
X146364836Y-103542419D01*
X146364836Y-103542419D02*
X146174360Y-103542419D01*
X133790074Y-70492419D02*
X134285312Y-70492419D01*
X134285312Y-70492419D02*
X134018646Y-70873371D01*
X134018646Y-70873371D02*
X134132931Y-70873371D01*
X134132931Y-70873371D02*
X134209122Y-70920990D01*
X134209122Y-70920990D02*
X134247217Y-70968609D01*
X134247217Y-70968609D02*
X134285312Y-71063847D01*
X134285312Y-71063847D02*
X134285312Y-71301942D01*
X134285312Y-71301942D02*
X134247217Y-71397180D01*
X134247217Y-71397180D02*
X134209122Y-71444800D01*
X134209122Y-71444800D02*
X134132931Y-71492419D01*
X134132931Y-71492419D02*
X133904360Y-71492419D01*
X133904360Y-71492419D02*
X133828169Y-71444800D01*
X133828169Y-71444800D02*
X133790074Y-71397180D01*
X134513884Y-70492419D02*
X134780551Y-71492419D01*
X134780551Y-71492419D02*
X135047217Y-70492419D01*
X135237693Y-70492419D02*
X135732931Y-70492419D01*
X135732931Y-70492419D02*
X135466265Y-70873371D01*
X135466265Y-70873371D02*
X135580550Y-70873371D01*
X135580550Y-70873371D02*
X135656741Y-70920990D01*
X135656741Y-70920990D02*
X135694836Y-70968609D01*
X135694836Y-70968609D02*
X135732931Y-71063847D01*
X135732931Y-71063847D02*
X135732931Y-71301942D01*
X135732931Y-71301942D02*
X135694836Y-71397180D01*
X135694836Y-71397180D02*
X135656741Y-71444800D01*
X135656741Y-71444800D02*
X135580550Y-71492419D01*
X135580550Y-71492419D02*
X135351979Y-71492419D01*
X135351979Y-71492419D02*
X135275788Y-71444800D01*
X135275788Y-71444800D02*
X135237693Y-71397180D01*
X133790074Y-73752419D02*
X134323408Y-74752419D01*
X134323408Y-73752419D02*
X133790074Y-74752419D01*
X134437694Y-74847657D02*
X135047217Y-74847657D01*
X135390075Y-73752419D02*
X135542456Y-73752419D01*
X135542456Y-73752419D02*
X135618646Y-73800038D01*
X135618646Y-73800038D02*
X135694837Y-73895276D01*
X135694837Y-73895276D02*
X135732932Y-74085752D01*
X135732932Y-74085752D02*
X135732932Y-74419085D01*
X135732932Y-74419085D02*
X135694837Y-74609561D01*
X135694837Y-74609561D02*
X135618646Y-74704800D01*
X135618646Y-74704800D02*
X135542456Y-74752419D01*
X135542456Y-74752419D02*
X135390075Y-74752419D01*
X135390075Y-74752419D02*
X135313884Y-74704800D01*
X135313884Y-74704800D02*
X135237694Y-74609561D01*
X135237694Y-74609561D02*
X135199598Y-74419085D01*
X135199598Y-74419085D02*
X135199598Y-74085752D01*
X135199598Y-74085752D02*
X135237694Y-73895276D01*
X135237694Y-73895276D02*
X135313884Y-73800038D01*
X135313884Y-73800038D02*
X135390075Y-73752419D01*
X136075789Y-73752419D02*
X136075789Y-74561942D01*
X136075789Y-74561942D02*
X136113884Y-74657180D01*
X136113884Y-74657180D02*
X136151979Y-74704800D01*
X136151979Y-74704800D02*
X136228170Y-74752419D01*
X136228170Y-74752419D02*
X136380551Y-74752419D01*
X136380551Y-74752419D02*
X136456741Y-74704800D01*
X136456741Y-74704800D02*
X136494836Y-74657180D01*
X136494836Y-74657180D02*
X136532932Y-74561942D01*
X136532932Y-74561942D02*
X136532932Y-73752419D01*
X136799598Y-73752419D02*
X137256741Y-73752419D01*
X137028169Y-74752419D02*
X137028169Y-73752419D01*
X111138646Y-109186228D02*
X111138646Y-109662419D01*
X110871979Y-108662419D02*
X111138646Y-109186228D01*
X111138646Y-109186228D02*
X111405312Y-108662419D01*
X144466265Y-101942419D02*
X144466265Y-100942419D01*
X144466265Y-100942419D02*
X144771027Y-100942419D01*
X144771027Y-100942419D02*
X144847217Y-100990038D01*
X144847217Y-100990038D02*
X144885312Y-101037657D01*
X144885312Y-101037657D02*
X144923408Y-101132895D01*
X144923408Y-101132895D02*
X144923408Y-101275752D01*
X144923408Y-101275752D02*
X144885312Y-101370990D01*
X144885312Y-101370990D02*
X144847217Y-101418609D01*
X144847217Y-101418609D02*
X144771027Y-101466228D01*
X144771027Y-101466228D02*
X144466265Y-101466228D01*
X145190074Y-100942419D02*
X145380550Y-101942419D01*
X145380550Y-101942419D02*
X145532931Y-101228133D01*
X145532931Y-101228133D02*
X145685312Y-101942419D01*
X145685312Y-101942419D02*
X145875789Y-100942419D01*
X146637694Y-101942419D02*
X146371027Y-101466228D01*
X146180551Y-101942419D02*
X146180551Y-100942419D01*
X146180551Y-100942419D02*
X146485313Y-100942419D01*
X146485313Y-100942419D02*
X146561503Y-100990038D01*
X146561503Y-100990038D02*
X146599598Y-101037657D01*
X146599598Y-101037657D02*
X146637694Y-101132895D01*
X146637694Y-101132895D02*
X146637694Y-101275752D01*
X146637694Y-101275752D02*
X146599598Y-101370990D01*
X146599598Y-101370990D02*
X146561503Y-101418609D01*
X146561503Y-101418609D02*
X146485313Y-101466228D01*
X146485313Y-101466228D02*
X146180551Y-101466228D01*
X100498646Y-69572419D02*
X101165312Y-70572419D01*
X101165312Y-69572419D02*
X100498646Y-70572419D01*
X134285312Y-80510038D02*
X134209122Y-80462419D01*
X134209122Y-80462419D02*
X134094836Y-80462419D01*
X134094836Y-80462419D02*
X133980550Y-80510038D01*
X133980550Y-80510038D02*
X133904360Y-80605276D01*
X133904360Y-80605276D02*
X133866265Y-80700514D01*
X133866265Y-80700514D02*
X133828169Y-80890990D01*
X133828169Y-80890990D02*
X133828169Y-81033847D01*
X133828169Y-81033847D02*
X133866265Y-81224323D01*
X133866265Y-81224323D02*
X133904360Y-81319561D01*
X133904360Y-81319561D02*
X133980550Y-81414800D01*
X133980550Y-81414800D02*
X134094836Y-81462419D01*
X134094836Y-81462419D02*
X134171027Y-81462419D01*
X134171027Y-81462419D02*
X134285312Y-81414800D01*
X134285312Y-81414800D02*
X134323408Y-81367180D01*
X134323408Y-81367180D02*
X134323408Y-81033847D01*
X134323408Y-81033847D02*
X134171027Y-81033847D01*
X134666265Y-81462419D02*
X134666265Y-80462419D01*
X134666265Y-80462419D02*
X135123408Y-81462419D01*
X135123408Y-81462419D02*
X135123408Y-80462419D01*
X135504360Y-81462419D02*
X135504360Y-80462419D01*
X135504360Y-80462419D02*
X135694836Y-80462419D01*
X135694836Y-80462419D02*
X135809122Y-80510038D01*
X135809122Y-80510038D02*
X135885312Y-80605276D01*
X135885312Y-80605276D02*
X135923407Y-80700514D01*
X135923407Y-80700514D02*
X135961503Y-80890990D01*
X135961503Y-80890990D02*
X135961503Y-81033847D01*
X135961503Y-81033847D02*
X135923407Y-81224323D01*
X135923407Y-81224323D02*
X135885312Y-81319561D01*
X135885312Y-81319561D02*
X135809122Y-81414800D01*
X135809122Y-81414800D02*
X135694836Y-81462419D01*
X135694836Y-81462419D02*
X135504360Y-81462419D01*
X122845312Y-95310038D02*
X122769122Y-95262419D01*
X122769122Y-95262419D02*
X122654836Y-95262419D01*
X122654836Y-95262419D02*
X122540550Y-95310038D01*
X122540550Y-95310038D02*
X122464360Y-95405276D01*
X122464360Y-95405276D02*
X122426265Y-95500514D01*
X122426265Y-95500514D02*
X122388169Y-95690990D01*
X122388169Y-95690990D02*
X122388169Y-95833847D01*
X122388169Y-95833847D02*
X122426265Y-96024323D01*
X122426265Y-96024323D02*
X122464360Y-96119561D01*
X122464360Y-96119561D02*
X122540550Y-96214800D01*
X122540550Y-96214800D02*
X122654836Y-96262419D01*
X122654836Y-96262419D02*
X122731027Y-96262419D01*
X122731027Y-96262419D02*
X122845312Y-96214800D01*
X122845312Y-96214800D02*
X122883408Y-96167180D01*
X122883408Y-96167180D02*
X122883408Y-95833847D01*
X122883408Y-95833847D02*
X122731027Y-95833847D01*
X123226265Y-96262419D02*
X123226265Y-95262419D01*
X123226265Y-95262419D02*
X123683408Y-96262419D01*
X123683408Y-96262419D02*
X123683408Y-95262419D01*
X124064360Y-96262419D02*
X124064360Y-95262419D01*
X124064360Y-95262419D02*
X124254836Y-95262419D01*
X124254836Y-95262419D02*
X124369122Y-95310038D01*
X124369122Y-95310038D02*
X124445312Y-95405276D01*
X124445312Y-95405276D02*
X124483407Y-95500514D01*
X124483407Y-95500514D02*
X124521503Y-95690990D01*
X124521503Y-95690990D02*
X124521503Y-95833847D01*
X124521503Y-95833847D02*
X124483407Y-96024323D01*
X124483407Y-96024323D02*
X124445312Y-96119561D01*
X124445312Y-96119561D02*
X124369122Y-96214800D01*
X124369122Y-96214800D02*
X124254836Y-96262419D01*
X124254836Y-96262419D02*
X124064360Y-96262419D01*
X122410074Y-99262419D02*
X122905312Y-99262419D01*
X122905312Y-99262419D02*
X122638646Y-99643371D01*
X122638646Y-99643371D02*
X122752931Y-99643371D01*
X122752931Y-99643371D02*
X122829122Y-99690990D01*
X122829122Y-99690990D02*
X122867217Y-99738609D01*
X122867217Y-99738609D02*
X122905312Y-99833847D01*
X122905312Y-99833847D02*
X122905312Y-100071942D01*
X122905312Y-100071942D02*
X122867217Y-100167180D01*
X122867217Y-100167180D02*
X122829122Y-100214800D01*
X122829122Y-100214800D02*
X122752931Y-100262419D01*
X122752931Y-100262419D02*
X122524360Y-100262419D01*
X122524360Y-100262419D02*
X122448169Y-100214800D01*
X122448169Y-100214800D02*
X122410074Y-100167180D01*
X123133884Y-99262419D02*
X123400551Y-100262419D01*
X123400551Y-100262419D02*
X123667217Y-99262419D01*
X123857693Y-99262419D02*
X124352931Y-99262419D01*
X124352931Y-99262419D02*
X124086265Y-99643371D01*
X124086265Y-99643371D02*
X124200550Y-99643371D01*
X124200550Y-99643371D02*
X124276741Y-99690990D01*
X124276741Y-99690990D02*
X124314836Y-99738609D01*
X124314836Y-99738609D02*
X124352931Y-99833847D01*
X124352931Y-99833847D02*
X124352931Y-100071942D01*
X124352931Y-100071942D02*
X124314836Y-100167180D01*
X124314836Y-100167180D02*
X124276741Y-100214800D01*
X124276741Y-100214800D02*
X124200550Y-100262419D01*
X124200550Y-100262419D02*
X123971979Y-100262419D01*
X123971979Y-100262419D02*
X123895788Y-100214800D01*
X123895788Y-100214800D02*
X123857693Y-100167180D01*
X122740074Y-97292419D02*
X123273408Y-98292419D01*
X123273408Y-97292419D02*
X122740074Y-98292419D01*
X130062419Y-96023734D02*
X129062419Y-96023734D01*
X129062419Y-96023734D02*
X129062419Y-95718972D01*
X129062419Y-95718972D02*
X129110038Y-95642782D01*
X129110038Y-95642782D02*
X129157657Y-95604687D01*
X129157657Y-95604687D02*
X129252895Y-95566591D01*
X129252895Y-95566591D02*
X129395752Y-95566591D01*
X129395752Y-95566591D02*
X129490990Y-95604687D01*
X129490990Y-95604687D02*
X129538609Y-95642782D01*
X129538609Y-95642782D02*
X129586228Y-95718972D01*
X129586228Y-95718972D02*
X129586228Y-96023734D01*
X129062419Y-95299925D02*
X130062419Y-95109449D01*
X130062419Y-95109449D02*
X129348133Y-94957068D01*
X129348133Y-94957068D02*
X130062419Y-94804687D01*
X130062419Y-94804687D02*
X129062419Y-94614211D01*
X130062419Y-93852305D02*
X129586228Y-94118972D01*
X130062419Y-94309448D02*
X129062419Y-94309448D01*
X129062419Y-94309448D02*
X129062419Y-94004686D01*
X129062419Y-94004686D02*
X129110038Y-93928496D01*
X129110038Y-93928496D02*
X129157657Y-93890401D01*
X129157657Y-93890401D02*
X129252895Y-93852305D01*
X129252895Y-93852305D02*
X129395752Y-93852305D01*
X129395752Y-93852305D02*
X129490990Y-93890401D01*
X129490990Y-93890401D02*
X129538609Y-93928496D01*
X129538609Y-93928496D02*
X129586228Y-94004686D01*
X129586228Y-94004686D02*
X129586228Y-94309448D01*
X134018646Y-77776228D02*
X134018646Y-78252419D01*
X133751979Y-77252419D02*
X134018646Y-77776228D01*
X134018646Y-77776228D02*
X134285312Y-77252419D01*
X134361503Y-78347657D02*
X134971026Y-78347657D01*
X135313884Y-77252419D02*
X135466265Y-77252419D01*
X135466265Y-77252419D02*
X135542455Y-77300038D01*
X135542455Y-77300038D02*
X135618646Y-77395276D01*
X135618646Y-77395276D02*
X135656741Y-77585752D01*
X135656741Y-77585752D02*
X135656741Y-77919085D01*
X135656741Y-77919085D02*
X135618646Y-78109561D01*
X135618646Y-78109561D02*
X135542455Y-78204800D01*
X135542455Y-78204800D02*
X135466265Y-78252419D01*
X135466265Y-78252419D02*
X135313884Y-78252419D01*
X135313884Y-78252419D02*
X135237693Y-78204800D01*
X135237693Y-78204800D02*
X135161503Y-78109561D01*
X135161503Y-78109561D02*
X135123407Y-77919085D01*
X135123407Y-77919085D02*
X135123407Y-77585752D01*
X135123407Y-77585752D02*
X135161503Y-77395276D01*
X135161503Y-77395276D02*
X135237693Y-77300038D01*
X135237693Y-77300038D02*
X135313884Y-77252419D01*
X135999598Y-77252419D02*
X135999598Y-78061942D01*
X135999598Y-78061942D02*
X136037693Y-78157180D01*
X136037693Y-78157180D02*
X136075788Y-78204800D01*
X136075788Y-78204800D02*
X136151979Y-78252419D01*
X136151979Y-78252419D02*
X136304360Y-78252419D01*
X136304360Y-78252419D02*
X136380550Y-78204800D01*
X136380550Y-78204800D02*
X136418645Y-78157180D01*
X136418645Y-78157180D02*
X136456741Y-78061942D01*
X136456741Y-78061942D02*
X136456741Y-77252419D01*
X136723407Y-77252419D02*
X137180550Y-77252419D01*
X136951978Y-78252419D02*
X136951978Y-77252419D01*
D41*
X138846666Y-80784819D02*
X138846666Y-81499104D01*
X138846666Y-81499104D02*
X138799047Y-81641961D01*
X138799047Y-81641961D02*
X138703809Y-81737200D01*
X138703809Y-81737200D02*
X138560952Y-81784819D01*
X138560952Y-81784819D02*
X138465714Y-81784819D01*
X139846666Y-81784819D02*
X139275238Y-81784819D01*
X139560952Y-81784819D02*
X139560952Y-80784819D01*
X139560952Y-80784819D02*
X139465714Y-80927676D01*
X139465714Y-80927676D02*
X139370476Y-81022914D01*
X139370476Y-81022914D02*
X139275238Y-81070533D01*
X123807143Y-67364819D02*
X123902381Y-67364819D01*
X123902381Y-67364819D02*
X123997619Y-67412438D01*
X123997619Y-67412438D02*
X124045238Y-67460057D01*
X124045238Y-67460057D02*
X124092857Y-67555295D01*
X124092857Y-67555295D02*
X124140476Y-67745771D01*
X124140476Y-67745771D02*
X124140476Y-67983866D01*
X124140476Y-67983866D02*
X124092857Y-68174342D01*
X124092857Y-68174342D02*
X124045238Y-68269580D01*
X124045238Y-68269580D02*
X123997619Y-68317200D01*
X123997619Y-68317200D02*
X123902381Y-68364819D01*
X123902381Y-68364819D02*
X123807143Y-68364819D01*
X123807143Y-68364819D02*
X123711905Y-68317200D01*
X123711905Y-68317200D02*
X123664286Y-68269580D01*
X123664286Y-68269580D02*
X123616667Y-68174342D01*
X123616667Y-68174342D02*
X123569048Y-67983866D01*
X123569048Y-67983866D02*
X123569048Y-67745771D01*
X123569048Y-67745771D02*
X123616667Y-67555295D01*
X123616667Y-67555295D02*
X123664286Y-67460057D01*
X123664286Y-67460057D02*
X123711905Y-67412438D01*
X123711905Y-67412438D02*
X123807143Y-67364819D01*
X124569048Y-68269580D02*
X124616667Y-68317200D01*
X124616667Y-68317200D02*
X124569048Y-68364819D01*
X124569048Y-68364819D02*
X124521429Y-68317200D01*
X124521429Y-68317200D02*
X124569048Y-68269580D01*
X124569048Y-68269580D02*
X124569048Y-68364819D01*
X125569047Y-68364819D02*
X124997619Y-68364819D01*
X125283333Y-68364819D02*
X125283333Y-67364819D01*
X125283333Y-67364819D02*
X125188095Y-67507676D01*
X125188095Y-67507676D02*
X125092857Y-67602914D01*
X125092857Y-67602914D02*
X124997619Y-67650533D01*
X126426190Y-67698152D02*
X126426190Y-68364819D01*
X125997619Y-67698152D02*
X125997619Y-68221961D01*
X125997619Y-68221961D02*
X126045238Y-68317200D01*
X126045238Y-68317200D02*
X126140476Y-68364819D01*
X126140476Y-68364819D02*
X126283333Y-68364819D01*
X126283333Y-68364819D02*
X126378571Y-68317200D01*
X126378571Y-68317200D02*
X126426190Y-68269580D01*
X127235714Y-67841009D02*
X126902381Y-67841009D01*
X126902381Y-68364819D02*
X126902381Y-67364819D01*
X126902381Y-67364819D02*
X127378571Y-67364819D01*
X139030001Y-108531009D02*
X139130001Y-108578628D01*
X139130001Y-108578628D02*
X139163334Y-108626247D01*
X139163334Y-108626247D02*
X139196667Y-108721485D01*
X139196667Y-108721485D02*
X139196667Y-108864342D01*
X139196667Y-108864342D02*
X139163334Y-108959580D01*
X139163334Y-108959580D02*
X139130001Y-109007200D01*
X139130001Y-109007200D02*
X139063334Y-109054819D01*
X139063334Y-109054819D02*
X138796667Y-109054819D01*
X138796667Y-109054819D02*
X138796667Y-108054819D01*
X138796667Y-108054819D02*
X139030001Y-108054819D01*
X139030001Y-108054819D02*
X139096667Y-108102438D01*
X139096667Y-108102438D02*
X139130001Y-108150057D01*
X139130001Y-108150057D02*
X139163334Y-108245295D01*
X139163334Y-108245295D02*
X139163334Y-108340533D01*
X139163334Y-108340533D02*
X139130001Y-108435771D01*
X139130001Y-108435771D02*
X139096667Y-108483390D01*
X139096667Y-108483390D02*
X139030001Y-108531009D01*
X139030001Y-108531009D02*
X138796667Y-108531009D01*
X139463334Y-108769104D02*
X139796667Y-108769104D01*
X139396667Y-109054819D02*
X139630001Y-108054819D01*
X139630001Y-108054819D02*
X139863334Y-109054819D01*
X139996667Y-108054819D02*
X140396667Y-108054819D01*
X140196667Y-109054819D02*
X140196667Y-108054819D01*
X140530000Y-108054819D02*
X140930000Y-108054819D01*
X140730000Y-109054819D02*
X140730000Y-108054819D01*
X141163333Y-108531009D02*
X141396667Y-108531009D01*
X141496667Y-109054819D02*
X141163333Y-109054819D01*
X141163333Y-109054819D02*
X141163333Y-108054819D01*
X141163333Y-108054819D02*
X141496667Y-108054819D01*
X142196666Y-109054819D02*
X141963333Y-108578628D01*
X141796666Y-109054819D02*
X141796666Y-108054819D01*
X141796666Y-108054819D02*
X142063333Y-108054819D01*
X142063333Y-108054819D02*
X142130000Y-108102438D01*
X142130000Y-108102438D02*
X142163333Y-108150057D01*
X142163333Y-108150057D02*
X142196666Y-108245295D01*
X142196666Y-108245295D02*
X142196666Y-108388152D01*
X142196666Y-108388152D02*
X142163333Y-108483390D01*
X142163333Y-108483390D02*
X142130000Y-108531009D01*
X142130000Y-108531009D02*
X142063333Y-108578628D01*
X142063333Y-108578628D02*
X141796666Y-108578628D01*
X142630000Y-108578628D02*
X142630000Y-109054819D01*
X142396666Y-108054819D02*
X142630000Y-108578628D01*
X142630000Y-108578628D02*
X142863333Y-108054819D01*
X136148571Y-90374819D02*
X135577143Y-90374819D01*
X135862857Y-90374819D02*
X135862857Y-89374819D01*
X135862857Y-89374819D02*
X135767619Y-89517676D01*
X135767619Y-89517676D02*
X135672381Y-89612914D01*
X135672381Y-89612914D02*
X135577143Y-89660533D01*
X136767619Y-89374819D02*
X136862857Y-89374819D01*
X136862857Y-89374819D02*
X136958095Y-89422438D01*
X136958095Y-89422438D02*
X137005714Y-89470057D01*
X137005714Y-89470057D02*
X137053333Y-89565295D01*
X137053333Y-89565295D02*
X137100952Y-89755771D01*
X137100952Y-89755771D02*
X137100952Y-89993866D01*
X137100952Y-89993866D02*
X137053333Y-90184342D01*
X137053333Y-90184342D02*
X137005714Y-90279580D01*
X137005714Y-90279580D02*
X136958095Y-90327200D01*
X136958095Y-90327200D02*
X136862857Y-90374819D01*
X136862857Y-90374819D02*
X136767619Y-90374819D01*
X136767619Y-90374819D02*
X136672381Y-90327200D01*
X136672381Y-90327200D02*
X136624762Y-90279580D01*
X136624762Y-90279580D02*
X136577143Y-90184342D01*
X136577143Y-90184342D02*
X136529524Y-89993866D01*
X136529524Y-89993866D02*
X136529524Y-89755771D01*
X136529524Y-89755771D02*
X136577143Y-89565295D01*
X136577143Y-89565295D02*
X136624762Y-89470057D01*
X136624762Y-89470057D02*
X136672381Y-89422438D01*
X136672381Y-89422438D02*
X136767619Y-89374819D01*
X137958095Y-89708152D02*
X137958095Y-90374819D01*
X137529524Y-89708152D02*
X137529524Y-90231961D01*
X137529524Y-90231961D02*
X137577143Y-90327200D01*
X137577143Y-90327200D02*
X137672381Y-90374819D01*
X137672381Y-90374819D02*
X137815238Y-90374819D01*
X137815238Y-90374819D02*
X137910476Y-90327200D01*
X137910476Y-90327200D02*
X137958095Y-90279580D01*
X138767619Y-89851009D02*
X138434286Y-89851009D01*
X138434286Y-90374819D02*
X138434286Y-89374819D01*
X138434286Y-89374819D02*
X138910476Y-89374819D01*
X126668571Y-90524819D02*
X126097143Y-90524819D01*
X126382857Y-90524819D02*
X126382857Y-89524819D01*
X126382857Y-89524819D02*
X126287619Y-89667676D01*
X126287619Y-89667676D02*
X126192381Y-89762914D01*
X126192381Y-89762914D02*
X126097143Y-89810533D01*
X127287619Y-89524819D02*
X127382857Y-89524819D01*
X127382857Y-89524819D02*
X127478095Y-89572438D01*
X127478095Y-89572438D02*
X127525714Y-89620057D01*
X127525714Y-89620057D02*
X127573333Y-89715295D01*
X127573333Y-89715295D02*
X127620952Y-89905771D01*
X127620952Y-89905771D02*
X127620952Y-90143866D01*
X127620952Y-90143866D02*
X127573333Y-90334342D01*
X127573333Y-90334342D02*
X127525714Y-90429580D01*
X127525714Y-90429580D02*
X127478095Y-90477200D01*
X127478095Y-90477200D02*
X127382857Y-90524819D01*
X127382857Y-90524819D02*
X127287619Y-90524819D01*
X127287619Y-90524819D02*
X127192381Y-90477200D01*
X127192381Y-90477200D02*
X127144762Y-90429580D01*
X127144762Y-90429580D02*
X127097143Y-90334342D01*
X127097143Y-90334342D02*
X127049524Y-90143866D01*
X127049524Y-90143866D02*
X127049524Y-89905771D01*
X127049524Y-89905771D02*
X127097143Y-89715295D01*
X127097143Y-89715295D02*
X127144762Y-89620057D01*
X127144762Y-89620057D02*
X127192381Y-89572438D01*
X127192381Y-89572438D02*
X127287619Y-89524819D01*
X128478095Y-89858152D02*
X128478095Y-90524819D01*
X128049524Y-89858152D02*
X128049524Y-90381961D01*
X128049524Y-90381961D02*
X128097143Y-90477200D01*
X128097143Y-90477200D02*
X128192381Y-90524819D01*
X128192381Y-90524819D02*
X128335238Y-90524819D01*
X128335238Y-90524819D02*
X128430476Y-90477200D01*
X128430476Y-90477200D02*
X128478095Y-90429580D01*
X129287619Y-90001009D02*
X128954286Y-90001009D01*
X128954286Y-90524819D02*
X128954286Y-89524819D01*
X128954286Y-89524819D02*
X129430476Y-89524819D01*
X142684761Y-90264819D02*
X142113333Y-90264819D01*
X142399047Y-90264819D02*
X142399047Y-89264819D01*
X142399047Y-89264819D02*
X142303809Y-89407676D01*
X142303809Y-89407676D02*
X142208571Y-89502914D01*
X142208571Y-89502914D02*
X142113333Y-89550533D01*
X143541904Y-89598152D02*
X143541904Y-90264819D01*
X143113333Y-89598152D02*
X143113333Y-90121961D01*
X143113333Y-90121961D02*
X143160952Y-90217200D01*
X143160952Y-90217200D02*
X143256190Y-90264819D01*
X143256190Y-90264819D02*
X143399047Y-90264819D01*
X143399047Y-90264819D02*
X143494285Y-90217200D01*
X143494285Y-90217200D02*
X143541904Y-90169580D01*
X144351428Y-89741009D02*
X144018095Y-89741009D01*
X144018095Y-90264819D02*
X144018095Y-89264819D01*
X144018095Y-89264819D02*
X144494285Y-89264819D01*
X128049999Y-109274819D02*
X127716665Y-109274819D01*
X127716665Y-109274819D02*
X127716665Y-108274819D01*
X128283332Y-109274819D02*
X128283332Y-108274819D01*
X128283332Y-108274819D02*
X128516666Y-108989104D01*
X128516666Y-108989104D02*
X128749999Y-108274819D01*
X128749999Y-108274819D02*
X128749999Y-109274819D01*
X129449999Y-109274819D02*
X129049999Y-109274819D01*
X129249999Y-109274819D02*
X129249999Y-108274819D01*
X129249999Y-108274819D02*
X129183332Y-108417676D01*
X129183332Y-108417676D02*
X129116666Y-108512914D01*
X129116666Y-108512914D02*
X129049999Y-108560533D01*
X130116666Y-109274819D02*
X129716666Y-109274819D01*
X129916666Y-109274819D02*
X129916666Y-108274819D01*
X129916666Y-108274819D02*
X129849999Y-108417676D01*
X129849999Y-108417676D02*
X129783333Y-108512914D01*
X129783333Y-108512914D02*
X129716666Y-108560533D01*
X130783333Y-109274819D02*
X130383333Y-109274819D01*
X130583333Y-109274819D02*
X130583333Y-108274819D01*
X130583333Y-108274819D02*
X130516666Y-108417676D01*
X130516666Y-108417676D02*
X130450000Y-108512914D01*
X130450000Y-108512914D02*
X130383333Y-108560533D01*
X131016667Y-108274819D02*
X131483333Y-108274819D01*
X131483333Y-108274819D02*
X131183333Y-109274819D01*
X131750000Y-109274819D02*
X131750000Y-108274819D01*
X131750000Y-108274819D02*
X131916667Y-108274819D01*
X131916667Y-108274819D02*
X132016667Y-108322438D01*
X132016667Y-108322438D02*
X132083334Y-108417676D01*
X132083334Y-108417676D02*
X132116667Y-108512914D01*
X132116667Y-108512914D02*
X132150000Y-108703390D01*
X132150000Y-108703390D02*
X132150000Y-108846247D01*
X132150000Y-108846247D02*
X132116667Y-109036723D01*
X132116667Y-109036723D02*
X132083334Y-109131961D01*
X132083334Y-109131961D02*
X132016667Y-109227200D01*
X132016667Y-109227200D02*
X131916667Y-109274819D01*
X131916667Y-109274819D02*
X131750000Y-109274819D01*
X132350000Y-108274819D02*
X132750000Y-108274819D01*
X132550000Y-109274819D02*
X132550000Y-108274819D01*
X132983333Y-108893866D02*
X133516667Y-108893866D01*
X133783334Y-108274819D02*
X134216667Y-108274819D01*
X134216667Y-108274819D02*
X133983334Y-108655771D01*
X133983334Y-108655771D02*
X134083334Y-108655771D01*
X134083334Y-108655771D02*
X134150000Y-108703390D01*
X134150000Y-108703390D02*
X134183334Y-108751009D01*
X134183334Y-108751009D02*
X134216667Y-108846247D01*
X134216667Y-108846247D02*
X134216667Y-109084342D01*
X134216667Y-109084342D02*
X134183334Y-109179580D01*
X134183334Y-109179580D02*
X134150000Y-109227200D01*
X134150000Y-109227200D02*
X134083334Y-109274819D01*
X134083334Y-109274819D02*
X133883334Y-109274819D01*
X133883334Y-109274819D02*
X133816667Y-109227200D01*
X133816667Y-109227200D02*
X133783334Y-109179580D01*
X134516667Y-109179580D02*
X134550001Y-109227200D01*
X134550001Y-109227200D02*
X134516667Y-109274819D01*
X134516667Y-109274819D02*
X134483334Y-109227200D01*
X134483334Y-109227200D02*
X134516667Y-109179580D01*
X134516667Y-109179580D02*
X134516667Y-109274819D01*
X134783334Y-108274819D02*
X135216667Y-108274819D01*
X135216667Y-108274819D02*
X134983334Y-108655771D01*
X134983334Y-108655771D02*
X135083334Y-108655771D01*
X135083334Y-108655771D02*
X135150000Y-108703390D01*
X135150000Y-108703390D02*
X135183334Y-108751009D01*
X135183334Y-108751009D02*
X135216667Y-108846247D01*
X135216667Y-108846247D02*
X135216667Y-109084342D01*
X135216667Y-109084342D02*
X135183334Y-109179580D01*
X135183334Y-109179580D02*
X135150000Y-109227200D01*
X135150000Y-109227200D02*
X135083334Y-109274819D01*
X135083334Y-109274819D02*
X134883334Y-109274819D01*
X134883334Y-109274819D02*
X134816667Y-109227200D01*
X134816667Y-109227200D02*
X134783334Y-109179580D01*
X100639819Y-102227261D02*
X101354104Y-102227261D01*
X101354104Y-102227261D02*
X101496961Y-102274880D01*
X101496961Y-102274880D02*
X101592200Y-102370118D01*
X101592200Y-102370118D02*
X101639819Y-102512975D01*
X101639819Y-102512975D02*
X101639819Y-102608213D01*
X100639819Y-101560594D02*
X100639819Y-101370118D01*
X100639819Y-101370118D02*
X100687438Y-101274880D01*
X100687438Y-101274880D02*
X100782676Y-101179642D01*
X100782676Y-101179642D02*
X100973152Y-101132023D01*
X100973152Y-101132023D02*
X101306485Y-101132023D01*
X101306485Y-101132023D02*
X101496961Y-101179642D01*
X101496961Y-101179642D02*
X101592200Y-101274880D01*
X101592200Y-101274880D02*
X101639819Y-101370118D01*
X101639819Y-101370118D02*
X101639819Y-101560594D01*
X101639819Y-101560594D02*
X101592200Y-101655832D01*
X101592200Y-101655832D02*
X101496961Y-101751070D01*
X101496961Y-101751070D02*
X101306485Y-101798689D01*
X101306485Y-101798689D02*
X100973152Y-101798689D01*
X100973152Y-101798689D02*
X100782676Y-101751070D01*
X100782676Y-101751070D02*
X100687438Y-101655832D01*
X100687438Y-101655832D02*
X100639819Y-101560594D01*
X101163628Y-100512975D02*
X101639819Y-100512975D01*
X100639819Y-100846308D02*
X101163628Y-100512975D01*
X101163628Y-100512975D02*
X100639819Y-100179642D01*
X101592200Y-99893927D02*
X101639819Y-99751070D01*
X101639819Y-99751070D02*
X101639819Y-99512975D01*
X101639819Y-99512975D02*
X101592200Y-99417737D01*
X101592200Y-99417737D02*
X101544580Y-99370118D01*
X101544580Y-99370118D02*
X101449342Y-99322499D01*
X101449342Y-99322499D02*
X101354104Y-99322499D01*
X101354104Y-99322499D02*
X101258866Y-99370118D01*
X101258866Y-99370118D02*
X101211247Y-99417737D01*
X101211247Y-99417737D02*
X101163628Y-99512975D01*
X101163628Y-99512975D02*
X101116009Y-99703451D01*
X101116009Y-99703451D02*
X101068390Y-99798689D01*
X101068390Y-99798689D02*
X101020771Y-99846308D01*
X101020771Y-99846308D02*
X100925533Y-99893927D01*
X100925533Y-99893927D02*
X100830295Y-99893927D01*
X100830295Y-99893927D02*
X100735057Y-99846308D01*
X100735057Y-99846308D02*
X100687438Y-99798689D01*
X100687438Y-99798689D02*
X100639819Y-99703451D01*
X100639819Y-99703451D02*
X100639819Y-99465356D01*
X100639819Y-99465356D02*
X100687438Y-99322499D01*
X100639819Y-99036784D02*
X100639819Y-98465356D01*
X101639819Y-98751070D02*
X100639819Y-98751070D01*
X101639819Y-98132022D02*
X100639819Y-98132022D01*
X101544580Y-97084404D02*
X101592200Y-97132023D01*
X101592200Y-97132023D02*
X101639819Y-97274880D01*
X101639819Y-97274880D02*
X101639819Y-97370118D01*
X101639819Y-97370118D02*
X101592200Y-97512975D01*
X101592200Y-97512975D02*
X101496961Y-97608213D01*
X101496961Y-97608213D02*
X101401723Y-97655832D01*
X101401723Y-97655832D02*
X101211247Y-97703451D01*
X101211247Y-97703451D02*
X101068390Y-97703451D01*
X101068390Y-97703451D02*
X100877914Y-97655832D01*
X100877914Y-97655832D02*
X100782676Y-97608213D01*
X100782676Y-97608213D02*
X100687438Y-97512975D01*
X100687438Y-97512975D02*
X100639819Y-97370118D01*
X100639819Y-97370118D02*
X100639819Y-97274880D01*
X100639819Y-97274880D02*
X100687438Y-97132023D01*
X100687438Y-97132023D02*
X100735057Y-97084404D01*
X101639819Y-96655832D02*
X100639819Y-96655832D01*
X101639819Y-96084404D02*
X101068390Y-96512975D01*
X100639819Y-96084404D02*
X101211247Y-96655832D01*
D42*
%TO.C,TP3*%
X132830000Y-80850000D02*
G75*
G02*
X130930000Y-80850000I-950000J0D01*
G01*
X130930000Y-80850000D02*
G75*
G02*
X132830000Y-80850000I950000J0D01*
G01*
%TO.C,J1*%
X137850000Y-77730000D02*
X137850000Y-67510000D01*
X140510000Y-67510000D02*
X137850000Y-67510000D01*
X140510000Y-77730000D02*
X137850000Y-77730000D01*
X140510000Y-77730000D02*
X140510000Y-67510000D01*
X140510000Y-79000000D02*
X140510000Y-80330000D01*
X140510000Y-80330000D02*
X139180000Y-80330000D01*
%TO.C,TP2*%
X132830000Y-70850000D02*
G75*
G02*
X130930000Y-70850000I-950000J0D01*
G01*
X130930000Y-70850000D02*
G75*
G02*
X132830000Y-70850000I950000J0D01*
G01*
%TO.C,TP5*%
X132830000Y-77590000D02*
G75*
G02*
X130930000Y-77590000I-950000J0D01*
G01*
X130930000Y-77590000D02*
G75*
G02*
X132830000Y-77590000I950000J0D01*
G01*
%TO.C,TP4*%
X132830000Y-74190000D02*
G75*
G02*
X130930000Y-74190000I-950000J0D01*
G01*
X130930000Y-74190000D02*
G75*
G02*
X132830000Y-74190000I950000J0D01*
G01*
%TO.C,C4*%
X125711252Y-68855000D02*
X125188748Y-68855000D01*
X125711252Y-70325000D02*
X125188748Y-70325000D01*
%TO.C,TP1*%
X132890000Y-67680000D02*
G75*
G02*
X130990000Y-67680000I-950000J0D01*
G01*
X130990000Y-67680000D02*
G75*
G02*
X132890000Y-67680000I950000J0D01*
G01*
D43*
%TO.C,U2*%
X102437500Y-67127500D02*
X120217500Y-67127500D01*
X102437500Y-88082500D02*
X102437500Y-67127500D01*
X120217500Y-67127500D02*
X120217500Y-88082500D01*
X120217500Y-88082500D02*
X102437500Y-88082500D01*
D44*
X101927500Y-69921500D02*
G75*
G02*
X101727500Y-69921500I-100000J0D01*
G01*
X101727500Y-69921500D02*
G75*
G02*
X101927500Y-69921500I100000J0D01*
G01*
D42*
%TO.C,BATTERY*%
X138816000Y-100622500D02*
X138816000Y-104352500D01*
X141786000Y-100252500D02*
X142736000Y-100252500D01*
X141786000Y-104722500D02*
X142736000Y-104722500D01*
X142736000Y-100252500D02*
X142736000Y-101202500D01*
X142736000Y-101202500D02*
X143426000Y-101202500D01*
X142736000Y-104722500D02*
X142736000Y-103772500D01*
%TO.C,C3*%
X136531000Y-93281252D02*
X136531000Y-92758748D01*
X138001000Y-93281252D02*
X138001000Y-92758748D01*
%TO.C,C2*%
X127001000Y-93098752D02*
X127001000Y-92576248D01*
X128471000Y-93098752D02*
X128471000Y-92576248D01*
%TO.C,C1*%
X142631000Y-93328752D02*
X142631000Y-92806248D01*
X144101000Y-93328752D02*
X144101000Y-92806248D01*
%TO.C,U1*%
X128315000Y-99355000D02*
X128585000Y-99355000D01*
X128315000Y-105775000D02*
X128315000Y-99355000D01*
X135215000Y-99355000D02*
X134945000Y-99355000D01*
X135215000Y-105775000D02*
X135215000Y-99355000D01*
X135255000Y-98180000D02*
X134925000Y-97940000D01*
X135255000Y-97700000D01*
X135255000Y-98180000D01*
G36*
X135255000Y-98180000D02*
G01*
X134925000Y-97940000D01*
X135255000Y-97700000D01*
X135255000Y-98180000D01*
G37*
%TO.C,J2*%
X143392500Y-70120000D02*
X143392500Y-80340000D01*
X143392500Y-70120000D02*
X146052500Y-70120000D01*
X143392500Y-80340000D02*
X146052500Y-80340000D01*
X144722500Y-67520000D02*
X146052500Y-67520000D01*
X146052500Y-67520000D02*
X146052500Y-68850000D01*
X146052500Y-70120000D02*
X146052500Y-80340000D01*
D43*
%TO.C,JOYSTICK*%
X102410000Y-88795000D02*
X120110000Y-88795000D01*
X102410000Y-106745000D02*
X102410000Y-88795000D01*
X108190000Y-106745000D02*
X102410000Y-106745000D01*
X120110000Y-88795000D02*
X120110000Y-94700000D01*
X120110000Y-106745000D02*
X114330000Y-106745000D01*
X120110000Y-106745000D02*
X120110000Y-100840000D01*
%TD*%
D45*
X99985000Y-64455000D02*
X147670000Y-64520000D01*
X99985000Y-110985000D02*
X99985000Y-64455000D01*
X147690000Y-111100000D02*
X99985000Y-110985000D01*
X147670000Y-64520000D02*
X147690000Y-111100000D01*
M02*
