M48
; DRILL file {KiCad 8.0.2-1} date 2024-10-31T23:55:15-0400
; FORMAT={-:-/ absolute / inch / decimal}
; #@! TF.CreationDate,2024-10-31T23:55:15-04:00
; #@! TF.GenerationSoftware,Kicad,Pcbnew,8.0.2-1
; #@! TF.FileFunction,Plated,1,2,PTH
FMAT,2
INCH
; #@! TA.AperFunction,Plated,PTH,ViaDrill
T1C0.0118
; #@! TA.AperFunction,Plated,PTH,ComponentDrill
T2C0.0335
; #@! TA.AperFunction,Plated,PTH,ComponentDrill
T3C0.0354
; #@! TA.AperFunction,Plated,PTH,ComponentDrill
T4C0.0394
%
G90
G05
T1
X4.2031Y-2.7839
X4.5295Y-3.189
X4.9598Y-3.6594
X5.2309Y-3.8078
X5.3094Y-3.676
X5.5689Y-2.9858
X5.5697Y-3.1398
T2
X4.083Y-2.7578
X4.083Y-2.8578
X4.083Y-2.9578
X4.083Y-3.0578
X4.083Y-3.1578
X4.083Y-3.2578
X4.083Y-3.3578
X4.683Y-2.7578
X4.683Y-2.8578
X4.683Y-2.9578
X4.683Y-3.0578
X4.683Y-3.1578
X4.683Y-3.2578
X4.683Y-3.3578
T3
X4.3016Y-4.2035
X4.3803Y-4.2035
X4.4591Y-4.2035
X4.7346Y-3.7705
X4.7346Y-3.8492
X4.7346Y-3.928
T4
X5.4795Y-2.7102
X5.4795Y-2.8102
X5.4795Y-2.9102
X5.4795Y-3.0102
X5.4795Y-3.1102
X5.6977Y-2.7106
X5.6977Y-2.8106
X5.6977Y-2.9106
X5.6977Y-3.0106
X5.6977Y-3.1106
M30
